SplineFontDB: 3.0
FontName: Manjari
FullName: Manjari
FamilyName: Manjari
Weight: Book
Copyright: Digitized data copyright (c) 2014, Santhosh Thottingal, Kavya Manohar,\nSwathanthra Malayalam Computing(http://smc.org.in)
Version: 1.0.0-alpha.20151120
ItalicAngle: 0
UnderlinePosition: -600
UnderlineWidth: 100
Ascent: 1434
Descent: 614
InvalidEm: 0
sfntRevision: 0x00060000
LayerCount: 2
Layer: 0 0 "Back" 1
Layer: 1 0 "Fore" 0
XUID: [1021 348 -393509193 4873957]
FSType: 0
OS2Version: 1
OS2_WeightWidthSlopeOnly: 0
OS2_UseTypoMetrics: 1
CreationTime: 1201144287
ModificationTime: 1452343091
PfmFamily: 17
TTFWeight: 400
TTFWidth: 5
LineGap: 0
VLineGap: 0
Panose: 2 0 5 3 0 0 0 0 0 0
OS2TypoAscent: 1434
OS2TypoAOffset: 0
OS2TypoDescent: -614
OS2TypoDOffset: 0
OS2TypoLinegap: 0
OS2WinAscent: 1465
OS2WinAOffset: 0
OS2WinDescent: 1414
OS2WinDOffset: 0
HheadAscent: 1465
HheadAOffset: 0
HheadDescent: -1414
HheadDOffset: 0
OS2SubXSize: 1331
OS2SubYSize: 1433
OS2SubXOff: 274
OS2SubYOff: 286
OS2SupXSize: 1331
OS2SupYSize: 1433
OS2SupXOff: -944
OS2SupYOff: 983
OS2StrikeYSize: 102
OS2StrikeYPos: 530
OS2Vendor: 'SMC '
OS2CodePages: 00000001.00000000
OS2UnicodeRanges: 80800003.00002000.00000000.00000000
MarkAttachClasses: 1
DEI: 91125
LangName: 1100 "" "" "" "" "" "" "" "" "" "" "" "" "" "" "" "" "" "" "+DS4NHg1NDRwNMA0/"

StartChar: .notdef
Encoding: 65536 -1 0
Width: 692
GlyphClass: 2
Flags: W
HStem: 1 54<102 552> 1063 56<102 552>
VStem: 45 57<55 1063> 552 54<55 1063>
LayerCount: 2
Fore
SplineSet
102 55 m 1
 552 55 l 1
 552 1063 l 1
 102 1063 l 1
 102 55 l 1
45 1 m 1
 45 1119 l 1
 606 1119 l 1
 606 1 l 1
 45 1 l 1
EndSplineSet
EndChar

StartChar: exclam
Encoding: 33 33 4
Width: 352
GlyphClass: 2
Flags: HW
HStem: 1166 20G<302.5 333>
VStem: 274 170<-100.978 49>
LayerCount: 2
Fore
SplineSet
176 171 m 0
 229 171 272 128 272 75 c 0
 272 22 229 -21 176 -21 c 0
 123 -21 80 22 80 75 c 0
 80 128 123 171 176 171 c 0
170 1340 m 1
 171 1340 l 2
 210 1340 251 1309 251 1270 c 2
 236 354 l 2
 236 315 210 284 171 284 c 0
 132 284 106 315 106 354 c 2
 90 1270 l 2
 90 1308 132 1339 170 1340 c 1
EndSplineSet
EndChar

StartChar: numbersign
Encoding: 35 35 6
Width: 942
GlyphClass: 2
Flags: W
HStem: 349 101<68 251 384 612 746 938> 781 101<134 330 462 692 824 996>
LayerCount: 2
Fore
SplineSet
446 781 m 1
 384 450 l 1
 633 450 l 1
 692 781 l 1
 446 781 l 1
807 781 m 1
 746 450 l 1
 938 450 l 1
 938 349 l 1
 728 349 l 1
 659 -28 l 1
 544 -28 l 1
 612 349 l 1
 366 349 l 1
 296 -28 l 1
 183 -28 l 1
 251 349 l 1
 68 349 l 1
 68 450 l 1
 272 450 l 1
 330 781 l 1
 134 781 l 1
 134 882 l 1
 350 882 l 1
 413 1231 l 1
 530 1231 l 1
 462 882 l 1
 711 882 l 1
 774 1231 l 1
 891 1231 l 1
 824 882 l 1
 996 882 l 1
 996 781 l 1
 807 781 l 1
EndSplineSet
EndChar

StartChar: dollar
Encoding: 36 36 7
Width: 1155
GlyphClass: 2
Flags: W
HStem: -11 150<631 785.75> 0 155<373.518 481> 596 152<632 755.055> 631 157<387.586 482> 1006 21G<875 911> 1207 153<633 724.77>
VStem: 126 153<879.176 1122.86> 481 150<-192.309 -7.35107 155 596 788 1207> 897 152<238.263 477.974>
LayerCount: 2
Fore
SplineSet
483 1216 m 1x1f80
 374 1197 279 1114 279 996 c 0
 279 884 369 825 482 788 c 1
 483 1216 l 1x1f80
631 139 m 1xaf80
 764 147 897 218 897 354 c 0
 897 499 771 559 632 596 c 1
 631 139 l 1xaf80
93 266 m 0
 93 308 141 339 174 339 c 0
 189 339 204 334 218 322 c 0
 278 250 370 185 481 155 c 1
 482 631 l 1x5f80
 294 677 126 778 126 998 c 0
 126 1198 287 1348 484 1369 c 1
 489 1403 519 1433 552 1433 c 0
 600 1433 632 1402 633 1360 c 1
 790 1327 919 1221 968 1102 c 0
 972 1093 973 1085 973 1077 c 0
 973 1044 928 1006 894 1006 c 0
 856 1006 831 1046 805 1082 c 0
 760 1145 703 1187 633 1207 c 1
 632 748 l 1
 839 693 1049 595 1049 355 c 0
 1049 133 843 1 631 -11 c 1xaf80
 631 -123 l 1
 631 -124 l 2
 631 -165 597 -199 556 -199 c 0
 515 -199 481 -165 481 -124 c 2
 481 -123 l 1
 481 0 l 1x4f80
 363 25 255 86 164 164 c 0
 132 192 93 229 93 266 c 0
EndSplineSet
EndChar

StartChar: percent
Encoding: 37 37 8
Width: 1584
GlyphClass: 2
Flags: W
LayerCount: 2
Fore
SplineSet
1369 1432 m 0
 1411 1403 1412 1354 1392 1324 c 1
 437 15 l 2
 437 15 434 12 430 6 c 0
 410 -23 362 -25 338 -9 c 0
 299 17 288 63 313 99 c 1
 1268 1408 l 2
 1291 1440 1336 1455 1369 1432 c 0
1099 636 m 1
 1266 667 1404 554 1454 444 c 0
 1516 308 1477 167 1396 79 c 0
 1316 -8 1173 -63 1024 -2 c 0
 914 43 801 175 820 326 c 0
 841 496 934 599 1099 636 c 1
1342 275 m 0
 1357 369 1306 436 1245 474 c 0
 1164 524 1067 497 1012 442 c 0
 1009 435 1006 430 1001 424 c 0
 882 277 1027 76 1194 117 c 0
 1269 135 1330 196 1342 275 c 0
455 1345 m 1
 622 1376 760 1264 810 1154 c 0
 872 1018 833 876 752 788 c 0
 672 701 529 647 380 708 c 0
 270 753 157 884 176 1035 c 0
 197 1205 290 1308 455 1345 c 1
698 984 m 0
 713 1078 662 1146 601 1184 c 0
 520 1234 423 1207 368 1152 c 0
 365 1145 362 1139 357 1133 c 0
 238 986 383 785 550 826 c 0
 625 844 686 905 698 984 c 0
EndSplineSet
EndChar

StartChar: ampersand
Encoding: 38 38 9
Width: 1216
GlyphClass: 2
Flags: HW
HStem: -6 141<347.182 647.36> 1239 142<445.523 667.349>
VStem: 101 138<244.898 499.463> 256 139<961.387 1187.55> 718 140<958.4 1189.71> 886 140<436.111 705.733>
LayerCount: 2
Fore
SplineSet
493 659 m 5
 373 595 239 507 239 378 c 4
 239 238.810215966 350.021090168 135 495 135 c 4
 617 135 722 218 776 293 c 5
 685 411 591 533 493 659 c 5
530 840 m 5
 653 913 718 992 718 1080 c 4
 718 1169 648 1239 560 1239 c 4
 471 1239 395 1175 395 1078 c 4
 395 1003 440 956 530 840 c 5
858 1075 m 4
 858 937 776 825 616 728 c 5
 707 611 784 512 846 431 c 5
 870 498 883 569 886 643 c 4
 887 680 918 712 956 712 c 4
 986 712 1026 682 1026 655 c 4
 1026 531 999 414 945 304 c 5
 1048 170 1103 99 1108 92 c 4
 1113 85 1116 73 1116 55 c 4
 1116 17 1083 -13 1043 -13 c 4
 1022 -13 1003 -3 988 17 c 4
 937 85 896 139 864 179 c 5
 780 78 656 -6 494 -6 c 4
 276 -6 101 154 101 369 c 4
 101 575 215 669 406 772 c 5
 347 854 256 959 256 1083 c 4
 256 1248 398 1381 551 1381 c 4
 725 1381 858 1249 858 1075 c 4
EndSplineSet
EndChar

StartChar: quotesingle
Encoding: 39 39 10
Width: 382
GlyphClass: 2
Flags: W
HStem: 957 469
VStem: 100 182<1143.43 1412.42> 110 150<963.865 1239.57>
LayerCount: 2
Fore
SplineSet
185 957 m 0xa0
 144 957 110 992 110 1033 c 1xa0
 100 1351 l 1
 100 1392 146 1425 187 1426 c 0
 229 1427 283 1392 282 1350 c 1xc0
 260 1033 l 1
 260 992 226 957 185 957 c 0xa0
EndSplineSet
EndChar

StartChar: parenleft
Encoding: 40 40 11
Width: 705
GlyphClass: 2
Flags: W
VStem: 100 150<179.314 700.888>
LayerCount: 2
Fore
SplineSet
606 -276 m 0
 606 -319 574 -355 533 -355 c 0
 514 -355 497 -349 484 -338 c 0
 278 -179 100 99 100 440 c 0
 100 780 273 1059 478 1218 c 0
 491 1229 508 1235 527 1235 c 0
 568 1235 600 1199 600 1157 c 0
 600 1134 590 1115 570 1100 c 0
 399 966 250 726 250 441 c 0
 250 155 403 -87 575 -220 c 0
 596 -235 606 -253 606 -276 c 0
EndSplineSet
EndChar

StartChar: asterisk
Encoding: 42 42 13
Width: 955
GlyphClass: 2
Flags: W
VStem: 423 140<482.594 862 1115 1422.29>
LayerCount: 2
Fore
SplineSet
1 1236 m 0
 1 1276 30 1312 67 1312 c 0
 84 1312 98 1308 109 1301 c 2
 415 1114 l 1
 411 1362 l 2
 411 1363 411 1368 411 1378 c 0
 411 1404 451 1434 481 1434 c 0
 519 1434 551 1402 551 1364 c 2
 555 1115 l 1
 847 1302 l 2
 859 1310 873 1314 890 1314 c 0
 920 1314 956 1282 956 1253 c 0
 956 1221 945 1198 923 1184 c 2
 619 990 l 1
 922 805 l 2
 945 791 956 773 956 750 c 0
 956 710 928 675 890 675 c 0
 874 675 860 679 849 686 c 2
 558 863 l 1
 563 549 l 2
 563 548 563 543 563 533 c 0
 563 506 523 477 493 477 c 0
 455 477 423 509 423 547 c 2
 418 862 l 1
 109 664 l 2
 97 656 83 653 66 653 c 0
 28 653 0 688 0 728 c 0
 0 751 11 768 33 782 c 2
 354 987 l 1
 36 1182 l 2
 13 1196 1 1213 1 1236 c 0
EndSplineSet
EndChar

StartChar: plus
Encoding: 43 43 14
Width: 1050
GlyphClass: 2
Flags: W
HStem: 0 21G<473 577> 373 104<100 473 577 950>
VStem: 473 104<0 373 477 850>
LayerCount: 2
Fore
SplineSet
577 373 m 1
 577 0 l 1
 473 0 l 1
 473 373 l 1
 100 373 l 1
 100 477 l 1
 473 477 l 1
 473 850 l 1
 577 850 l 1
 577 477 l 1
 950 477 l 1
 950 373 l 1
 577 373 l 1
EndSplineSet
EndChar

StartChar: comma
Encoding: 44 44 15
Width: 506
GlyphClass: 2
Flags: W
VStem: 100 285<34.9549 242.693>
LayerCount: 2
Fore
SplineSet
100 139 m 0
 100 211 162 283 231 283 c 0
 262 283 288 278 309 267 c 0
 404 216 430 118 385 -28 c 0
 352 -137 294 -219 211 -274 c 0
 159 -309 102 -267 102 -212 c 0
 102 -190 114 -171 137 -155 c 0
 190 -120 227 -70 246 -5 c 1
 245 -5 245 -5 244 -5 c 0
 165 -5 100 60 100 139 c 0
EndSplineSet
EndChar

StartChar: hyphen
Encoding: 45 45 16
Width: 618
GlyphClass: 2
Flags: W
HStem: 368 126<100 518>
VStem: 100 418<368 494>
LayerCount: 2
Fore
SplineSet
100 368 m 1
 100 494 l 1
 518 494 l 1
 518 368 l 1
 100 368 l 1
EndSplineSet
EndChar

StartChar: period
Encoding: 46 46 17
Width: 489
GlyphClass: 2
Flags: W
HStem: -4 279<140.318 348.206>
VStem: 100 289<37.125 234.375>
LayerCount: 2
Fore
SplineSet
244 -4 m 0
 166 -4 100 59 100 136 c 0
 100 213 166 275 244 275 c 0
 322 275 389 213 389 136 c 0
 389 59 322 -4 244 -4 c 0
EndSplineSet
EndChar

StartChar: slash
Encoding: 47 47 18
Width: 1011
GlyphClass: 2
Flags: W
LayerCount: 2
Fore
SplineSet
864 1424 m 0
 911 1403 920 1355 905 1322 c 2
 244 -8 l 2
 244 -8 242 -12 239 -18 c 0
 224 -50 176 -60 150 -48 c 0
 107 -29 88 14 107 54 c 2
 769 1384 l 2
 787 1419 827 1441 864 1424 c 0
EndSplineSet
EndChar

StartChar: zero
Encoding: 48 48 19
Width: 1219
GlyphClass: 2
Flags: W
HStem: -25 150<454.058 763.348> 1235 150<456.936 767.601>
VStem: 100 150<388.59 972.956> 969 150<386.823 976.339>
LayerCount: 2
Fore
SplineSet
610 125 m 0
 872 125 969 404 969 696 c 0
 969 971 868 1235 613 1235 c 0
 353 1235 250 968 250 682 c 0
 250 394 350 125 610 125 c 0
606 -25 m 0
 254 -25 100 319 100 680 c 0
 100 1046 257 1379 607 1385 c 1
 624 1385 l 1
 967 1377 1119 1044 1119 688 c 0
 1119 312 963 -25 606 -25 c 0
EndSplineSet
EndChar

StartChar: one
Encoding: 49 49 20
Width: 772
GlyphClass: 2
Flags: W
HStem: -4 140<105.594 322 472 666.406> 1033 147<109.621 237.561>
VStem: 322 150<136 1098>
LayerCount: 2
Fore
SplineSet
166 1033 m 0
 138 1033 103 1072 103 1101 c 0
 103 1136 124 1174 155 1180 c 0
 218 1192 276 1247 329 1344 c 0
 344 1373 364 1387 390 1387 c 0
 437 1387 473 1357 473 1312 c 2
 472 136 l 1
 544 136 544 136 616 136 c 0
 643 136 672 96 672 66 c 0
 672 28 640 -4 602 -4 c 0
 386 -4 386 -4 170 -4 c 0
 132 -4 100 28 100 66 c 0
 100 96 129 136 156 136 c 0
 239 136 239 136 322 136 c 1
 322 1098 l 1
 287 1069 244 1048 194 1035 c 0
 189 1034 179 1033 166 1033 c 0
EndSplineSet
EndChar

StartChar: two
Encoding: 50 50 21
Width: 1122
GlyphClass: 2
Flags: HW
HStem: 0 150<491 1108.27> 1235 150<478.234 770.601>
VStem: 907 153<735.506 1092.9>
LayerCount: 2
Fore
SplineSet
175 -3 m 6
 134 -3 100 31 100 72 c 4
 100 83 104 99 109 108 c 4
 177 232 266 343 372 437 c 4
 530.201314504 577.837755595 803 678.352409384 803 951 c 4
 803 1111.42480469 685.1171875 1240 530 1240 c 4
 401 1240 300 1141 278 1035 c 4
 271 1002 238 974 204 974 c 4
 163 974 129 1008 129 1049 c 4
 129 1054 130 1061 131 1066 c 4
 167 1238 320 1390 532 1390 c 4
 776.083007812 1390 953 1197.68457031 953 951 c 4
 953 609.611657437 652.046757893 484.138102138 472 325 c 4
 412 272 358 212 311 147 c 5
 947 147 l 6
 988 147 1022 113 1022 72 c 4
 1022 31 988 -3 947 -3 c 6
 175 -3 l 6
EndSplineSet
EndChar

StartChar: three
Encoding: 51 51 22
Width: 1039
GlyphClass: 2
Flags: W
HStem: -17 151<342.685 649.029> 619 153<440.562 669.199> 1019 21G<203.5 243> 1227 149<387.792 657.796>
VStem: 758 151<857.285 1129.77> 790 150<264.805 539.231>
LayerCount: 2
Fore
SplineSet
758 1003 m 0xf8
 758 1125 648 1227 523 1227 c 0
 424 1227 331 1159 305 1088 c 0
 288 1040 268 1019 218 1019 c 0
 189 1019 152 1057 152 1086 c 0
 152 1101 154 1112 157 1121 c 0
 208 1260 341 1376 523 1376 c 0
 732 1376 909 1213 909 992 c 0xf8
 909 866 843 769 772 709 c 1
 872 650 940 547 940 409 c 0
 940 160 734 -17 499 -17 c 0
 330 -17 190 79 114 186 c 0
 105 199 100 216 100 234 c 0
 100 274 137 305 180 305 c 0
 204 305 222 294 237 273 c 0
 286 204 383 134 493 134 c 0
 652 134 790 251 790 405 c 0xf4
 790 568 674 618 504 619 c 0
 465 619 433 649 433 693 c 0
 433 748 477 772 521 772 c 0
 653 772 758 846 758 1003 c 0xf8
EndSplineSet
EndChar

StartChar: four
Encoding: 52 52 23
Width: 1303
GlyphClass: 2
Flags: W
HStem: -7 21G<808.5 849.5> 404 150<330 753 903 1196.31> 1353 20G<812 844.5>
VStem: 754 150<-0.309246 405 555 1084>
LayerCount: 2
Fore
SplineSet
753 555 m 1
 751 1084 l 1
 330 557 l 1
 753 555 l 1
904 68 m 2
 904 27 870 -7 829 -7 c 0
 788 -7 754 27 754 68 c 2
 754 69 l 1
 753 405 l 1
 175 407 l 2
 135 407 100 441 100 480 c 0
 100 499 105 515 116 529 c 2
 767 1345 l 2
 782 1364 801 1373 823 1373 c 0
 866 1373 900 1340 900 1298 c 2
 903 555 l 1
 1127 554 l 1
 1128 554 l 2
 1169 554 1203 520 1203 479 c 0
 1203 438 1169 404 1128 404 c 0
 1127 404 1127 404 1126 404 c 2
 903 405 l 1
 904 69 l 1
 904 68 l 2
EndSplineSet
EndChar

StartChar: five
Encoding: 53 53 24
Width: 1135
GlyphClass: 2
Flags: W
HStem: -25 150<382.865 717.808> 790 150<397.327 721.308> 1227 150<392 1009.46>
VStem: 100 143<249.003 351.875> 885 150<291.169 628.392>
LayerCount: 2
Fore
SplineSet
230 615 m 0
 193 615 151 645 151 678 c 0
 151 690 152 698 153 702 c 2
 255 1314 l 2
 261 1351 292 1377 328 1377 c 0
 635 1377 635 1377 942 1377 c 0
 979 1377 1017 1344 1017 1310 c 0
 1017 1262 987 1227 942 1227 c 0
 667 1227 667 1227 392 1227 c 1
 335 884 l 1
 406 921 480 940 558 940 c 0
 826 940 1035 734 1035 461 c 0
 1035 185 821 -25 549 -25 c 0
 341 -25 180 101 108 249 c 0
 103 260 100 274 100 290 c 0
 100 322 136 358 169 358 c 0
 204 358 229 344 243 315 c 0
 294 211 402 125 550 125 c 0
 738 125 885 271 885 460 c 0
 885 650 743 790 545 790 c 0
 440 790 335 716 288 648 c 0
 273 626 254 615 230 615 c 0
EndSplineSet
EndChar

StartChar: six
Encoding: 54 54 25
Width: 1197
GlyphClass: 2
Flags: W
HStem: -18 149<483.693 804.817> 754 148<479.171 788.88> 1237 149<476.239 800.313>
VStem: 100 150<696 957.375> 947 150<279.75 595.958>
LayerCount: 2
Fore
SplineSet
644 131 m 0
 822 131 947 265 947 442 c 0
 947 609 805 754 634 754 c 0
 460 754 322 608 322 439 c 0
 322 267 481 131 644 131 c 0
640 -18 m 0
 278 -18 100 339 100 701 c 0
 100 1055 289 1386 644 1386 c 0
 825 1386 962 1284 1033 1163 c 0
 1040 1151 1044 1137 1044 1120 c 0
 1044 1088 1009 1050 978 1050 c 0
 943 1050 918 1063 903 1088 c 0
 856 1168 763 1237 644 1237 c 0
 371 1237 250 969 250 696 c 1
 251 697 251 698 252 699 c 0
 316 801 467 902 622 902 c 0
 893 902 1097 700 1097 432 c 0
 1097 193 909 -18 640 -18 c 0
EndSplineSet
EndChar

StartChar: seven
Encoding: 55 55 26
Width: 1235
GlyphClass: 2
Flags: W
HStem: -25 21G<525.5 561.5> 1230 150<106.691 940>
LayerCount: 2
Fore
SplineSet
1060 1380 m 0
 1099 1380 1135 1350 1135 1306 c 0
 1135 1293 1132 1282 1127 1271 c 0
 926 870 756 455 619 28 c 0
 609 -7 583 -25 540 -25 c 0
 511 -25 473 11 473 40 c 0
 473 54 474 66 477 73 c 0
 604 469 758 855 940 1230 c 1
 558 1230 558 1230 175 1230 c 0
 134 1230 100 1264 100 1305 c 0
 100 1346 134 1380 175 1380 c 0
 617 1380 617 1380 1060 1380 c 0
EndSplineSet
EndChar

StartChar: eight
Encoding: 56 56 27
Width: 1070
GlyphClass: 2
Flags: W
HStem: -19 150<372.476 697.011> 618 165<393.207 680.98> 1231 149<395.047 675.142>
VStem: 100 150<247.004 509.19> 145 149<881.745 1133.04> 776 150<876.012 1132.11> 819 152<246.476 502.43>
LayerCount: 2
Fore
SplineSet
819 375 m 0xf2
 819 517 679 618 533 618 c 0
 390 618 250 526 250 376 c 0
 250 231 387 131 535 131 c 0
 683 131 819 230 819 375 c 0xf2
294 1009 m 0xec
 294 881 407 783 536 783 c 0
 661 783 776 871 776 1008 c 0
 776 1133 657 1231 539 1231 c 0
 410 1231 294 1137 294 1009 c 0xec
926 995 m 0
 926 875 874 781 769 707 c 1
 876 646 971 528 971 372 c 0
 971 138 761 -19 535 -19 c 0
 307 -19 100 136 100 374 c 0xf2
 100 533 194 647 300 708 c 1
 210 772 145 874 145 1011 c 0
 145 1218 329 1380 533 1380 c 0
 745 1380 926 1216 926 995 c 0
EndSplineSet
EndChar

StartChar: semicolon
Encoding: 59 59 30
Width: 425
GlyphClass: 2
Flags: W
HStem: 601 279<140.318 348.206>
VStem: 100 289<28.0535 233.645 641.625 838.875>
LayerCount: 2
Fore
SplineSet
221 283 m 0
 336.049941244 283 396.454925662 196.80591879 396.454925662 96.8682302755 c 0
 396.454925662 60.0879717962 389.324788597 18.4759807823 375 -28 c 0
 342 -137 284 -219 201 -274 c 0
 187.786425077 -282.893752352 174.249997783 -286.81557819 161.408003147 -286.81557819 c 0
 123.712295083 -286.81557819 92 -253.024103447 92 -212 c 0
 92 -190 104 -171 127 -155 c 0
 180 -120 217 -70 236 -5 c 1
 235 -5 235 -5 234 -5 c 0
 155 -5 90 60 90 139 c 0
 90 211 152 283 221 283 c 0
244 601 m 0
 166 601 100 663 100 740 c 0
 100 817 166 880 244 880 c 0
 322 880 389 817 389 740 c 0
 389 663 322 601 244 601 c 0
EndSplineSet
EndChar

StartChar: less
Encoding: 60 60 31
Width: 1227
GlyphClass: 2
Flags: HW
LayerCount: 2
Fore
SplineSet
1030.96875 939.825195312 m 2
 1038.24609375 942.834960938 1049.53613281 945.137695312 1057.71875 945.137695312 c 0
 1096.36328125 945.137695312 1127.7265625 913.774414062 1127.7265625 875.130859375 c 0
 1127.7265625 848.493164062 1107.52148438 819.181640625 1082.62695312 809.704101562 c 2
 356.43359375 521.407226562 l 1
 1083.265625 221.086914062 l 2
 1107.67773438 211.416992188 1127.49121094 182.258789062 1127.49121094 156 c 0
 1127.49121094 117.356445312 1096.12792969 85.9931640625 1057.484375 85.9931640625 c 0
 1049.51953125 85.9931640625 1037.11816406 88.548828125 1029.80273438 91.6982421875 c 2
 143.2578125 458.008789062 l 2
 119.379882812 467.881835938 100 496.865234375 100 522.704101562 c 0
 100 548.93359375 119.783203125 578.081054688 144.16015625 587.764648438 c 2
 1030.96875 939.825195312 l 2
EndSplineSet
EndChar

StartChar: equal
Encoding: 61 61 32
Width: 1109
GlyphClass: 2
Flags: W
HStem: 310 140<106.363 1004.29> 631 140<106.363 170.996 171 939 939.006 1003.44>
LayerCount: 2
Fore
SplineSet
100 702 m 0
 100 732 130 772 156 772 c 0
 166 772 171 772 171 771 c 1
 939 771 l 1
 939 769.200346831 946.784535131 771.068866184 955.871650957 771.068866184 c 0
 982.322742837 771.068866184 1010 730.330909935 1010 702 c 0
 1010 672 980 631 954 631 c 0
 555 631 555 631 156 631 c 0
 130 631 100 672 100 702 c 0
100 380 m 0
 100 405 127 451 148 451 c 2
 171 450 l 1
 939 450 l 1
 954 451 l 1
 980 451 1010 410 1010 380 c 0
 1010 350 980 310 954 310 c 0
 555 310 555 310 156 310 c 0
 130 310 100 350 100 380 c 0
EndSplineSet
EndChar

StartChar: question
Encoding: 63 63 34
Width: 949
GlyphClass: 2
Flags: HW
HStem: 18 162<524 664> 1202 118<455.031 761.922>
VStem: 230 129<925 1104.49> 524 140<18 180 374 572.922> 849 139<851.049 1120.47>
LayerCount: 2
Fore
SplineSet
100 952 m 0
 100 1154 264 1287 458 1287 c 2
 458 1287 l 2
 641 1287 783 1190 832 1048 c 0
 844 1014 849 979 849 944 c 0
 849 759 715 654 621 571 c 0
 566 522 515 481 515 393 c 0
 515 374 521 356 521 338 c 0
 521 302 492 273 456 273 c 0
 398 273 385 335 385 394 c 0
 385 618 602 688 683 823 c 0
 705 859 719 895 719 944 c 0
 719 1080 596 1157 460 1157 c 0
 334 1157 230 1081 230 952 c 0
 230 944 231 936 231 928 c 0
 231 892 202 863 166 863 c 0
 118 863 100 902 100 952 c 0
474 171 m 0
 527 171 570 128 570 75 c 0
 570 22 527 -21 474 -21 c 0
 421 -21 378 22 378 75 c 0
 378 128 421 171 474 171 c 0
EndSplineSet
EndChar

StartChar: at
Encoding: 64 64 35
Width: 1784
GlyphClass: 2
Flags: HW
HStem: 734 150<725.27 996.289>
VStem: 466 150<338.502 623.347> 1102 150<335.324 627.194 800 879.309>
LayerCount: 2
Fore
SplineSet
858.798723154 734.006472823 m 0
 724.906232797 734.006472823 615.894251257 618.550718978 615.894251257 484.243190597 c 0
 615.894251257 352.558792306 713.409169585 231.879032258 858.651920882 231.879032258 c 0
 999.10612608 231.879032258 1102.6668027 341.174760828 1105 480 c 0
 1104.00431766 619.395528012 996.930619213 734.006472823 858.798723154 734.006472823 c 0
866.581351554 82.8732818284 m 0
 637.776527896 82.8732818284 465.831197229 263.231464658 465.831197229 491.875752673 c 0
 465.831197229 695.211846621 645.977943242 884.025862069 846.211652794 884.025862069 c 0
 944.995838288 884.025862069 1030.25862069 856.017241379 1102 800 c 1
 1102 811 l 2
 1102 852 1136 886 1177 886 c 0
 1218 886 1252 852 1252 811 c 0
 1252 321 l 2
 1252 266 1312.70459747 226.597621779 1369.66172781 226.597621779 c 0
 1485.84968529 226.597621779 1532.41135894 354.549960158 1532.41135894 461.770732819 c 0
 1532.41135894 819.202852756 1225.39340421 1110.66566786 900.490989362 1110.66566786 c 0
 524.133258988 1110.66566786 248.649647304 808.9312181 248.649647304 481.055709191 c 0
 248.649647304 135.603739388 504.950503762 -161.886392839 869.612077883 -161.886392839 c 0
 943.483730747 -161.886392839 1019.23932228 -147.883879385 1097 -120 c 0
 1119.08153539 -112.050647259 1137.86910104 -108.088731574 1153.38821832 -108.088731574 c 0
 1190.57982859 -108.088731574 1209 -130.842910201 1209 -176 c 0
 1209 -218 1189 -246 1149 -261 c 0
 1053.86842105 -296.526315789 960.606648199 -314.289473684 869.153174661 -314.289473684 c 0
 421.886508442 -314.289473684 99.4167521841 57.3041477961 99.4167521841 477.034515877 c 4
 99.4167521841 870.948387401 430.176471906 1266.6631016 900.180302554 1266.6631016 c 0
 1289.92638808 1266.6631016 1635.4331018 927.531526432 1680 535 c 0
 1682.80061029 510.728044139 1684.16059279 487.149723884 1684.16059279 464.324337251 c 0
 1684.16059279 263.721066806 1570.79007988 76.2492695386 1369.39437165 76.2492695386 c 0
 1269.12061429 76.2492695386 1192.92261903 118.366436946 1140 201 c 1
 1077.16438584 137.240332688 981.027676976 82.8732818284 866.581351554 82.8732818284 c 0
EndSplineSet
EndChar

StartChar: braceleft
Encoding: 123 123 36
Width: 947
GlyphClass: 2
Flags: W
HStem: -464 140<504.627 787.888> 430 146<120.669 278.249> 1204 21G<758.5 788.5> 1294 140<461.302 696.474>
VStem: 261 140<822.435 1228.25> 284 142<-244.423 150.097> 312 142<607.519 1014.45> 343 139<29.9042 397.836>
LayerCount: 2
Fore
SplineSet
426 -93 m 0xf4
 426 -221 500 -324 637 -324 c 0
 669 -324 701 -318 724 -302 c 0
 745 -288 763 -280 780 -280 c 0
 818 -280 847 -314 847 -354 c 0
 847 -376 836 -395 815 -409 c 0
 760 -445 694 -464 628 -464 c 0
 422 -464 284 -297 284 -91 c 0xf4
 284 35 343 147 343 267 c 0xf1
 343 354 302 427 224 434 c 1
 207 431 192 430 179 430 c 0
 131 430 100 461 100 498 c 0
 100 515 106 532 120 549 c 0
 134 566 165 575 212 576 c 1
 279 596 312 651 312 742 c 0xf2
 312 853 261 982 261 1096 c 0
 261 1280 381 1434 580 1434 c 0
 689 1434 761 1395 824 1320 c 0
 835 1307 841 1290 841 1272 c 0
 841 1234 808 1204 769 1204 c 0
 748 1204 731 1213 717 1230 c 0
 684 1269 632 1294 578 1294 c 0
 463 1294 401 1197 401 1101 c 0xf8
 401 997 454 843 454 733 c 0xf2
 454 651 432 580 376 518 c 1
 447 460 482 378 482 270 c 0xf1
 482 155 426 35 426 -93 c 0xf4
EndSplineSet
EndChar

StartChar: bar
Encoding: 124 124 37
Width: 350
GlyphClass: 2
Flags: W
VStem: 100 150<-363.988 1279.29>
LayerCount: 2
Fore
SplineSet
250 -295 m 2
 250 -330 218 -370 186 -370 c 0
 129 -370 100 -345 100 -294 c 2
 100 1211 l 2
 100 1252 133 1286 174 1286 c 2
 175 1286 l 2
 217 1286 250 1252 250 1210 c 2
 250 -295 l 2
EndSplineSet
EndChar

StartChar: asciitilde
Encoding: 126 126 39
Width: 1386
GlyphClass: 2
Flags: HW
HStem: 704 103<574.337 769.753> 899 103<211.661 395.718>
VStem: 108.163 73<751 860.672> 793.163 74<832.672 950>
LayerCount: 2
Fore
SplineSet
1216.6171875 1032.06054688 m 0
 1255.48144531 1032.06054688 1286.625 1000.1640625 1286.625 962.053710938 c 0
 1286.625 957.166015625 1285.63769531 949.358398438 1284.42089844 944.625 c 0
 1250.84375 805.880859375 1121.00683594 684.703125 954.510742188 684.703125 c 0
 832.442382812 684.703125 740.692382812 744.146484375 661.163085938 793 c 0
 586.25 839.017578125 511.021484375 885.390625 433.053710938 885.390625 c 0
 340.307617188 885.390625 260.606445312 814.173828125 237.260742188 737.484375 c 0
 229.192382812 709.571289062 199.0625 686.91796875 170.006835938 686.91796875 c 0
 131.36328125 686.91796875 100 718.28125 100 756.924804688 c 0
 100 762.956054688 101.491210938 772.51171875 103.329101562 778.255859375 c 0
 143.165039062 909.11328125 270.387695312 1024.18554688 434.412109375 1024.18554688 c 0
 561.19140625 1024.18554688 653.490234375 962.017578125 734.440429688 912.291015625 c 0
 807.650390625 867.318359375 881.926757812 823.659179688 956.9296875 823.659179688 c 0
 1049.1328125 823.659179688 1128.98535156 897.544921875 1148.34863281 977.556640625 c 0
 1155.18066406 1007.64257812 1185.765625 1032.06054688 1216.6171875 1032.06054688 c 0
EndSplineSet
EndChar

StartChar: anuswara
Encoding: 3330 3330 41
Width: 824
GlyphClass: 2
Flags: W
LayerCount: 2
Fore
SplineSet
623 306 m 0
 638 400 587 467 526 505 c 0
 445 555 348 528 293 473 c 0
 290 466 287 460 282 454 c 0
 163 307 308 107 475 148 c 0
 550 166 611 227 623 306 c 0
380 666 m 1
 547 697 685 585 735 475 c 0
 797 339 757 198 676 110 c 0
 596 23 453 -33 304 28 c 0
 194 73 82 205 101 356 c 0
 122 526 215 629 380 666 c 1
EndSplineSet
EndChar

StartChar: ml_a
Encoding: 3333 3333 43
Width: 2693
GlyphClass: 2
Flags: W
HStem: -24 134<402.395 512.64 791.759 1033.58 2074.21 2343.79> 404 150<877.443 1015.09> 610 141<2065 2341.79> 897 141<497.954 727.555 1069.54 1282.84 1795.44 2164.4>
VStem: 100 139<287.998 646.103> 514 137<255.116 626.821> 1034 142<572.418 763.705> 1098 141<172.868 377.315> 1476 140<-20.9351 690.943> 1815 139<230.789 497.769> 2439 155<222.367 506.109>
LayerCount: 2
Fore
SplineSet
2439 361 m 0xfce0
 2439 509 2341 610 2194 610 c 0
 2059 610 1954 487 1954 354 c 0
 1954 232 2080 110 2204 110 c 0
 2343 110 2439 215 2439 361 c 0xfce0
901 842 m 1
 780 781 651 627 651 444 c 0
 651 263 752 117 927 117 c 0
 1024 117 1098 199 1098 272 c 0xfde0
 1098 340 1059 386 1008 404 c 0
 959 421 925 399 889 434 c 0
 875 447 869 462 869 477 c 0
 869 523 897 552 936 554 c 0
 992 558 1034 599 1034 660 c 0xfee0
 1034 737 957 808 901 842 c 1
929 -24 m 0
 690 -24 514 180 514 435 c 0
 514 634 612 798 728 896 c 1
 716 897 704 897 692 897 c 0
 446 897 239 714 239 466 c 0
 239 298 350 164 475 110 c 0
 498 101 517 72 517 40 c 0
 517 10 484 -26 454 -26 c 0
 439 -26 427 -24 418 -20 c 0
 251 53 100 232 100 457 c 0
 100 781 353 1038 694 1038 c 0
 766 1038 837 1024 906 996 c 1
 971 1020 1037 1032 1104 1032 c 0
 1316 1032 1459 938 1543 794 c 1
 1620 933 1763 1032 1969 1032 c 0
 2305 1032 2594 789 2594 438 c 0
 2594 193 2436 -24 2181 -24 c 0
 1971 -24 1815 147 1815 354 c 0
 1815 567 1977 751 2188 751 c 0
 2248 751 2301 742 2347 722 c 1
 2268 816 2125 892 1974 892 c 0
 1706 892 1616 713 1616 433 c 2
 1616 44 l 2
 1616 6 1584 -26 1546 -26 c 0
 1508 -26 1477 7 1476 44 c 2
 1475 433 l 2
 1475 711 1369 891 1109 891 c 0
 1095 891 1081 891 1067 890 c 1
 1134 822 1176 738 1176 656 c 0xfee0
 1176 603 1159 551 1120 504 c 1
 1189 456 1239 378 1239 279 c 0
 1239 107 1095 -24 929 -24 c 0
EndSplineSet
EndChar

StartChar: ml_aa
Encoding: 3334 3334 44
Width: 2919
GlyphClass: 2
Flags: W
HStem: -378 141<2074.49 2449.02> -25 140<376.792 486.535 786.639 1044.13 2037.51 2327.26> 404 138<873.591 961.53> 591 139<2092.4 2336.76> 886 140<494.036 718.368 1062.19 1288.78 1788.07 2173.39>
VStem: 100 139<273.718 638.243> 512 138<261.584 623.651> 1034 139<571.061 755.021> 1099 139<169.257 369.493> 1475 140<-21.4219 700.206> 1813 140<199.113 465.616> 2453 140<255.34 429> 2679 140<-11.7683 361.685>
LayerCount: 2
Fore
SplineSet
2178 107 m 0xfe78
 2341 107 2453 264 2453 432 c 0
 2453 473 2447 514 2434 555 c 1
 2379 579 2334 591 2299 591 c 0
 2124 591 2009 522 1967 412 c 0
 1958 388 1953 366 1953 348 c 0
 1953 242 2001 172 2076 133 c 0
 2110 116 2143 107 2178 107 c 0xfe78
1099 267 m 0xfef8
 1099 347 1042 405 962 405 c 0
 952 405 940 404 926 404 c 0
 899 404 868 442 868 472 c 0
 868 503 894 539 920 542 c 0
 961 547 976 548 1006 577 c 0
 1024 595 1034 618 1034 647 c 0xff78
 1034 728 956 801 895 836 c 1
 779 777 650 625 650 447 c 0
 650 304 714 198 803 148 c 0
 841 126 882 115 924 115 c 0
 966 115 999 124 1022 141 c 0
 1073 178 1099 220 1099 267 c 0xfef8
1542 785 m 1
 1618 921 1765 1026 1973 1026 c 0
 2035 1026 2107 1012 2191 986 c 0
 2350 936 2486 797 2547 654 c 1
 2699 566 2819 385 2819 175 c 0
 2819 -9 2735 -145 2630 -238 c 0
 2524 -331 2402 -378 2264 -378 c 0
 2096 -378 1972 -312 1878 -223 c 0
 1863 -209 1856 -192 1856 -172 c 0
 1856 -133 1887 -102 1926 -102 c 0
 1945 -102 1962 -109 1975 -122 c 0
 2055 -198 2149 -237 2257 -237 c 0
 2365 -237 2458 -202 2537 -133 c 0
 2591 -85 2629 -34 2649 22 c 0
 2669 78 2679 123 2679 157 c 0
 2679 263 2650 354 2593 429 c 1
 2593 415 l 2
 2593 236 2486 76 2349 7 c 0
 2296 -20 2240 -33 2181 -33 c 0
 2039 -33 1938 39 1872 132 c 0
 1833 188 1813 247 1813 308 c 0
 1813 464 1868 562 1971 636 c 0
 2058 699 2155 730 2263 730 c 0
 2287 730 2313 728 2338 725 c 1
 2267 804 2127 886 1990 886 c 0
 1748 886 1615 747 1615 505 c 2
 1615 42 l 2
 1615 4 1584 -27 1546 -27 c 0
 1508 -27 1476 5 1475 42 c 2
 1474 432 l 2
 1474 579 1469 641 1414 728 c 0
 1363 809 1285 859 1181 879 c 0
 1156 884 1133 886 1113 886 c 0
 1093 886 1076 885 1061 884 c 1
 1136 810 1173 731 1173 647 c 0xff78
 1173 590 1156 540 1121 496 c 1
 1199 441 1238 365 1238 269 c 0xfef8
 1238 162 1180 83 1119 38 c 0
 1062 -4 1000 -25 933 -25 c 0
 792 -25 680 34 598 151 c 0
 541 234 512 325 512 427 c 0
 512 633 608 790 720 886 c 1
 709 887 699 887 688 887 c 0
 623 887 561 873 503 846 c 0
 389 793 311 713 268 605 c 0
 249 556 239 500 239 436 c 0
 239 287 348 156 455 102 c 0
 481 89 494 66 494 33 c 0
 494 3 460 -31 430 -31 c 0
 415 -31 402 -28 391 -23 c 0
 239 55 100 229 100 446 c 0
 100 602 152 734 257 843 c 0
 360 949 508 1028 702 1028 c 0
 767 1028 833 1016 898 990 c 1
 964 1014 1023 1026 1075 1026 c 0
 1294 1026 1450 946 1542 785 c 1
EndSplineSet
EndChar

StartChar: ml_i
Encoding: 3335 3335 45
Width: 1974
GlyphClass: 2
Flags: W
HStem: -353 140<269.569 1866.7> -8 140<281.388 1517.2> 146 143<326.984 555.38> 638 127<340.457 555.334> 889 139<459.918 808.619 1225.21 1546.68>
VStem: 100 139<-180.932 -48.757> 114 153<350.251 577.694> 616 136<349.425 577.761> 957 140<166.297 742.538> 1730 140<324.557 693.218>
LayerCount: 2
Fore
SplineSet
441 289 m 0xfbc0
 537 289 616 367 616 463 c 0
 616 559 537 638 441 638 c 0
 345 638 267 559 267 463 c 0
 267 367 345 289 441 289 c 0xfbc0
643 1028 m 0
 818 1028 955 937 1023 832 c 1
 1067 905 1121 957 1187 986 c 0
 1253 1015 1316 1030 1376 1030 c 0
 1517 1030 1635 978 1729 874 c 0
 1823 770 1870 649 1870 509 c 0
 1870 331 1786 191 1676 109 c 0
 1552 17 1440 -4 1234 -5 c 2
 570 -8 l 2
 553 -8 527 -8 503 -8 c 0
 397 -8 310 -23 270 -58 c 0
 249 -76 239 -94 239 -110 c 0
 239 -155 272 -178 311 -195 c 0
 337 -206 388 -212 464 -212 c 2
 1802 -213 l 2
 1803 -213 l 0
 1848 -213 1871 -248 1871 -283 c 0
 1871 -318 1848 -353 1803 -353 c 0
 1802 -353 l 2
 464 -352 l 2
 295 -352 209 -325 142 -238 c 0
 114 -202 100 -156 100 -102 c 0xfdc0
 100 -48 123 -1 168 38 c 0
 257 116 391 131 570 132 c 2
 1233 135 l 2
 1403 136 1493 148 1590 220 c 0
 1683 289 1730 380 1730 494 c 0
 1730 608 1696 702 1628 777 c 0
 1560 852 1478 890 1382 890 c 0
 1245 890 1133 802 1108 676 c 0
 1101 639 1097 582 1097 507 c 2
 1097 230 l 2
 1096 185 1062 162 1027 162 c 0
 993 162 958 184 957 229 c 2
 956 503 l 2
 955 638 955 682 904 758 c 0
 853 835 758 889 629 889 c 0
 515 889 401 824 339 748 c 1
 373 759 412 765 454 765 c 0
 547 765 638 702 682 649 c 0
 729 592 752 526 752 454 c 0
 752 358 716 280 645 219 c 0
 588 170 526 146 457 146 c 0
 388 146 328 164 275 200 c 0
 168 273 114 381 114 525 c 0
 114 620 144 712 204 802 c 0
 279 915 385 986 522 1015 c 0
 564 1024 604 1028 643 1028 c 0
EndSplineSet
EndChar

StartChar: ml_u
Encoding: 3337 3337 47
Width: 1329
GlyphClass: 2
Flags: W
HStem: -343 140<313.337 1223.39> 0 141<273.454 906.761> 230 138<285.242 506.204> 700 113<381.199 504.19> 884 143<424.105 807.4>
VStem: 100 140<-166.368 -36.6182 412.642 655.764> 560 125<422.992 644.445> 1064 138<297.789 640.166>
LayerCount: 2
Fore
SplineSet
416 230 m 0
 227 230 106 395 106 571 c 0
 106 724 194 848 286 918 c 0
 381 990 486 1027 603 1027 c 0
 627 1027 651 1025 676 1022 c 0
 959 986 1202 771 1202 462 c 0
 1202 396 1190 334 1164 274 c 0
 1088 90 922 -2 670 -2 c 0
 665 -2 659 -2 654 -2 c 2
 517 0 l 2
 509 0 502 0 494 0 c 0
 410 0 355 -5 327 -16 c 0
 269 -39 240 -66 240 -96 c 0
 240 -137 271 -166 312 -184 c 0
 340 -196 402 -203 498 -203 c 2
 1158 -204 l 2
 1197 -204 1229 -235 1229 -274 c 0
 1229 -313 1197 -344 1158 -344 c 2
 498 -343 l 2
 259 -342 128 -272 103 -133 c 0
 101 -122 100 -111 100 -100 c 0
 100 -60 113 -23 139 12 c 0
 204 98 300 141 427 141 c 0
 457 141 487 140 520 140 c 2
 657 138 l 2
 661 138 664 138 668 138 c 0
 859 138 976 191 1036 330 c 0
 1055 375 1064 421 1064 466 c 0
 1064 707 846 884 609 884 c 0
 528 884 448 862 378 812 c 1
 384 812 390 813 396 813 c 0
 561 813 685 675 685 517 c 0
 685 371 561 230 416 230 c 0
394 368 m 0
 485 368 560 443 560 534 c 0
 560 619 487 700 406 700 c 0
 297 700 228 628 228 534 c 0
 228 443 303 368 394 368 c 0
EndSplineSet
EndChar

StartChar: ml_r
Encoding: 3339 3339 49
Width: 1680
GlyphClass: 2
Flags: W
HStem: -508 140<452.7 1250.59> 128 142<540.094 1119.67> 468 142<299.642 507.767 1176.19 1357.44> 883 141<302.444 510.345 1183.66 1378.37>
VStem: 100 160<653.543 842.14> 141 140<-239.217 12.3259> 546 141<650.368 845.753> 1004 142<637.97 844.598> 1405 141<-240.065 11.8583>
LayerCount: 2
Fore
SplineSet
790 128 m 2xf780
 516.655704642 128 281 92.1465963907 281 -112 c 0
 281 -304.36971308 502.024562166 -368 730 -368 c 2
 1019 -368 l 2
 1216.30181066 -368 1405 -292.333976949 1405 -114 c 0
 1405 80.4762980432 1180.65890623 128 928 128 c 2
 790 128 l 2xf780
1146 742 m 0
 1146 663 1209 598 1290 598 c 0
 1370 598 1427 659 1434 732 c 1
 1419 813 1360 882 1283 882 c 0
 1202 882 1146 816 1146 742 c 0
405 610 m 0
 484 610 546 673 546 752 c 0
 546 826 481 883 409 883 c 0
 334.243757968 883 260 825.670133169 260 747 c 0xfb80
 260 669.471397161 330.556709763 610 405 610 c 0
1275 225 m 1
 1417 174 1546 51 1546 -121 c 0
 1546 -371.230884639 1293.42722724 -502.361451068 1052 -505 c 2
 708 -508 l 1
 697 -508 l 2
 404.748937102 -508 141 -383.754643549 141 -112 c 0xf780
 141 47 263 171 394 223 c 1
 243 305 100 459 100 678 c 0
 100 850.745284796 227.157703287 1024 405 1024 c 0
 563 1024 687 901 687 750 c 0
 687 591 561 468 404 468 c 0
 369 468 333 475 298 489 c 1
 301 486 l 1
 393 342 584 270 820 270 c 0
 1071 270 1255 339 1360 469 c 1
 1359 469 1358 468 1356 467 c 0
 1332 460 1308 457 1285 457 c 0
 1131 457 1004 596 1004 747 c 0
 1004 891 1124 1023 1279 1023 c 0
 1469.37788055 1023 1580 852.762263422 1580 675 c 0
 1580 453.981282538 1432.01394908 306.751064398 1275 225 c 1
EndSplineSet
EndChar

StartChar: ml_l
Encoding: 3340 3340 50
Width: 2087
GlyphClass: 2
Flags: W
HStem: -21 142<360.815 620.207 1468.7 1725.75> 521 142<358.382 607.707 1477.58 1728.25> 873 141<460.49 806.944 1269.05 1610.45>
VStem: 100 180<224.441 557.559> 690 140<191.317 438.978> 962 140<-9.56949 700.957> 1257 140<194.332 440.419> 1808 179<224.036 550.055>
LayerCount: 2
Fore
SplineSet
1808 314 m 4
 1808 429 1719 519 1604 519 c 4
 1490 519 1397 429 1397 320 c 4
 1397 204 1484 121 1591 121 c 4
 1700.11522987 121 1808 193.857691777 1808 314 c 4
498 123 m 4
 603 123 690 203 690 317 c 4
 690 428 593 521 484 521 c 4
 373 521 280 431 280 318 c 4
 280 195.674729249 388.456384588 123 498 123 c 4
1036 789 m 5
 1111 921 1251 1015 1437 1015 c 4
 1762.08352859 1015 1987 745.654963728 1987 440 c 4
 1987 202.641444609 1839.01797982 -21 1597 -21 c 4
 1402.94711124 -21 1257 124.011440611 1257 316 c 4
 1257 506.338686678 1396.07150708 629.222569613 1561 657 c 4
 1579 660 1596 662 1614 662 c 4
 1689 662 1759 634 1825 578 c 5
 1771.51853371 743.306350352 1619.38904544 874 1440 874 c 4
 1276 874 1150 772 1120 622 c 4
 1111 577 1106 518 1105 445 c 6
 1102 53 l 6
 1101 13 1074 -15 1025 -15 c 4
 993 -15 963 21 962 54 c 5
 964 445 l 6
 964 589 955 664 897 748 c 4
 840 828 746 873 643 873 c 4
 441.037330804 873 311.220380793 736.757630745 262 579 c 5
 328 635 399 663 474 663 c 4
 674.772034966 663 830 518.39033837 830 316 c 4
 830 127.539771848 682.646592187 -18 499 -18 c 4
 255 -18 100 197 100 440 c 4
 100 745.823310794 322.42815921 1014 642 1014 c 4
 825 1014 962 919 1036 789 c 5
EndSplineSet
EndChar

StartChar: ml_e
Encoding: 3342 3342 51
Width: 2253
GlyphClass: 2
Flags: W
HStem: -432 140<1229.14 1453.72> -3 136<313.2 426.038 512.338 603.528 760 1004 1145 1523> 563 141<331.543 593.043> 892 140<1363.02 1736.71>
VStem: 96 139<211.703 468.881> 681 140<211.762 472.412> 1005 140<-193.974 -2 140 604.479> 1523 140<-218.458 -6 134 698.596> 2015 138<42.3325 565.937>
LayerCount: 2
Fore
SplineSet
1145 -2 m 1
 1151.67247441 -155.466911417 1201.46843193 -292 1343 -292 c 0
 1486.56317083 -292 1520.79704278 -160.207005155 1523 -6 c 1
 1145 -2 l 1
460 563 m 0
 335 563 235 458 235 341 c 0
 235 240 306 161 384 133 c 0
 409 124 431 96 431 62 c 0
 431 32 398 -3 369 -3 c 0
 355 -3 344 -2 337 1 c 0
 209 46 96 175 96 340 c 0
 96 544 256 704 460 704 c 0
 662 704 821 533 821 341 c 0
 821 275 802 207 760 142 c 1
 1004 140 l 1
 1005 285 l 1
 1005 687.516118685 1149.41944679 1032 1542 1032 c 0
 1910.2315722 1032 2153 697.29313393 2153 306 c 0
 2153 4 2020 -246 1857 -408 c 0
 1843 -422 1826 -429 1807 -429 c 0
 1769 -429 1737 -397 1737 -359 c 0
 1737 -340 1744 -323 1758 -309 c 0
 1895 -172 2015 51 2015 304 c 0
 2015 610.491792253 1848.87737463 892 1551 892 c 0
 1236.66774687 892 1145 615.276013066 1145 284 c 1
 1144 138 l 1
 1524 134 l 1
 1528 636 l 2
 1528 674 1560 706 1598 706 c 0
 1638 706 1668 680 1668 635 c 2
 1663 1 l 2
 1661.10700388 -246.982492154 1571.04301543 -432 1349 -432 c 0
 1114.40477349 -432 1011.31134513 -232.467878952 1005 -0 c 5
 574 4 l 2
 539 4 504 36 504 69 c 0
 504 103 517 126 543 137 c 0
 614 168 681 243 681 340 c 0
 681 465 583 563 460 563 c 0
EndSplineSet
EndChar

StartChar: ml_ee
Encoding: 3343 3343 52
Width: 2257
GlyphClass: 2
Flags: W
HStem: -370 138<1255.97 1480.96 1708.24 1929.01> -4 136<312.946 421.547 507.005 615.164 765 1040 1181 1528> 220 136<1766.43 1881.85> 565 141<332.275 596.392> 870 141<1397.82 1794.63>
VStem: 100 139<210.89 469.86> 688 142<208.883 472.617> 1040 140<-146.318 -5 135 624.228> 1531 141<-183.426 -6 134 700> 1964 141<441.053 722.017> 2018 140<-146.127 125.523>
LayerCount: 2
Fore
SplineSet
1181 -5 m 5xff80
 1187.23463139 -130.939554074 1252.04968394 -232 1376 -232 c 4
 1482.31861474 -232 1531 -150.6463469 1531 -37 c 6
 1531 -6 l 5
 1181 -5 l 5xff80
427 67 m 4
 427 29 396 -4 357 -4 c 4
 348 -4 339 -2 330 2 c 4
 208 50 100 178 100 340 c 4
 100 547 260 706 468 706 c 4
 669.080309943 706 830 541.758841522 830 334 c 4
 830 266 809 200 765 136 c 5
 1040 135 l 5
 1040 337 l 6
 1040 732.165809841 1206.00238347 1011 1595 1011 c 4
 1875 1011 2105 828 2105 561 c 4xffc0
 2105 467 2051 364 1988 304 c 5
 2087 241 2158 125 2158 -16 c 4
 2158 -208 1988 -376 1791 -376 c 4
 1783 -376 1775 -375 1767 -375 c 4
 1724 -374 1703 -339 1703 -305 c 4
 1703 -270 1725 -235 1770 -235 c 4
 1910 -235 2018 -152 2018 -6 c 4xffa0
 2018 112 1927 205 1821 220 c 4
 1783 225 1762 257 1762 290 c 4
 1762 318 1777 345 1808 356 c 4
 1893 385 1964 471 1964 575 c 4xffc0
 1964 764.294325722 1784.37242112 870 1601 870 c 4
 1295.36274047 870 1180 659.824878984 1180 337 c 6
 1180 135 l 5
 1528 134 l 5
 1532 636 l 6
 1532 678 1568 706 1604 706 c 4
 1645 706 1673 672 1673 628 c 4
 1672 546 1670 359 1670 213 c 4
 1670 129 1672 77 1672 5 c 4
 1672 -227.671804606 1581.96011681 -370 1374 -370 c 4
 1163.46519554 -370 1049.8515146 -204.791329638 1041 -5 c 5
 570 -3 l 6
 526 -3 502 32 502 68 c 4
 502 94 515 121 545 132 c 4
 615 159 688 233 688 337 c 4
 688 464 591 565 466 565 c 4
 338 565 239 458 239 340 c 4
 239 240 306 161 382 132 c 4
 405 123 427 98 427 67 c 4
EndSplineSet
EndChar

StartChar: ml_n
Encoding: 3346 3346 54
Width: 1365
GlyphClass: 2
Flags: W
HStem: -27 142<347.45 582.982 860.414 1083.88> 406 126<874.811 999.385> 473 140<344.58 576.273> 900 140<530.215 939.182>
VStem: 100 142<464 641.268> 640 143<172.461 409.01> 1040 140<571.813 808.546> 1126 140<158.23 362.569>
LayerCount: 2
Fore
SplineSet
640 298 m 0xbc
 640 398 554 473 459 473 c 0
 352 473 278 379 278 285 c 0
 278 184 389 115 471 115 c 0
 579 115 640 207 640 298 c 0xbc
783 290 m 0
 783 129 657 -27 466 -27 c 0
 238 -27 100 210 100 443 c 0
 100 839 409 1040 742 1040 c 0
 978 1040 1180 921 1180 700 c 0xbe
 1180 624 1132 524 1083 511 c 1
 1172 486 1266 375 1266 255 c 0
 1266 101 1141 -29 976 -29 c 0
 909 -29 817 -9 817 59 c 0
 817 98 848 129 887 129 c 0
 917 129 947 110 975 110 c 0
 1056 110 1126 182 1126 257 c 0xbd
 1126 353 1049 406 970 406 c 0
 915 406 872 412 872 474 c 0
 872 503 896 527 925 532 c 0
 1004 546 1040 626 1040 698 c 0xde
 1040 831 898 900 746 900 c 0
 519 900 252 760 242 475 c 0
 242 471 242 468 242 464 c 1
 292 568 374 613 462 613 c 0
 625 613 783 484 783 290 c 0
EndSplineSet
EndChar

StartChar: k1
Encoding: 3349 3349 57
Width: 1896
GlyphClass: 2
Flags: W
HStem: -19 141<294.06 528.695 836.507 1138.24 1378.05 1593.49> 506 141<363.978 562 723 1255> 884 139<850.993 1126.56>
VStem: 100 140<179.139 405.236> 562 140<283.104 506> 578 145<648 745.105> 1255 145<650 747.423> 1277 140<288.268 509> 1657 139<186.009 427.635>
LayerCount: 2
Fore
SplineSet
240 288 m 0xf880
 240 197 316 122 405 122 c 0
 504 122 586 190 586 298 c 0
 586 302 586 305 586 309 c 0
 570 367 562 428 562 494 c 0
 562 498 562 502 562 506 c 1
 386 499 240 432 240 288 c 0xf880
1277 510 m 1xf980
 702 508 l 1
 702 503 702 499 702 494 c 0
 702 305 799 114 988 114 c 0
 1176 114 1277 300 1277 493 c 0
 1277 499 1277 504 1277 510 c 1xf980
723 648 m 1xf680
 1255 650 l 1
 1218 770 1132 884 989 884 c 0
 846 884 759 767 723 648 c 1xf680
1467 -23 m 0
 1414 -23 1373 -3 1373 49 c 0
 1373 104 1416 117 1469 117 c 0
 1568 117 1657 201 1657 304 c 0
 1657 436 1553 501 1417 509 c 1
 1417 503 1417 497 1417 491 c 0xf180
 1417 217 1260 -24 986 -24 c 0
 851 -24 740 53 679 130 c 1
 628 48 536 -19 411 -19 c 0
 247 -19 100 115 100 275 c 0
 100 534 312 641 578 647 c 1
 621 841 757 1023 989 1023 c 0
 1220 1023 1355 843 1400 650 c 1
 1614 646 1796 525 1796 305 c 4
 1796 129 1648 -23 1467 -23 c 0
EndSplineSet
EndChar

StartChar: k2
Encoding: 3350 3350 58
Width: 1727
GlyphClass: 2
Flags: W
HStem: -18 138<369.713 592.958> -1 140<1087 1483> 462 140<359.054 593.361> 884 141<471.418 847.047>
VStem: 100 200<236.012 564.627> 652 140<176.832 403.667> 1066 141<294.591 659.826> 1486 141<139 955 955.004 1019.81>
LayerCount: 2
Fore
SplineSet
488 120 m 0xbf
 573 120 652 198 652 288 c 0
 652 385 574 462 479 462 c 0
 383 462 300 388 300 289 c 0
 300 266 305 242 315 218 c 1
 359 158 424 120 488 120 c 0xbf
1207 476 m 0
 1207 344 1153 221 1087 139 c 1
 1483 139 l 1
 1486 955 l 1
 1486 970 l 2
 1486 997 1526 1026 1556 1026 c 0
 1586 1026 1627 997 1627 970 c 0
 1627 960 1627 955 1626 955 c 2
 1623 69 l 2
 1623 31 1591 -1 1553 -1 c 2
 904 -1 l 2x7f
 872 -1 831 26 831 70 c 0
 831 95 850 119 889 142 c 0
 944 175 1008 257 1035 324 c 0
 1056 377 1066 429 1066 479 c 0
 1066 701 885 884 668 884 c 0
 519 884 403 825 319 708 c 0
 276 647 251 578 244 499 c 1
 293 554 373 602 475 602 c 0
 651 602 792 464 792 290 c 0
 792 121 654 -18 484 -18 c 0
 300 -18 180 128 130 272 c 0
 109 332 100 393 100 452 c 0
 100 580 143 700 206 790 c 0
 296 917 456 1025 658 1025 c 0
 927 1025 1130 837 1188 616 c 0
 1200 569 1207 522 1207 476 c 0
EndSplineSet
EndChar

StartChar: k3
Encoding: 3351 3351 59
Width: 1819
GlyphClass: 2
Flags: W
HStem: -18 138<419.745 723.657 1213.13 1377.1> 883 141<418.549 544.745 1074.96 1396.91>
VStem: 100 139<311.723 676.203> 826 140<233.603 762.761> 1580 140<330.905 694.093>
LayerCount: 2
Fore
SplineSet
1266 -22 m 0
 1240 -22 1206 14 1206 41 c 0
 1206 84 1230 110 1279 121 c 0
 1442 155 1580 324 1580 510 c 0
 1580 723 1435 883 1226 883 c 0
 1037 883 966 745 966 547 c 2
 966 455 l 2
 966 180 848 -18 577 -18 c 0
 301 -18 100 220 100 477 c 0
 100 747 258 939 455 1019 c 0
 464 1023 476 1025 490 1025 c 0
 520 1025 552 991 552 960 c 0
 552 927 531 899 508 890 c 0
 360 830 239 685 239 483 c 0
 239 300 384 120 577 120 c 0
 766 120 826 258 826 455 c 2
 826 547 l 2
 826 831 963 1024 1230 1024 c 0
 1516 1024 1720 797 1720 513 c 0
 1720 240 1522 31 1293 -20 c 0
 1288 -21 1279 -22 1266 -22 c 0
EndSplineSet
EndChar

StartChar: k4
Encoding: 3352 3352 60
Width: 2345
GlyphClass: 2
Flags: W
HStem: 0 140<1145 2102> 302 135<311.528 410.156 496.597 619.161 763 1005 1145 1755> 883 141<345.202 593.351 1273.29 1630.45>
VStem: 100 140<508.918 779.665> 678 152<499.968 793.067> 1005 140<140 297 438 737.249> 1757 139<442 747.672> 2103 140<140 1012.41>
LayerCount: 2
Fore
SplineSet
1757 541 m 2
 1757 767 1665 883 1442 883 c 0
 1233 883 1146 745 1146 517 c 1
 1145 438 l 1
 1755 442 l 1
 1757 522 l 1
 1757 541 l 2
1439 1024 m 0
 1742 1024 1896 854 1896 539 c 0
 1896 532 1896 525 1896 518 c 2
 1893 371 l 2
 1892 334 1862 303 1824 303 c 2
 1145 298 l 1
 1145 140 l 1
 2102 140 l 1
 2103 947 l 1
 2103 948 l 2
 2103 986 2135 1018 2173 1018 c 0
 2203 1018 2243 989 2243 962 c 2
 2243 947 l 1
 2242 70 l 2
 2242 32 2210 0 2172 0 c 2
 1075 0 l 2
 1037 0 1005 32 1005 70 c 2
 1005 297 l 1
 560 294 l 2
 524 294 490 325 490 360 c 0
 490 400 514 422 547 434 c 0
 635 465 678 555 678 645 c 0
 678 756 610 881 478 881 c 0
 342 881 240 774 240 640 c 0
 240 543 302 468 374 437 c 0
 400 426 416 399 416 372 c 0
 416 339 386 302 353 302 c 0
 338 302 326 304 317 309 c 0
 200 360 100 483 100 641 c 0
 100 849 257 1020 469 1020 c 0
 664 1020 830 839 830 636 c 0
 830 567 808 500 763 435 c 1
 1005 437 l 1
 1006 517 l 1
 1006 824 1155 1024 1439 1024 c 0
EndSplineSet
EndChar

StartChar: ng
Encoding: 3353 3353 61
Width: 2048
GlyphClass: 2
Flags: W
HStem: -16 137<373.694 616.252 1491.83 1764.11> 379 142<1472.02 1752.67> 534 140<364.699 608.166> 874 142<482.511 840.435 1317.39 1692.49>
VStem: 100 182<231.075 558.59> 700 138<210.583 441.34> 1002 143<-18.5397 680.641> 1807 141<160.953 339.729 573.495 766.822>
LayerCount: 2
Fore
SplineSet
377 498 m 0
 319 465 282 406 282 320 c 0
 282 217 384 121 512 121 c 0
 616 121 700 245 700 329 c 0
 700 431 592 534 499 534 c 0
 461 534 421 522 377 498 c 0
1807 258 m 0
 1807 349 1704 378 1596 379 c 1
 1536 379 l 2
 1501 379 1466 410 1466 444 c 0
 1466 490 1496 519 1534 521 c 2
 1603 524 l 2
 1724 530 1797 566 1797 662 c 0
 1797 798 1657 875 1510 875 c 0
 1253 875 1145 710 1145 437 c 0
 1145 432 1145 428 1145 423 c 2
 1147 46 l 2
 1147 8 1114 -25 1076 -25 c 0
 1037 -25 1006 7 1005 45 c 2
 1002 424 l 2
 1000 684 916 874 663 874 c 0
 476 874 327 752 271 596 c 1
 336 648 406 674 480 674 c 0
 682 674 838 528 838 323 c 0
 838 129 688 -16 497 -16 c 0
 248 -16 100 210 100 445 c 0
 100 749 346 1016 650 1016 c 0
 849 1016 992 923 1073 779 c 1
 1155 924 1297 1017 1511 1017 c 0
 1737 1017 1938 879 1938 662 c 0
 1938 583 1871 473 1791 449 c 1
 1893 435 1948 342 1948 253 c 0
 1948 91 1816 -23 1655 -23 c 0
 1587 -23 1521 -2 1467 36 c 0
 1446 50 1436 68 1436 91 c 0
 1436 132 1464 166 1503 166 c 0
 1520 166 1538 160 1556 147 c 0
 1579 131 1622 118 1663 118 c 0
 1746 118 1807 193 1807 258 c 0
EndSplineSet
EndChar

StartChar: ch1
Encoding: 3354 3354 62
Width: 1523
GlyphClass: 2
Flags: W
HStem: -4 140<56.2862 787.86 951 1283> 606 138<571.888 808.818> 1005 20G<1331 1369.5>
VStem: 360 141<281.435 532.753> 899 138<243.155 518.196> 1283 140<140 1019.18>
LayerCount: 2
Fore
SplineSet
523 301 m 0
 523 271 488 238 458 238 c 0
 378 238 360 345 360 415 c 0
 360 589 497 744 673 744 c 0
 875 744 1037 587 1037 385 c 0
 1037 297 1007 208 951 139 c 1
 1283 140 l 1
 1283 954 l 1
 1285 994 1314 1025 1348 1025 c 0
 1391 1025 1423 996 1423 955 c 2
 1423 70 l 2
 1423 32 1391 0 1353 0 c 2
 121 -4 l 1
 106 -4 l 2
 80 -4 50 36 50 66 c 0
 50 104 82 136 120 136 c 2
 121 136 l 1
 682 138 l 1
 797 153 899 257 899 375 c 0
 899 504 807 606 686 606 c 0
 577 606 501 505 501 411 c 0
 501 365 523 337 523 301 c 0
EndSplineSet
EndChar

StartChar: ch2
Encoding: 3355 3355 63
Width: 2478
GlyphClass: 2
Flags: W
HStem: -3 141<58.5815 798.775 946 1305 1853.61 2114.82> 612 141<567.174 813.223> 891 139<1599.23 1903.31>
VStem: 360 140<289.368 545.664> 897 141<235.514 527.484> 1213 139<262.062 638.954> 1596 141<260.327 594.264> 2239 140<272.072 629.965>
LayerCount: 2
Fore
SplineSet
1737 415 m 0
 1737 270 1842 138 1981 138 c 0
 2139 138 2239 290 2239 445 c 0
 2239 585 2176 690 2096 767 c 1
 2091 767 2086 767 2081 767 c 0
 1879 767 1737 615 1737 415 c 0
500 416 m 0
 500 377 523 342 523 309 c 0
 523 279 488 246 458 246 c 0
 378 246 360 353 360 423 c 0
 360 607 507 753 686 753 c 0
 896 753 1038 578 1038 389 c 0
 1038 290 1006 211 946 141 c 1
 1305 139 l 1
 1242 238 1213 346 1213 452 c 0
 1213 765 1468 1030 1784 1030 c 0
 2108 1030 2379 778 2379 450 c 0
 2379 216 2224 -3 1991 -3 c 0
 1980 -3 1969 -2 1958 -1 c 0
 1746 25 1596 194 1596 420 c 0
 1596 648 1737 809 1906 874 c 1
 1864 886 1824 891 1784 891 c 0
 1548 891 1352 695 1352 453 c 0
 1352 313 1422 191 1502 121 c 0
 1518 107 1526 90 1526 70 c 0
 1526 30 1495 -2 1456 -2 c 2
 121 4 l 1
 120 4 l 2
 82 4 50 36 50 74 c 0
 50 104 79 144 106 144 c 2
 121 144 l 1
 661 142 l 2
 794 142 897 226 897 395 c 0
 897 506 812 612 690 612 c 0
 581 612 500 530 500 416 c 0
EndSplineSet
EndChar

StartChar: ch3
Encoding: 3356 3356 64
Width: 1529
GlyphClass: 2
Flags: W
HStem: -38 143<268.242 581.113 1123.28 1294.6> 274 133<270.754 755.828> 289 100<884 1216> 450 115<252.883 422.817> 890 140<443.726 593.183 931.718 1189.59>
VStem: 103 127<587.281 758.473> 114 140<127.352 251.013> 446 137<587.274 758.842> 716 141<429.267 770.305> 982 129<107.929 217.641> 1283 141<528.442 797.934> 1305 124<113.172 275.586>
LayerCount: 2
Fore
SplineSet
254 186 m 0xdbc0
 254 133 324 105 391 105 c 0
 523 105 593 146 759 248 c 1
 653 258 536 274 426 274 c 0
 336 274 254 253 254 186 c 0xdbc0
1283 670 m 0xbbe0
 1283 795 1178 890 1053 890 c 0
 936 890 859 795 858 666 c 0
 858 640 858 620 857 608 c 2
 855 491 l 2
 854 454 822 423 784 423 c 0
 747 423 715 455 715 492 c 2
 715 493 l 1
 716 609 l 2
 716 635 716 648 716 648 c 1
 707 769 606 883 465 883 c 0
 457 883 451 883 443 882 c 1
 511 851 583 771 583 672 c 0
 583 530 475 450 346 450 c 0
 191 450 103 556 103 697 c 0
 103 888 270 1024 462 1024 c 0
 588 1024 704 960 773 872 c 1
 829 966 924 1030 1048 1030 c 0
 1244 1030 1424 879 1424 685 c 0xbde0
 1424 566 1377 467 1296 391 c 1
 1365 357 1429 286 1429 188 c 0
 1429 61 1330 -37 1205 -37 c 0
 1073 -37 982 74 982 185 c 0
 982 196 982 207 984 218 c 1
 823 131 580 -38 389 -38 c 0
 249 -38 114 44 114 185 c 0
 114 339 246 407 400 407 c 0xdbd0
 569 407 725 389 884 389 c 0
 1092 389 1283 474 1283 670 c 0xbbe0
338 565 m 0
 397 565 446 614 446 673 c 0
 446 732 397 781 338 781 c 0
 279 781 230 732 230 673 c 0
 230 614 279 565 338 565 c 0
1200 94 m 0
 1256 94 1305 133 1305 185 c 0xb9d0
 1305 245 1265 289 1216 289 c 0
 1160 289 1111 251 1111 199 c 0
 1111 139 1151 94 1200 94 c 0
EndSplineSet
EndChar

StartChar: ch4
Encoding: 3357 3357 65
Width: 3094
GlyphClass: 2
Flags: W
HStem: -29 140<758.832 1003.12 1649.14 1866.4 2288.28 2648.17> 889 140<461.712 732.19 1051.95 1275.76 2364.75 2618.36>
VStem: 100 140<292.405 661.193> 511 139<229.88 601.433> 1112 141<236.151 610.925> 1948.9 139.096<322.787 1011.12> 2855 139<313.801 668.128>
LayerCount: 2
Fore
SplineSet
891 821 m 1
 761 748 650 597 650 394 c 0
 650 250 743 111 881 111 c 0
 1025 111 1112 264 1112 412 c 0
 1112 594 1009 748 891 821 c 1
511 402 m 0
 511 615 612 779 734 882 c 1
 706 887 680 889 654 889 c 0
 417 889 240 708 240 477 c 0
 240 305 342 173 462 111 c 0
 481 102 500 75 500 48 c 0
 500 17 476 -22 442 -22 c 0
 423 -22 407 -19 397 -13 c 0
 237 70 100 246 100 476 c 0
 100 789 342 1029 655 1029 c 0
 737 1029 819 1011 895 977 c 1
 970 1007 1045 1021 1116 1021 c 0
 1431 1021 1559 807 1577 491 c 1
 1582 413 l 2
 1591 259 1607 113 1761 113 c 0
 1910.39197353 113 1948.90393834 291.920014078 1948.90393834 471.919423675 c 0
 1948.90393834 488.315463381 1948.58439377 504.720459135 1948 521 c 2
 1940 950 l 2
 1940 988 1972 1020 2010 1020 c 0
 2048 1020 2079 990 2080 953 c 2
 2088 526 l 1
 2095 282 2220 116 2467 116 c 0
 2687 116 2855 267 2855 490 c 0
 2855 710 2684 877 2467 877 c 0
 2438 877 2418 872 2386 872 c 0
 2358 872 2328 910 2328 940 c 0
 2328 1011 2401 1018 2470 1018 c 0
 2771 1018 2994 777 2994 485 c 0
 2994 187 2763 -25 2467 -25 c 0
 2282 -25 2129 64 2046 180 c 1
 1991 48 1902 -25 1756 -25 c 0
 1520 -25 1456 170 1442 404 c 2
 1437 482 l 1
 1423 721 1365 879 1118 879 c 0
 1096 879 1074 877 1051 874 c 1
 1181 755 1253 606 1253 414 c 0
 1253 185 1117 -29 881 -29 c 0
 650 -29 511 176 511 402 c 0
EndSplineSet
EndChar

StartChar: nj
Encoding: 3358 3358 66
Width: 2517
GlyphClass: 2
Flags: W
HStem: -21 140<356.449 604.875 1536.5 1799.86> 498 123<365.916 599.517> 883 139<458.859 805.839 1251.82 1508.51 1806.98 2068.39>
VStem: 99 194<224.57 563.8> 673 140<184.588 423.063> 975 140<-27.3906 709.965> 1309 139<219.94 611.973> 1882 139<214.54 601.637> 2276 141<271.518 652.136>
LayerCount: 2
Fore
SplineSet
487 498 m 4
 376 498 293 408 293 299 c 4
 293 193 378 119 479 119 c 4
 588 119 673 198 673 303 c 4
 673 405 586 498 487 498 c 4
1658 814 m 5
 1530 728 1448 583 1448 386 c 4
 1448 250 1532 105 1664 105 c 4
 1808 105 1882 251 1882 391 c 4
 1882 588 1780 735 1658 814 c 5
482 -21 m 4
 244 -21 99 210 99 445 c 4
 99 764 319 1022 637 1022 c 4
 819 1022 966 919 1039 802 c 5
 1115 933 1235 1025 1420 1025 c 4
 1497 1025 1576 1006 1658 967 c 5
 1744 1007 1819 1027 1884 1027 c 4
 2183 1027 2417 770 2417 481 c 4
 2417 274 2336 109 2176 -16 c 4
 2163 -27 2149 -31 2135 -31 c 4
 2097 -31 2063 3 2063 42 c 4
 2063 63 2073 81 2092 96 c 4
 2185 167 2276 304 2276 454 c 4
 2276 677 2126 886 1891 886 c 4
 1863 886 1835 882 1806 876 c 5
 1936 758 2021 603 2021 390 c 4
 2021 170 1890 -33 1666 -33 c 4
 1438 -33 1309 176 1309 401 c 4
 1309 605 1383 758 1511 876 c 5
 1479 884 1449 887 1420 887 c 4
 1256 887 1137 765 1127 656 c 4
 1118 562 1114 503 1114 480 c 6
 1115 38 l 6
 1115 5 1084 -34 1043 -34 c 4
 1005 -34 976 6 975 36 c 5
 975 38 l 5
 973 476 l 6
 972 578 962 649 943 690 c 4
 891 798 787 883 644 883 c 4
 394 883 266 695 230 466 c 5
 280 560 375 621 513 621 c 4
 689 621 813 465 813 304 c 4
 813 124 664 -21 482 -21 c 4
EndSplineSet
EndChar

StartChar: t1
Encoding: 3359 3359 67
Width: 1134
GlyphClass: 2
Flags: W
HStem: -29 140<360.444 807.623> 446 141<316.058 823.214> 897 140<341.889 748.972>
VStem: 113 140<647.187 821.42> 896 139<187.808 387.008>
LayerCount: 2
Fore
SplineSet
1035 284 m 0
 1035 64 812 -29 589 -29 c 0
 393 -29 237 33 120 157 c 0
 107 170 100 187 100 206 c 0
 100 245 132 276 171 276 c 0
 191 276 208 268 222 253 c 0
 312 158 434 111 590 111 c 0
 742 111 896 158 896 288 c 0
 896 421 747 446 574 446 c 0
 298 447 113 527 113 740 c 0
 113 920 314 1037 549 1037 c 0
 735 1037 877 973 976 844 c 0
 986 831 991 816 991 798 c 0
 991 760 957 731 918 731 c 0
 897 731 879 740 865 759 c 0
 794 851 687 897 543 897 c 0
 402 897 253 841 253 736 c 0
 253 607 412 589 561 587 c 0
 838 583 1035 509 1035 284 c 0
EndSplineSet
EndChar

StartChar: t2
Encoding: 3360 3360 68
Width: 1238
GlyphClass: 2
Flags: W
HStem: -16 140<437.212 796.364> 881 140<439.96 793.55>
VStem: 100 140<325.551 683.167> 998 140<324.77 675.613>
LayerCount: 2
Fore
SplineSet
618 124 m 0
 838 124 998 298 998 502 c 0
 998 704 838 881 621 881 c 0
 400 881 240 711 240 504 c 0
 240 289 405 124 618 124 c 0
100 499 m 0
 100 799 320 1021 622 1021 c 0
 915 1021 1138 796 1138 503 c 0
 1138 219 904 -16 620 -16 c 0
 326 -16 100 206 100 499 c 0
EndSplineSet
EndChar

StartChar: t4
Encoding: 3362 3362 70
Width: 2554
GlyphClass: 2
Flags: W
HStem: -24 139<441.804 685.263 1101.72 1318.71 1715.33 2075.58> 342 141<1950.83 2200.34> 885 142<447.46 765.106 1941.15 2202.22>
VStem: 100 140<305.987 668.291> 911 141<171.607 741.321> 1417 139<287.591 554.969 555 1025.52> 1732 139<561.827 811.458> 2281 173<455.772 804.626>
LayerCount: 2
Fore
SplineSet
1871 684 m 0
 1871 571 1963 483 2072 483 c 0
 2190 483 2281 578 2281 691 c 0
 2281 813 2166 885 2078 885 c 0
 1959 885 1871 808 1871 684 c 0
911 375 m 0
 911 431 916 492 916 543 c 0
 916 735 804 882 612 882 c 0
 399 882 240 695 240 485 c 0
 240 259 407 115 634 115 c 0
 661 115 691 75 691 45 c 0
 691 0 654 -25 608 -25 c 0
 319 -25 100 194 100 483 c 0
 100 776 335 1022 607 1022 c 0
 885 1022 1056 817 1056 537 c 0
 1056 491 1052 434 1052 394 c 0
 1052 242 1072 115 1202 115 c 0
 1387 115 1416 350 1417 558 c 2
 1419 963 l 2
 1420 1003 1449 1032 1495 1032 c 0
 1529 1032 1559 997 1559 962 c 2
 1557 555 l 1
 1557 555 1556 513 1556 481 c 0
 1556 257 1690 109 1902 109 c 0
 2098 109 2236 287 2295 433 c 1
 2238 367 2138 342 2076 342 c 0
 1874 343 1732 505 1732 688 c 0
 1732 868 1886 1027 2075 1027 c 0
 2302 1027 2454 833 2454 603 c 0
 2454 267 2234 -31 1901 -31 c 0
 1712 -31 1574 58 1495 183 c 1
 1444 77 1346 -24 1187 -24 c 0
 990 -24 911 181 911 375 c 0
EndSplineSet
EndChar

StartChar: nh
Encoding: 3363 3363 71
Width: 2764
GlyphClass: 2
Flags: W
HStem: -22 140<373.921 606.641 2018.52 2310.22> 464 139<378.741 600.942> 888 141<458.506 825.704 1253.92 1529.25 1967 2309.1>
VStem: 100 217<222.954 563.649> 665 141<176.058 402.703> 989 141<-18.4217 685.208> 1664 140<-20.5695 705.839> 2525 139<326.46 677.855>
LayerCount: 2
Fore
SplineSet
487 118 m 0
 586 118 665 192 665 290 c 0
 665 384 583 464 490 464 c 0
 397 464 317 383 317 287 c 0
 317 192 397 118 487 118 c 0
2146 -23 m 0
 2079 -23 2013 -16 2013 52 c 0
 2013 82 2043 121 2071 121 c 0
 2098.1668173 121 2113.02746982 117 2138 117 c 0
 2342.08520984 117 2525 283.50324564 2525 496 c 0
 2525 730.044866488 2344.04530928 886 2137 886 c 0
 1879.12315081 886 1802 692.25086872 1802 423 c 1
 1804 44 l 2
 1804 3 1776 -26 1727 -26 c 0
 1695 -26 1665 10 1664 43 c 2
 1661 418 l 2
 1659.15506582 681.825588092 1597.83200275 888 1395 888 c 0
 1175.38701725 888 1130 662.225032534 1130 426 c 0
 1130 422 1130 418 1130 414 c 2
 1132 44 l 2
 1132 9 1101 -25 1067 -25 c 0
 1022 -25 993 4 992 43 c 2
 989 412 l 2
 987.326347904 683.13163958 904.758517006 894 643 894 c 0
 411.52383183 894 256.817564481 699.229167002 241 479 c 1
 293 548 387 603 490 603 c 0
 665 603 806 456 806 291 c 0
 806 117.330311968 666.715605884 -22 489 -22 c 0
 248.983603349 -22 100 193.102052646 100 446 c 0
 100 755.593042413 318.339074432 1033 641 1033 c 0
 833 1033 975 930 1051 796 c 1
 1108 911 1231 1029 1393 1029 c 0
 1564 1029 1678 916 1737 797 c 1
 1809 922 1948 1028 2132 1028 c 0
 2439.05503116 1028 2664 803.500910886 2664 500 c 0
 2664 207.543215529 2427.12123845 -23 2146 -23 c 0
EndSplineSet
EndChar

StartChar: th1
Encoding: 3364 3364 72
Width: 1790
GlyphClass: 2
Flags: W
HStem: -18 137<405.073 534.09 776.551 1027.55 1267.14 1390.08> 887 139<461.52 742.344 1043.34 1329.53>
VStem: 100 139<304.625 667.206> 533 140<229.565 607.288> 1115 139<214.983 606.93> 1552 139<301.132 665.544>
LayerCount: 2
Fore
SplineSet
893 814 m 1
 778 740 673 601 673 406 c 0
 673 265 751 119 894 119 c 0
 1046 120 1115 232 1115 404 c 0
 1115 600 1009 740 893 814 c 1
542 40 m 0
 542 10 509 -26 480 -26 c 0
 466 -26 455 -24 446 -21 c 0
 257 53 100 234 100 489 c 0
 100 798 347 1026 657 1026 c 0
 736 1026 816 1010 891 974 c 1
 892 974 l 1
 971 1010 1055 1027 1136 1027 c 0
 1444 1027 1691 796 1691 488 c 0
 1691 235 1540 58 1356 -19 c 0
 1347 -23 1336 -25 1322 -25 c 0
 1292 -25 1259 10 1259 40 c 0
 1259 72 1279 101 1302 110 c 0
 1433 164 1552 304 1552 478 c 0
 1552 708 1376 888 1141 888 c 0
 1109 888 1076 884 1041 877 c 1
 1171 762 1254 611 1254 404 c 0
 1254 185 1119 -18 895 -18 c 0
 671 -18 533 187 533 405 c 0
 533 609 618 764 744 876 c 1
 710 883 677 887 645 887 c 0
 417 887 239 711 239 481 c 0
 239 306 361 162 497 110 c 0
 521 101 542 73 542 40 c 0
EndSplineSet
EndChar

StartChar: th2
Encoding: 3365 3365 73
Width: 1549
GlyphClass: 2
Flags: W
HStem: 1 140<245 520 660 1306> 883 141<813.142 1154.87>
VStem: 106 139<142 1018.56> 516 142<141 691.984> 1309 136<141 710.385>
LayerCount: 2
Fore
SplineSet
1309 489 m 6
 1309 491 1309 493 1309 495 c 4
 1309 721 1205 883 981 883 c 4
 724 883 658 673 658 408 c 4
 658 404 658 400 658 396 c 6
 660 141 l 5
 1306 141 l 5
 1309 489 l 6
100 949 m 6
 100 988 127 1026 172 1026 c 4
 205 1026 240 995 240 962 c 6
 245 142 l 5
 520 141 l 5
 516 467 l 5
 516 475 l 6
 516 786 682 1024 974 1024 c 4
 1251 1024 1443 828 1445 575 c 6
 1449 86 l 6
 1449 39 1421 1 1383 1 c 6
 200 2 l 5
 195 1 191 1 186 1 c 4
 146 1 107 27 106 64 c 6
 100 949 l 6
EndSplineSet
EndChar

StartChar: th3
Encoding: 3366 3366 74
Width: 1206
GlyphClass: 2
Flags: W
HStem: -37 141<668.467 922.813> 382 139<673.439 754> 883 141<493.759 842.385>
VStem: 100 141<184.692 613.816> 931 140<577.012 799.654> 965 141<146.581 343.233>
LayerCount: 2
Fore
SplineSet
981 472 m 1xf8
 1061 422 1106 348 1106 237 c 0
 1106 82 966 -37 811 -37 c 0
 755 -37 700 -20 646 14 c 0
 624 28 614 46 614 68 c 0
 614 108 642 142 680 142 c 0
 697 142 714 137 731 126 c 0
 751 113 782 104 817 104 c 0
 889 104 965 162 965 243 c 0xf4
 965 346 888 379 769 381 c 1
 736 382 l 2
 699 383 668 413 668 450 c 0
 668 484 696 518 726 521 c 2
 754 524 l 1
 855 533 931 585 931 685 c 0
 931 817 809 883 670 883 c 0
 420 883 241 657 241 402 c 0
 241 277 284 161 347 81 c 0
 357 68 362 54 362 36 c 0
 362 -2 329 -32 289 -32 c 0
 268 -32 250 -23 236 -4 c 0
 155 102 100 242 100 398 c 0
 100 739 340 1024 679 1024 c 0
 878 1024 1071 901 1071 687 c 0
 1071 608 1040 530 981 472 c 1xf8
EndSplineSet
EndChar

StartChar: th4
Encoding: 3367 3367 75
Width: 1910
GlyphClass: 2
Flags: W
HStem: -22 140<413.089 731.207 1157.28 1482.49> 882 140<459.547 665.938 1205.59 1455.44>
VStem: 100 141<297.44 658.947> 876 143<275.334 1015.87> 1667 143<311.167 670.319>
LayerCount: 2
Fore
SplineSet
1275 882 m 2
 1256 882 l 2
 1229 882 1200 922 1200 952 c 0
 1200 990 1232 1022 1270 1022 c 0
 1272 1022 1274 1022 1276 1022 c 0
 1569 1022 1810 780 1810 489 c 0
 1810 202 1600 -19 1317 -19 c 0
 1150 -19 1015 73 946 187 c 1
 875 68 749 -22 572 -22 c 0
 299 -22 100 204 100 478 c 0
 100 774 325 994 593 1021 c 0
 596 1021 598 1021 600 1021 c 0
 622 1021 632 1020 651 1001 c 0
 665 987 671 970 671 952 c 0
 671 915 642 885 608 882 c 0
 410 861 241 699 241 480 c 0
 241 279 376 118 578 118 c 0
 750 118 863 253 876 432 c 0
 875 458 874 493 874 538 c 2
 879 953 l 2
 880 987 909 1022 943 1022 c 0
 988 1022 1018 991 1019 952 c 1
 1019 539 l 2
 1019 493 1018 457 1016 431 c 0
 1027 259 1135 117 1319 117 c 0
 1530 117 1667 296 1667 493 c 0
 1667 707 1496 882 1275 882 c 2
EndSplineSet
EndChar

StartChar: n1
Encoding: 3368 3368 76
Width: 1910
GlyphClass: 2
Flags: W
HStem: -21 129<475.134 705.469 1244.94 1426.7> 881 140<422.106 762.98 1168.67 1503.85>
VStem: 100 142<329.756 688.632> 893 140<-16.2656 714.594> 1670 140<344.092 705.464>
LayerCount: 2
Fore
SplineSet
1298 -21 m 0
 1273 -21 1240 17 1240 43 c 0
 1240 87 1268 115 1304 118 c 0
 1507 139 1670 314 1670 520 c 0
 1670 719 1539 882 1338 882 c 0
 1114 882 1040 727 1037 463 c 2
 1033 47 l 2
 1032 10 1000 -22 962 -22 c 0
 924 -22 893 11 893 48 c 2
 892 461 l 2
 892 717 833 881 591 881 c 0
 381 881 242 709 242 497 c 0
 242 275 442 108 654 108 c 0
 704 108 711 85 711 54 c 0
 711 7 680 -21 636 -21 c 0
 336 -21 100 216 100 525 c 0
 100 783 316 1021 589 1021 c 0
 761 1021 893 933 965 813 c 1
 1034 928 1166 1022 1333 1022 c 0
 1613 1022 1810 794 1810 522 c 0
 1810 255 1583 -21 1298 -21 c 0
EndSplineSet
EndChar

StartChar: p1
Encoding: 3370 3370 77
Width: 1671
GlyphClass: 2
Flags: W
HStem: -8 141<305.04 422.288 510.505 611.783 756 1430> 549 140<328.597 588.656> 1005 20G<1484 1514>
VStem: 100 139<201.123 460.507> 673 142<198.034 461.462> 1430 141<140 1018.17>
LayerCount: 2
Fore
SplineSet
455 549 m 0
 334 549 239 446 239 331 c 0
 239 240 303 157 368 133 c 0
 408 118 429 98 429 72 c 0
 429 30 403 -8 367 -8 c 0
 353 -8 342 -7 334 -4 c 0
 209 41 100 167 100 329 c 0
 100 530 257 689 455 689 c 0
 657 689 815 520 815 331 c 0
 815 267 797 201 756 138 c 1
 1430 140 l 1
 1429 970 l 6
 1429 996 1469 1025 1499 1025 c 4
 1529 1025 1569 996 1569 970 c 6
 1571 70 l 2
 1571 32 1539 0 1501 0 c 2
 572 -1 l 2
 538 -1 503 31 503 62 c 0
 503 110 521 123 568 144 c 0
 622 168 673 250 673 335 c 0
 673 456 574 549 455 549 c 0
EndSplineSet
EndChar

StartChar: p2
Encoding: 3371 3371 78
Width: 2111
GlyphClass: 2
Flags: W
HStem: 3 137<302.306 428.8 514.77 615.733 762 1062 1202 1869> 555 140<332.911 591.707> 887.585 137.415<1333.4 1724.32>
VStem: 100 139<208.417 460.962> 679 142<205.411 465.43> 1062 140<141 746.765> 1869 139<140 728.022>
LayerCount: 2
Fore
SplineSet
1538.71034394 887.584991087 m 4
 1248.70578351 887.584991087 1204.1273015 739.885860121 1202 441 c 5
 1202 140 l 5
 1869 140 l 5
 1871 474 l 5
 1871 747.536403404 1777.87091204 887.584991087 1538.71034394 887.584991087 c 4
1519 1025 m 4
 1869.70214844 1025 2011 842.672851562 2011 473 c 5
 2008 71 l 6
 2008 36 1980 -1 1941 -1 c 6
 580 3 l 6
 546 3 510 32 510 70 c 4
 510 103 529 127 551 137 c 4
 618 168 679 241 679 334 c 4
 679 459 582 555 459 555 c 4
 337 555 239 450 239 334 c 4
 239 233 310 155 389 128 c 4
 414 120 438 95 438 63 c 4
 438 24 407 -9 368 -9 c 4
 360 -9 352 -7 344 -4 c 4
 215 40 100 168 100 333 c 4
 100 535 259 695 458 695 c 4
 661 695 821 525 821 335 c 4
 821 271 803 205 762 142 c 5
 1062 141 l 5
 1062 441 l 6
 1062 798 1168 1025 1519 1025 c 4
EndSplineSet
EndChar

StartChar: p3
Encoding: 3372 3372 79
Width: 2487
GlyphClass: 2
Flags: W
HStem: -22 143<354.903 603.266> 0 142<1408.58 1606.25 1774 2246> 496 139<354.192 595.234> 888 140<478.448 822.02 1288.48 1621.9>
VStem: 100 183<208.763 540.479> 100 149<466 640.645> 669 142<188.847 423.687> 1001 140<-16.5625 673.034> 1802 140<348.545 707.751> 2246 140<138 1018.76>
LayerCount: 2
Fore
SplineSet
473 496 m 0xbbc0
 374 496 283 412 283 303 c 0
 283 190 384 121 485 121 c 0
 584 121 669 204 669 299 c 0
 669 415 576 496 473 496 c 0xbbc0
1472 0 m 2x7bc0
 1435 0 1403 31 1403 67 c 0
 1403 110 1429 135 1483 142 c 0x7bc0
 1657 164 1802 337 1802 522 c 0
 1802 732 1654 889 1443 889 c 4
 1208 889 1141 672 1141 411 c 2
 1141 47 l 2
 1141 9 1109 -22 1071 -22 c 0
 1034 -22 1001 10 1001 47 c 2
 1000 412 l 2
 1000 685 903 888 647 888 c 0
 429 888 257 680 249 466 c 1
 283 570 382 635 489 635 c 0
 655 635 811 492 811 312 c 0
 811 130 673 -22 489 -22 c 0xb7c0
 254 -22 100 187 100 409 c 0
 100 737 313 1028 637 1028 c 0
 837 1028 990 939 1070 795 c 1
 1143 928 1255 1027 1442 1027 c 4
 1715 1027 1942 820 1942 531 c 0
 1942 367 1881 239 1774 139 c 1
 2246 138 l 1
 2247 952 l 2
 2247 991 2281 1025 2317 1025 c 0
 2359 1025 2387 983 2387 952 c 2
 2386 67 l 2
 2386 29 2354 -3 2316 -3 c 2
 1472 0 l 2x7bc0
EndSplineSet
EndChar

StartChar: p4
Encoding: 3373 3373 80
Width: 1335
GlyphClass: 2
Flags: W
HStem: -28 143<547.72 1083.01> -24 21G<341 369> 258 141<636.674 1083.28> 513 142<735.29 1089.65> 557 142<627.223 996.51> 891 138<537.302 993.889>
VStem: 100 140<242.644 623.178> 478 141<421.361 542.27> 1091 139<132.821 250.735 663.785 811.414>
LayerCount: 2
Fore
SplineSet
1095 726 m 0x3780
 1095 838 916 891 761 891 c 0
 478 891 240 710 240 432 c 0
 240 302 299 179 393 100 c 0
 410 86 419 69 419 48 c 0
 419 9 388 -24 350 -24 c 0
 332 -24 316 -18 303 -7 c 0
 176 100 100 237 100 435 c 0
 100 800 398 1029 767 1029 c 4
 994 1029 1235 946 1235 723 c 0
 1235 594 1124 513 1000 513 c 0x7780
 910 513 821 557 728 557 c 0
 674 557 619 530 619 484 c 0
 619 417 701 399 772 399 c 0
 822 399 884 407 934 407 c 0
 1088 407 1230 345 1230 191 c 0
 1230 24 1069 -28 892 -28 c 0
 812 -28 706 -21 573 -7 c 0
 535 -3 509 23 509 70 c 0
 509 95 542 133 566 133 c 0
 645 133 762 115 875 115 c 0
 991 115 1091 119 1091 188 c 0
 1091 249 1021 268 942 268 c 0
 885 268 799 258 766 258 c 0
 611 258 478 336 478 481 c 0
 478 619 602 699 734 699 c 0xaf80
 824 699 921 655 1001 655 c 0
 1055 655 1095 676 1095 726 c 0x3780
EndSplineSet
EndChar

StartChar: m1
Encoding: 3374 3374 81
Width: 1398
GlyphClass: 2
Flags: W
HStem: -7 140<240 431.239 635 1156> 882 141<468.032 750.312>
VStem: 100 140<133 632.707> 818 143<496.24 818.411> 1156 140<133 628.637>
LayerCount: 2
Fore
SplineSet
931 823 m 1
 951 774 961 724 961 672 c 0
 961 434 782 235 635 133 c 1
 1156 133 l 1
 1157 447 l 2
 1158 612 1055 750 931 823 c 1
638 882 m 0
 420 882 240 684 240 446 c 2
 240 133 l 1
 509 133 818 406 818 675 c 0
 818 800 747 882 638 882 c 0
170 -7 m 2
 132 -7 100 25 100 63 c 2
 100 449 l 2
 100 765 369 1023 677 1023 c 0
 1042 1023 1300 767 1298 411 c 2
 1296 63 l 2
 1296 25 1264 -7 1226 -7 c 2
 170 -7 l 2
EndSplineSet
EndChar

StartChar: y1
Encoding: 3375 3375 82
Width: 1915
GlyphClass: 2
Flags: W
HStem: -28 142<552.449 835.181 1153.76 1424.72> 890 135<324.458 545.308 890.06 1138.59>
VStem: 100 141<422.703 802.094> 632 138<389.311 748.695> 1242 141<401.982 775.796> 1673 142<375.263 751.799>
LayerCount: 2
Fore
SplineSet
786 680 m 0
 775 645 770 608 770 571 c 0
 770 401 880 248 994 179 c 1
 1126 253 1242 404 1242 606 c 0
 1242 748 1160 888 1026 888 c 0
 895 888 823 800 786 680 c 0
447 890 m 0
 310 890 241 775 241 633 c 0
 241 349 464 114 749 114 c 0
 778 114 807 117 836 122 c 1
 709 235 632 371 632 613 c 0
 632 729 566 890 447 890 c 0
440 1025 m 4
 557 1025 658 950 712 853 c 1
 779 955 879 1028 1025 1028 c 0
 1238 1028 1383 834 1383 615 c 0
 1383 400 1289 234 1153 120 c 1
 1181 115 1208 113 1234 113 c 0
 1483 113 1673 323 1673 563 c 0
 1673 705 1602 830 1521 901 c 0
 1505 915 1497 932 1497 952 c 0
 1497 991 1528 1024 1566 1024 c 0
 1585 1024 1601 1018 1614 1006 c 0
 1718 914 1815 753 1815 575 c 0
 1815 235 1569 -28 1227 -28 c 0
 1148 -28 1070 -11 992 23 c 1
 908 -12 824 -28 745 -28 c 0
 395 -28 100 274 100 636 c 0
 100 847 221 1025 440 1025 c 4
EndSplineSet
EndChar

StartChar: r3
Encoding: 3376 3376 83
Width: 1453
GlyphClass: 2
Flags: W
HStem: -26 137<783.245 1070.84> -20 21G<383.5 412.5> 645 140<785.105 1064.34> 884 142<510.23 936.28>
VStem: 100 139<265.389 631.888> 520 140<233.731 522.773> 1194 159<238.055 516.91>
LayerCount: 2
Fore
SplineSet
926 111 m 0xbe
 1072 111 1194 232 1194 378 c 0
 1194 524 1072 645 926 645 c 0
 780 645 660 524 660 378 c 0
 660 232 780 111 926 111 c 0xbe
459 50 m 0
 459 15 435 -20 390 -20 c 0x7e
 377 -20 364 -17 353 -9 c 0
 218 76 100 239 100 444 c 0
 100 796 381 1026 725 1026 c 0
 1090 1026 1353 765 1353 437 c 0
 1353 193 1172 -26 916 -26 c 0
 683 -26 520 164 520 376 c 0
 520 576 690 785 918 785 c 0
 966 785 1016 775 1067 756 c 1
 973 841 863 884 732 884 c 0
 465 884 239 710 239 445 c 0
 239 293 327 172 427 109 c 0
 449 96 459 73 459 50 c 0
EndSplineSet
EndChar

StartChar: rh
Encoding: 3377 3377 84
Width: 1328
GlyphClass: 2
Flags: W
HStem: -22 138<414.431 557.204 763.578 914.074> 883 141<472.868 854.976>
VStem: 100 140<300.502 656.307> 1088 140<303.483 653.952>
LayerCount: 2
Fore
SplineSet
668 883 m 4
 436 883 240 709 240 479 c 0
 240 296 364 158 512 116 c 0
 539 108 563 80 563 46 c 0
 563 16 531 -22 503 -22 c 0
 468 -22 418 -3 352 34 c 0
 212 114 100 288 100 480 c 0
 100 783 348 1024 669 1024 c 4
 992 1024 1228 768 1228 485 c 0
 1228 228 1056 37 847 -19 c 0
 841 -21 831 -22 818 -22 c 0
 791 -22 758 14 758 41 c 0
 758 82 781 108 828 121 c 0
 971 158 1088 309 1088 481 c 0
 1088 704 893 883 668 883 c 4
EndSplineSet
EndChar

StartChar: l3
Encoding: 3378 3378 85
Width: 1647
GlyphClass: 2
Flags: W
HStem: -1 140<240 1407> 364 140<243 941> 883 139<423.426 758.288>
VStem: 100 140<139 364 504 677.722> 941 142<506.812 692.162> 1405 140<140 1018.71>
LayerCount: 2
Fore
SplineSet
590 883 m 4
 371 883 258 716 243 504 c 5
 941 505 l 5
 941 716.46875 800.576171875 883 590 883 c 4
170 -1 m 6
 132 -1 100 31 100 69 c 6
 100 387 l 6
 100 741.733398438 237.553710938 1022 585 1022 c 4
 868 1022 1083 813 1083 530 c 4
 1083 462 1076 365 1002 365 c 6
 240 364 l 5
 240 139 l 5
 1407 140 l 5
 1405 954 l 5
 1405 969 l 6
 1405 995 1445 1025 1475 1025 c 4
 1513 1025 1545 993 1545 955 c 6
 1545 954 l 5
 1547 71 l 6
 1547 33 1519 2 1477 0 c 5
 170 -1 l 6
EndSplineSet
EndChar

StartChar: lh
Encoding: 3379 3379 86
Width: 1273
GlyphClass: 2
Flags: W
HStem: -310 140<255.142 1158.05> 4 140<254.44 980.211> 220 140<292.437 489.306> 421 140<754.129 983.899> 617 140<294.709 485.12> 885 140<428.731 891.992>
VStem: 100 141<-152.082 -14.2949 410.773 575.401> 523 138<391.447 578.47> 1006 138<585.273 787.681> 1037 136<197.153 384.558>
LayerCount: 2
Fore
SplineSet
386 617 m 0xff
 318 617 254 572 254 492 c 0
 254 406 337 360 402 360 c 0
 464 360 523 420 523 484 c 0
 523 555 458 617 386 617 c 0xff
241 -85 m 0
 241 -147 291 -170 383 -170 c 2
 1092 -170 l 2
 1131 -170 1163 -201 1163 -240 c 0
 1163 -279 1131 -310 1092 -310 c 2
 384 -310 l 2
 214 -310 100 -235 100 -85 c 0
 100 78 230 144 398 144 c 2
 780 144 l 2
 928 144 1037 180 1037 289 c 0xff40
 1037 399.155840705 948.012372003 414.473033052 824 421 c 0
 782 423 749 449 749 490 c 0
 749 529 781 561 820 561 c 0
 936.472366497 561 1006 579.779491599 1006 674 c 0
 1006 818 845 885 694 885 c 0
 530 885 371 866 293 712 c 1
 334 751 369 757 390 757 c 0
 542 757 661 634 661 484 c 0
 661 333 545 220 393 220 c 0
 218 220 102 382 102 546 c 0
 102 857 381 1025 687 1025 c 0
 916 1025 1144 909 1144 681 c 0xff80
 1144 616 1097 526 1038 496 c 1
 1108 457 1173 379 1173 278 c 0xff40
 1173 72 989 4 780 4 c 2
 397 4 l 2
 301 4 241 -15 241 -85 c 0
EndSplineSet
EndChar

StartChar: zh
Encoding: 3380 3380 87
Width: 1269
GlyphClass: 2
Flags: W
HStem: -52 142<440.765 747.636> 280 140<435.951 663> 883 143<704.469 950.339> 1002 20G<265.5 292.5>
VStem: 100 143<577.684 862.762> 500 144<593.415 825.453> 792 142<134.44 288.315> 1028 141<554.614 810.069>
LayerCount: 2
Fore
SplineSet
663 420 m 5xdf
 596 484 500 581 500 714 c 4
 500 879 647 1026 825 1026 c 4xef
 1007 1026 1169 875 1169 684 c 4
 1169 508 1037 381 911 327 c 5
 923 298 934 257 934 220 c 4
 934 58 784 -52 605 -52 c 4
 485 -52 368 -3 283 80 c 4
 271 91 261 114 261 131 c 4
 261 170 292 201 331 201 c 4
 347 201 370 191 381 180 c 4
 441 121 526 90 608 90 c 4
 706 90 792 138 792 226 c 4
 792 251 784 271 775 289 c 5
 738 283 700 280 663 280 c 4
 411 280 100 414 100 722 c 4
 100 827 144 932 227 1004 c 4
 238 1014 258 1022 273 1022 c 4
 312 1022 343 991 343 952 c 4
 343 934 332 910 318 898 c 4
 268 854 243 789 243 723 c 4
 243 506 468 420 663 420 c 5xdf
1028 684 m 4
 1028 801 934 883 825 883 c 4
 723 883 644 810 644 713 c 4
 644 591 763 527 833 448 c 5
 928 482 1028 558 1028 684 c 4
EndSplineSet
EndChar

StartChar: v1
Encoding: 3381 3381 88
Width: 1719
GlyphClass: 2
Flags: W
HStem: -10 140<433.718 624.268 763.781 882.328 1053 1478> 876 148<457.318 845.072>
VStem: 100 141<322.471 674.335> 1050 141<313.942 682.317> 1479 140<134 1017.52>
LayerCount: 2
Fore
SplineSet
1479 962 m 2
 1479 996 1516 1024 1544 1024 c 0
 1579 1024 1619 997 1619 968 c 2
 1619 953 l 1
 1618 63 l 2
 1618 25 1586 -7 1548 -7 c 2
 826 -4 l 2
 788 -4 756 24 756 69 c 0
 756 96 781 123 802 131 c 0
 941 182 1050 314 1050 498 c 0
 1050 749 852 876 652 876 c 0
 448 876 241 745 241 499 c 0
 241 304 389 150 567 130 c 0
 601 126 630 95 630 58 c 0
 630 28 600 -10 573 -10 c 0
 304 -10 100 243 100 496 c 0
 100 799 352 1024 637 1024 c 0
 944 1024 1191 789 1191 483 c 0
 1191 351 1145 235 1053 135 c 1
 1478 134 l 1
 1479 953 l 1
 1479 962 l 2
EndSplineSet
EndChar

StartChar: z1
Encoding: 3382 3382 89
Width: 1909
GlyphClass: 2
Flags: W
HStem: -23 139<412.006 703.522 1322.97 1557.48> 890 139<1090.38 1414.36> 905 133<416.003 515.619>
VStem: 100 141<311.273 710.755> 808 140<234.152 735.335> 1093 142<204.536 543.692> 1671 139<243.346 617.314>
LayerCount: 2
Fore
SplineSet
1553 745 m 1x9e
 1384 711 1235 566 1235 364 c 0
 1235 233 1309 118 1438 118 c 0
 1589 118 1671 275 1671 418 c 0
 1671 542 1618 667 1553 745 c 1x9e
1810 406 m 0
 1810 182 1659 -24 1441 -24 c 0
 1237 -24 1093 151 1093 362 c 0
 1093 595 1248 775 1422 850 c 1
 1369 876 1313 890 1258 890 c 0xde
 1059 890 946 747 946 547 c 0
 946 490 948 427 948 404 c 0
 948 176 797 -23 558 -23 c 0
 282 -23 100 236 100 515 c 0
 100 770 250 944 416 1030 c 0
 426 1035 439 1038 455 1038 c 0
 487 1038 520 1005 520 973 c 0
 520 940 507 918 481 905 c 0xbe
 348 837 241 706 241 513 c 0
 241 317 363 116 555 116 c 0
 750 116 808 263 808 473 c 0
 808 801 936 1029 1245 1029 c 0xde
 1584 1029 1810 737 1810 406 c 0
EndSplineSet
EndChar

StartChar: sh
Encoding: 3383 3383 90
Width: 1928
GlyphClass: 2
Flags: W
HStem: -2 140<290.1 391.518 469.977 574.088 715 1231 1371 1688> 372 140<1001.06 1233> 498 140<309.755 553.805> 886 141<962.219 1198.59>
VStem: 100 140<185.414 427.989> 622 141<186.102 427.254> 760 141<600.973 827.568> 1231 140<138 376 561 854.583> 1688 140<138 635 821.094 1021.88>
LayerCount: 2
Fore
SplineSet
1688 635 m 1x9980
 1605 529 1500 454 1373 409 c 1
 1371 138 l 1
 1688 138 l 1
 1688 635 l 1x9980
1084 886 m 4
 986 886 901 815 901 721 c 0
 901 590 1027 512 1166 512 c 0xdb80
 1188 512 1210 513 1234 517 c 1
 1235 703 l 2
 1235 829 1194 886 1084 886 c 4
432 498 m 0xbd80
 326 498 240 410 240 308 c 0
 240 230 292 159 346 136 c 0
 381 121 398 101 398 76 c 0
 398 35 372 -2 335 -2 c 0
 320 -2 309 0 300 4 c 0
 194 49 100 161 100 304 c 0
 100 493 246 638 433 638 c 0
 616 638 763 483 763 307 c 0xbd80
 763 251 748 194 715 138 c 1
 1231 138 l 1
 1233 376 l 1
 1209 373 1187 372 1165 372 c 0
 949 372 760 510 760 718 c 0xdb80
 760 898 908 1027 1082 1027 c 4
 1278 1027 1375 892 1375 702 c 1
 1374 561 l 1
 1514 626 1653 766 1683 934 c 0
 1692 983 1705 1027 1751 1027 c 0
 1799 1027 1828 999 1828 957 c 2
 1828 68 l 2
 1828 30 1796 -2 1758 -2 c 2
 534 -2 l 2
 497 -2 465 27 465 68 c 0
 465 99 486 124 506 132 c 0
 567 158 622 223 622 306 c 0
 622 414 538 498 432 498 c 0xbd80
EndSplineSet
EndChar

StartChar: s1
Encoding: 3384 3384 91
Width: 2478
GlyphClass: 2
Flags: W
HStem: -23 142<451.191 772.082 1732.67 2052.17> 885 140<436.555 770.283 1159.86 1387.64 1793.45 2017.31>
VStem: 100 141<329.796 682.269> 928 140<-23.0613 41 42 718.91> 1459 145<265.58 806.48> 2236 142<314.623 672.554>
LayerCount: 2
Fore
SplineSet
987 823 m 1
 1039 927 1138 1025 1280 1025 c 0
 1516 1025 1604 808 1604 571 c 0
 1604 540 1604 509 1604 480 c 0
 1604 269 1690 119 1890 119 c 0
 2104 119 2236 314 2236 498 c 0
 2236 724 2048 876 1856 885 c 0
 1819 886 1788 918 1788 955 c 0
 1788 994 1819 1025 1858 1025 c 0
 2125.88664927 1025 2378 797.349461464 2378 492 c 0
 2378 240 2185 -23 1886 -23 c 0
 1628 -23 1459 196 1459 468 c 0
 1459 522 1463 574 1463 622 c 0
 1463 751 1407 885 1280 885 c 0
 1097 885 1072 686 1072 500 c 2
 1069 42 l 2
 1068 41 l 2
 1067 3 1036 -28 998 -28 c 0
 960 -28 928 4 928 42 c 2
 928 512 l 2
 928 733.183161466 811.37890625 884 603 884 c 0
 382 884 241 695 241 506 c 0
 241 274 441 113 641 113 c 0
 663 113 685 119 707 119 c 0
 746 119 777 88 777 49 c 0
 777 -18 706 -27 638 -27 c 0
 364 -27 100 192 100 512 c 0
 100 772 302 1026 610 1026 c 0
 764 1026 909 952 987 823 c 1
EndSplineSet
EndChar

StartChar: h1
Encoding: 3385 3385 92
Width: 2151
GlyphClass: 2
Flags: W
HStem: -8 136<312.691 426.061 512.955 604.604 759 1174 1358.51 1506.08 1630.97 1748.89> 550 145<325.101 592.869> 880 140<1360.97 1711.14>
VStem: 98 142<205.158 463.986> 677 140<202.393 464.589> 1027 139<323.568 680.291> 1911 140<306.897 668.883>
LayerCount: 2
Fore
SplineSet
1911 467 m 4
 1911 700 1761 880 1540 880 c 4
 1328 880 1166 716 1166 501 c 4
 1166 313 1299 169 1458 135 c 4
 1487 129 1513 99 1513 64 c 4
 1513 28 1480 -3 1443 -3 c 6
 574 0 l 6
 538 0 505 31 505 65 c 4
 505 99 519 122 546 134 c 4
 616 165 677 237 677 332 c 4
 677 457.811267902 582.90485455 550 459 550 c 4
 336 550 240 457 240 332 c 4
 240 233 310 154 384 128 c 4
 407 120 431 93 431 63 c 4
 431 20 399 -8 361 -8 c 4
 352 -8 344 -7 336 -4 c 4
 210.779226438 41.9142836394 98 163.247232807 98 331 c 4
 98 529.828779728 255.4498169 695 455 695 c 4
 662.032442778 695 817 532.997343202 817 330 c 4
 817 262 798 199 759 139 c 5
 1174 138 l 5
 1077 237 1027 344 1027 510 c 4
 1027 799 1253 1020 1541 1020 c 4
 1827.12824261 1020 2051 781.461360205 2051 490 c 4
 2051 242 1906 81 1724 -2 c 4
 1715 -6 1704 -8 1689 -8 c 4
 1659 -8 1626 27 1626 58 c 4
 1626 91 1647 118 1671 127 c 4
 1792 177 1911 309 1911 467 c 4
EndSplineSet
EndChar

StartChar: avagraha
Encoding: 3389 3389 93
Width: 1438
GlyphClass: 2
Flags: W
HStem: -467 142<245.52 484.992> -40 20G<98 147> 513 140<394.192 669 831 1099.81> 1010 21G<1346.5 1392.5> 1296 139<998.42 1235.47>
VStem: 50 148<-274.625 -29.6488> 1300 138<1015.04 1229.29>
LayerCount: 2
Fore
SplineSet
198 -80 m 0
 198 -110 190 -130 190 -157 c 0
 190 -254 270 -325 363 -325 c 0
 533 -325 566 -163 591 1 c 2
 669 513 l 1
 444 513 l 2
 418 513 388 553 388 583 c 0
 388 613 417 653 444 653 c 2
 690 653 l 1
 736 960 l 2
 773 1200 863 1435 1115 1435 c 0
 1299 1435 1438 1300 1438 1117 c 0
 1438 1052 1425 1010 1360 1010 c 0
 1333 1010 1296 1043 1296 1068 c 0
 1296 1082 1300 1106 1300 1125 c 0
 1300 1217 1211 1296 1125 1296 c 0
 946 1296 901 1122 874 939 c 2
 831 653 l 1
 1050 653 l 2
 1076 653 1106 613 1106 583 c 0
 1106 553 1077 513 1050 513 c 2
 810 513 l 1
 730 -20 l 2
 693 -263 610 -467 360 -467 c 0
 189 -467 50 -324 50 -154 c 0
 50 -90 64 -20 132 -20 c 0
 162 -20 198 -51 198 -80 c 0
EndSplineSet
EndChar

StartChar: a2
Encoding: 3390 3390 94
Width: 1000
GlyphClass: 2
Flags: W
HStem: -15 140<328.651 602.128> 884 140<344.326 605.278>
VStem: 100 140<216.361 391.255 616.169 770.659> 761 140<306.442 707.669>
LayerCount: 2
Fore
SplineSet
460 125 m 0
 646 125 761 311 761 502 c 0
 761 697 651 884 461 884 c 0
 350 884 259 775 249 670 c 0
 246 635 216 606 178 606 c 0
 148 606 109 636 109 663 c 0
 109 866 284 1024 474 1024 c 0
 742 1024 901 766 901 503 c 0
 901 229 722 -15 461 -15 c 0
 265 -15 100 140 100 340 c 0
 100 365 137 397 164 397 c 0
 209 397 238 368 240 331 c 0
 248 217 340 125 460 125 c 0
EndSplineSet
EndChar

StartChar: i1
Encoding: 3391 3391 95
Width: 340
GlyphClass: 2
Flags: W
HStem: -24 21G<151 189> 1271 141<-300.998 -15.923>
VStem: -527 133<1066.2 1181.66> 100 140<-19.0613 1134.73>
LayerCount: 2
Fore
SplineSet
-157 1412 m 0
 128 1412 238 1174 238 896 c 2
 240 46 l 2
 240 8 208 -24 170 -24 c 0
 132 -24 100 8 100 46 c 2
 98 895 l 2
 98 1104 41 1271 -161 1271 c 0
 -275 1271 -362 1196 -394 1109 c 0
 -403 1078 -432 1062 -468 1062 c 0
 -495 1062 -527 1097 -527 1124 c 0
 -527 1288.67578125 -324.533032951 1412 -157 1412 c 0
EndSplineSet
EndChar

StartChar: i2
Encoding: 3392 3392 96
Width: 398
GlyphClass: 2
Flags: W
HStem: -19 21G<207.5 242.5> 1015 104<-264.311 -99.0078> 1292 129<-264.154 33.044>
VStem: -379 102<1134.25 1275.26> -88 95<1131.03 1272.24> 155 140<-14.6875 1201.28>
LayerCount: 2
Fore
SplineSet
-172 1292 m 4
 -223 1292 -277 1262 -277 1201 c 4
 -277 1156 -225 1119 -180 1119 c 4
 -132 1119 -88 1152 -88 1202 c 4
 -88 1255 -120 1292 -172 1292 c 4
7 1207 m 4
 7 1098 -96 1015 -193 1015 c 4
 -292 1015 -379 1103 -379 1200 c 4
 -379 1346 -247 1421 -101 1421 c 4
 164 1421 298 1273 298 1003 c 6
 295 49 l 6
 295 4 260 -19 225 -19 c 4
 190 -19 155 4 155 50 c 6
 158 1003 l 6
 158 1158 124 1239 -2 1273 c 5
 4 1251 7 1227 7 1207 c 4
EndSplineSet
EndChar

StartChar: u1
Encoding: 3393 3393 97
Width: 794
GlyphClass: 2
Flags: W
HStem: -551.911 139.816<290.822 508.348> 888 138<199.281 345.669>
VStem: 100.863 139.975<-361.989 -137.349> 464.394 138.66<349.693 756.53> 554.313 140.459<-366.813 -147.425>
LayerCount: 2
Fore
SplineSet
240.837502139 -253.011591198 m 4xe8
 240.837502139 -339.068582554 309.426997733 -412.095369806 396.188692158 -412.095369806 c 4
 486.071969374 -412.095369806 554.312581643 -348.443999861 554.312581643 -255.379969939 c 4
 554.312581643 -166.748196354 473.018092635 -91.2489028272 391.810200485 -91.2489028272 c 4
 301.475139098 -91.2489028272 240.837502139 -168.832726299 240.837502139 -253.011591198 c 4xe8
398.568404578 -551.911021356 m 4
 226.167670285 -551.911021356 100.862756903 -413.246758155 100.862756903 -255.88643581 c 4
 100.862756903 -137.048023462 174.892911676 -37.7312213699 262 8 c 5
 334.208452378 140.929196422 464.393939493 389.134548254 464.393939493 577.26450733 c 4
 464.393939493 741.970277208 378.628248818 863.344542842 251 888 c 4
 220 894 194 923 194 959 c 4
 194 989 225 1026 253 1026 c 4
 461.86649111 1026 603.05361707 798.514283897 603.05361707 587.291240477 c 4xf0
 603.05361707 441.701661973 546.530883866 260.075812539 436 38 c 5
 577.414376534 19.3005783096 694.771699292 -96.8717834871 694.771699292 -257.19134918 c 4
 694.771699292 -425.656744203 563.51812896 -551.911021356 398.568404578 -551.911021356 c 4
EndSplineSet
EndChar

StartChar: u2
Encoding: 3394 3394 98
Width: 974
GlyphClass: 2
Flags: W
HStem: -922.099 140.607<288.251 646.359> -605.968 138.662<303.06 534.981> -113.625 180.456<371.694 535.554> 883 142<198.788 358.251>
VStem: 101.582 137.054<-404.947 -184.078> 464.017 140.023<353.41 757.098> 597.443 140.057<-407.731 -174.925> 833.845 140.292<-591.034 -248.666>
LayerCount: 2
Fore
SplineSet
597.443280245 -293.549465122 m 4xfb
 597.443280245 -191.18412694 514.119083194 -113.625163218 418.775919097 -113.625163218 c 4
 324.61153032 -113.625163218 238.635612451 -206.27425167 238.635612451 -298.997894901 c 4
 238.635612451 -394.592271291 329.73690605 -467.30602349 419.032392368 -467.30602349 c 4
 513.118107071 -467.30602349 597.443280245 -391.3021044 597.443280245 -293.549465122 c 4xfb
414.825499431 -605.967939074 m 4
 234.733530241 -605.967939074 101.581766903 -459.554451339 101.581766903 -287.598331976 c 4
 101.581766903 -170.991674483 166.982653671 -66.7327569803 259 -13 c 5
 325.451581665 136.012637674 464.017086877 394.517336284 464.017086877 551.608008051 c 4
 464.017086877 714.91978699 399.476112147 858.46738664 267 883 c 4
 218 893 193 917 193 955 c 4
 193 988 223 1025 253 1025 c 4
 477.164381461 1025 604.040360409 787.689860499 604.040360409 552.268900018 c 4xfd
 604.040360409 416.88792195 517.425774877 214.993924732 447 62 c 5
 469.257828412 65.2572431822 491.235507469 66.8310944788 512.84248697 66.8310944788 c 4
 769.678344762 66.8310944788 974.136642883 -155.544381413 974.136642883 -416.31988766 c 4
 974.136642883 -694.118008075 757.703673093 -922.098935626 464.399556305 -922.098935626 c 4
 357.627592017 -922.098935626 261.102812745 -890.790884255 174 -829 c 4
 153.586238902 -814.524787585 144.60649311 -793.161614143 144.60649311 -772.017635139 c 4
 144.60649311 -736.19421653 170.383035439 -701 210 -701 c 4
 227 -701 249 -710 275 -729 c 4
 314.484453454 -757.428806487 395.750698238 -781.492351193 473.985140697 -781.492351193 c 4
 679.090290183 -781.492351193 833.84465948 -624.074012213 833.84465948 -414.426676311 c 4
 833.84465948 -289.093359794 766.244035918 -190.951321585 697 -138 c 5
 724 -187.5 737.5 -237.75 737.5 -288.75 c 4
 737.5 -469.789962056 592.048320419 -605.967939074 414.825499431 -605.967939074 c 4
EndSplineSet
EndChar

StartChar: r1
Encoding: 3395 3395 99
Width: 392
GlyphClass: 2
Flags: W
HStem: -561.91 129.277<-511.559 -188.808> -211.956 129.752<-528.826 -176.763> 979 20G<58.2602 87.5>
VStem: -681.862 131.545<-391.356 -238.778> 3.17578 124.824<869.295 993.885> 163.363 129.683<-31.6578 618.506>
LayerCount: 2
Fore
SplineSet
-550.316608434 -308.198909902 m 4
 -550.316608434 -397.251748029 -449.848146273 -432.633191362 -367.115801381 -432.633191362 c 4
 -254.194968233 -432.633191362 -135.33778453 -373.898108745 -64 -313 c 5
 -172.78644009 -245.898083683 -280.618231721 -211.955933107 -395.681414691 -211.955933107 c 4
 -467.952821166 -211.955933107 -550.316608434 -237.586810397 -550.316608434 -308.198909902 c 4
25 -216 m 5
 121.060895545 -84.7167760891 163.362903226 75.5262072589 163.362903226 287.555078 c 4
 163.362903226 496.567955833 112.908602151 702.182795699 12 904 c 4
 5.86467052902 916.059095857 3.17577936273 927.267771872 3.17577936273 937.446110601 c 4
 3.17577936273 975.377954793 40.5203388343 999 76 999 c 4
 99 999 116 987 128 962 c 4
 237.899415635 742.9338315 293.045768212 519.036510377 293.045768212 290.308036632 c 4
 293.045768212 -154.839204792 76.7640195157 -561.910140798 -365.569914233 -561.910140798 c 4
 -529.901957546 -561.910140798 -681.861565564 -473.849638836 -681.861565564 -312.434532514 c 4
 -681.861565564 -161.503196121 -542.341352715 -82.2039662366 -394.602668341 -82.2039662366 c 4
 -226.59908448 -82.2039662366 -88.0192584503 -141.107720304 25 -216 c 5
EndSplineSet
EndChar

StartChar: e1
Encoding: 3398 3398 100
Width: 1395
GlyphClass: 2
Flags: W
HStem: -17 141<358.237 620.857> 552 143<352.505 618.189> 883 140<501.632 882.265>
VStem: 100 163<229.521 455.371> 706 141<208.198 465.256> 1154 141<223.375 624.901>
LayerCount: 2
Fore
SplineSet
100 432 m 0
 100 782 388 1023 697 1023 c 0
 1007 1023 1295 779 1295 425 c 0
 1295 268 1235 112 1120 0 c 0
 1109 -11 1086 -21 1070 -21 c 0
 1031 -21 1000 10 1000 49 c 0
 1000 66 1010 89 1022 100 c 0
 1109 185 1154 305 1154 425 c 0
 1154 702 928 883 691 883 c 0
 522 883 367 781 291 637 c 1
 345 671 417 695 485 695 c 0
 668 695 847 546 847 336 c 0
 847 151 695 -17 496 -17 c 0
 249 -17 100 217 100 432 c 0
706 339 m 0
 706 466 598 552 485 552 c 0
 354 552 263 443 263 327 c 0
 263 216 384 124 492 124 c 0
 617 124 706 219 706 339 c 0
EndSplineSet
EndChar

StartChar: e2
Encoding: 3399 3399 101
Width: 1022
GlyphClass: 2
Flags: W
HStem: -22 149<514.4 781.932> 341 128<612.059 780.032> 535 119<598.227 774.11> 875 151<489.539 764.94>
VStem: 100 142<329.866 683.805> 470 119<148.243 319.215 670.212 860.584> 803 119<148.108 319.875 681.263 847.627>
LayerCount: 2
Fore
SplineSet
578 1026 m 0
 751 1026 908 925 908 751 c 0
 908 631 810 535 686 535 c 0
 560 535 465 635 465 759 c 0
 465 815 481 860 513 895 c 1
 366 852 242 671 242 513 c 0
 242 322 376 170 523 108 c 1
 486 162 470 213 470 259 c 0
 470 356 566 469 691 469 c 0
 825 469 922 362 922 236 c 0
 922 79 783 -22 624 -22 c 0
 331 -22 100 230 100 526 c 0
 100 793 310 1026 578 1026 c 0
696 127 m 0
 755 127 803 176 803 234 c 0
 803 292 755 341 696 341 c 0
 637 341 589 292 589 234 c 0
 589 176 637 127 696 127 c 0
687 654 m 0
 748 654 797 704 797 764 c 0
 797 824 748 875 687 875 c 0
 626 875 576 824 576 764 c 0
 576 704 626 654 687 654 c 0
EndSplineSet
EndChar

StartChar: xx
Encoding: 3405 3405 106
Width: 142
GlyphClass: 4
Flags: W
HStem: 974 141<-108.509 123.191>
VStem: -311 141<1181.95 1419.86> 191 141<1180.22 1416.12>
LayerCount: 2
Fore
SplineSet
191 1295 m 0
 191 1320 184 1336 184 1365 c 0
 184 1394 221 1425 252 1425 c 0
 313 1425 332 1367 332 1304 c 0
 332 1115 193 974 7 974 c 0
 -180 974 -311 1129 -311 1295 c 0
 -311 1360 -298 1429 -230 1429 c 0
 -200 1429 -163 1396 -163 1368 c 0
 -163 1341 -170 1321 -170 1294 c 0
 -170 1191 -86 1115 7 1115 c 0
 111 1115 191 1200 191 1295 c 0
EndSplineSet
EndChar

StartChar: dotreph
Encoding: 3406 3406 107
Width: 0
GlyphClass: 4
Flags: W
HStem: 1120.98 280.582<40.8995 255.653>
VStem: 0 298<1162.34 1360.7>
LayerCount: 2
Fore
SplineSet
147.481445312 1120.97753906 m 0
 66.5126953125 1120.97753906 0 1184.33496094 0 1261.77148438 c 0
 0 1339.20800781 66.5126953125 1401.55957031 147.481445312 1401.55957031 c 0
 228.44921875 1401.55957031 298 1339.20800781 298 1261.77148438 c 0
 298 1184.33496094 228.44921875 1120.97753906 147.481445312 1120.97753906 c 0
EndSplineSet
EndChar

StartChar: au2
Encoding: 3415 3415 108
Width: 1556
GlyphClass: 2
Flags: W
HStem: -26 141<499.13 994.83> 883 141<329.574 582.908 922.853 1181.77>
VStem: 100 140<498.744 788.886> 675 139<530.976 766.438> 1316 140<393.624 739.43>
LayerCount: 2
Fore
SplineSet
675 645 m 0
 673 772 589 883 456 883 c 0
 332 883 240 774 240 651 c 0
 240 616 249 583 267 549 c 0
 273 538 276 526 276 515 c 0
 276 478 247 444 208 444 c 0
 177 444 155 461 144 483 c 0
 114 538 100 594 100 651 c 0
 100 852 251 1024 456 1024 c 0
 593 1024 711 947 750 847 c 1
 797 945 918 1022 1060 1022 c 0
 1285 1022 1456 801 1456 572 c 0
 1456 204 1113 -26 744 -26 c 0
 631 -26 517 -3 415 43 c 0
 393 52 372 77 372 107 c 0
 372 146 403 178 442 178 c 0
 452 178 462 176 472 171 c 0
 555 134 651 115 746 115 c 0
 1036 115 1316 288 1316 574 c 0
 1316 732 1209 879 1054 879 c 0
 893 879 817 753 814 581 c 1
 808 548 776 526 744 526 c 0
 704 526 675 561 675 599 c 0
 675 611 675 625 675 645 c 0
EndSplineSet
EndChar

StartChar: datemark
Encoding: 3449 3449 109
Width: 2321
GlyphClass: 2
Flags: W
HStem: -6 21G<968 1008.5> 12 136<408.429 779.557> 509 140<1464.44 1765 1957 2216.69>
VStem: 922 140<-0.528553 678> 1815 142<261.688 512>
LayerCount: 2
Fore
SplineSet
1815 514 m 1x38
 1712 516 1639 514 1598 508 c 0
 1468 489 1396 435 1382 346 c 0
 1372 281 1394 226 1448 182 c 0
 1502 138 1567 128 1640 154 c 0
 1759 195 1844 341 1815 514 c 1x38
984 -6 m 0xb8
 952 -6 922 29 922 63 c 2
 924 433 l 2
 925 573 917 647 861 729 c 0
 783 843 626 895 468 832 c 0
 369 792 295 716 260 613 c 0
 200 435 288 274 396 199 c 0
 469 149 581 118 695 148 c 0
 739 163 784 123 784 87 c 0
 784 46 766 21 731 12 c 0x78
 475 -56 265 81 170 241 c 0
 101 357 75 506 126 658 c 0
 174 800 277 902 410 960 c 0
 478 989 548 1002 623 998 c 0
 795 989 920 914 999 772 c 1
 999 773 999 773 1000 774 c 0
 1061 883 1166 953 1313 986 c 0
 1497 1027 1665 954 1769 867 c 0
 1836 811 1887 740 1922 653 c 1
 2152 649 l 2
 2188 649 2222 618 2222 584 c 0
 2222 538 2192 509 2152 509 c 0
 2151 509 2151 509 2150 509 c 2
 1957 512 l 1
 1986 261 1849 79 1685 22 c 0
 1487 -47 1317 65 1262 207 c 0
 1218 320 1247 440 1308 513 c 0
 1404 625 1549 659 1765 655 c 1
 1708 754 1624 817 1511 844 c 0
 1449 859 1392 861 1340 849 c 0
 1189 815 1101 725 1075 579 c 0
 1069 546 1066 498 1065 433 c 2
 1062 63 l 1
 1062 62 l 2
 1061 21 1033 -6 984 -6 c 0xb8
EndSplineSet
EndChar

StartChar: ZWNJ
Encoding: 8204 8204 110
Width: 321
GlyphClass: 2
Flags: W
VStem: 66 159<3 992>
LayerCount: 2
Fore
SplineSet
66 992 m 1
 225 992 l 1
 225 3 l 1
 66 3 l 1
 66 992 l 1
EndSplineSet
EndChar

StartChar: ZWJ
Encoding: 8205 8205 111
Width: 321
GlyphClass: 2
Flags: W
VStem: 70 154<4 879>
LayerCount: 2
Fore
SplineSet
70 879 m 1
 224 879 l 1
 224 4 l 1
 70 4 l 1
 70 879 l 1
148 1003 m 1
 14 795 l 1
 -90 795 l 1
 96 1067 l 1
 -76 1315 l 1
 33 1315 l 1
 111 1194 l 2
 117 1185 128 1165 145 1135 c 1
 270 1315 l 1
 377 1315 l 1
 199 1071 l 1
 387 795 l 1
 283 795 l 1
 148 1003 l 1
EndSplineSet
EndChar

StartChar: rupee
Encoding: 8377 8377 112
Width: 1165
GlyphClass: 2
Flags: HW
HStem: 805 130<144.583 650.349 839.349 1159.85> 1180 130<135.394 649.304 785.349 1150.73>
VStem: 707.349 132<937 1123.7>
LayerCount: 2
Fore
SplineSet
783.663085938 816.7109375 m 5
 734.662109375 637.90625 596.640625 502.0078125 440.133789062 432.669921875 c 5
 979.456054688 109.57421875 l 6
 998.720703125 98.408203125 1014.35546875 71.2734375 1014.35546875 49.0068359375 c 4
 1014.35546875 10.36328125 982.9921875 -21 944.348632812 -21 c 4
 933.358398438 -21 916.854492188 -16.306640625 907.508789062 -10.5234375 c 6
 231.551757812 394.427734375 l 6
 212.77734375 405.682617188 197.5390625 432.583007812 197.5390625 454.47265625 c 4
 197.5390625 487.771484375 224.267578125 518.790039062 257.200195312 523.7109375 c 4
 422.422851562 548.3515625 576.53125 663.877929688 636.383789062 817.2734375 c 5
 178.481445312 819.01953125 l 6
 178.291992188 819.017578125 177.984375 819.016601562 177.794921875 819.016601562 c 4
 139.151367188 819.016601562 107.788085938 850.379882812 107.788085938 889.0234375 c 4
 107.788085938 927.666992188 139.151367188 959.030273438 177.794921875 959.030273438 c 4
 178.131835938 959.030273438 178.677734375 959.025390625 179.014648438 959.01953125 c 6
 659.844726562 957.18359375 l 5
 652.0078125 1078.53710938 569.451171875 1175.03613281 455.473632812 1188.64257812 c 4
 453.0390625 1188.92285156 449.1328125 1189.62402344 446.752929688 1190.20898438 c 6
 170.692382812 1191.26367188 l 6
 170.502929688 1191.26171875 170.196289062 1191.26074219 170.006835938 1191.26074219 c 4
 131.36328125 1191.26074219 100 1222.62402344 100 1261.26757812 c 4
 100 1299.91113281 131.36328125 1331.27441406 170.006835938 1331.27441406 c 4
 170.34375 1331.27441406 170.890625 1331.26953125 171.227539062 1331.26367188 c 6
 987.235351562 1328.1484375 l 6
 987.424804688 1328.15039062 987.732421875 1328.15234375 987.920898438 1328.15234375 c 4
 1026.56542969 1328.15234375 1057.92773438 1296.7890625 1057.92773438 1258.14453125 c 4
 1057.92773438 1219.50097656 1026.56542969 1188.13769531 987.920898438 1188.13769531 c 4
 987.583984375 1188.13769531 987.037109375 1188.14257812 986.700195312 1188.1484375 c 6
 717.690429688 1189.17578125 l 5
 770.3125 1121.79882812 796.963867188 1039.39257812 800.194335938 956.6484375 c 5
 995.022460938 955.904296875 l 6
 995.231445312 955.90625 995.569335938 955.908203125 995.77734375 955.908203125 c 4
 1034.421875 955.908203125 1065.78417969 924.544921875 1065.78417969 885.901367188 c 4
 1065.78417969 847.2578125 1034.421875 815.89453125 995.77734375 815.89453125 c 4
 995.421875 815.89453125 994.84375 815.899414062 994.487304688 815.90625 c 6
 783.663085938 816.7109375 l 5
EndSplineSet
EndChar

StartChar: uni25CC
Encoding: 9676 9676 113
Width: 1131
GlyphClass: 2
Flags: W
HStem: 4 124<469.212 666.788> 426 183<972 1058.02> 897 120<467.611 566.915 571.551 668.389> 907 126<466.448 668.76>
VStem: 30 128<425.577 609.423> 470 196<51.984 138 897 983.016> 981 131<425.042 609.958>
LayerCount: 2
Fore
SplineSet
212 325 m 5xce
 278 224 259 248 348 192 c 5
 270 91 l 5
 162.134996017 159.962871399 160.541002738 168.45047682 104 250 c 5
 212 325 l 5xce
686 18 m 5
 655 9 617 4 571 4 c 4
 525 4 485 9 450 18 c 5
 470 138 l 5
 513 131 546 128 568 128 c 4
 590 128 623 131 666 138 c 5
 686 18 l 5
170 426 m 5
 42 405 l 5
 34 442 30 480 30 517 c 4
 30 554 34 592 42 630 c 5
 170 609 l 5
 162 587 158 557 158 518 c 4
 158 479 162 448 170 426 c 5
348 843 m 5
 252.164414757 789.948158169 256.03304734 777.150397194 212 710 c 5
 104 784 l 5
 176.504343641 889.649186448 163.280381483 875.076913041 270 944 c 5
 348 843 l 5
1038 250 m 5
 954.639003721 136.714543519 987.078508812 162.447105287 868 91 c 5
 794 192 l 5
 866.568602988 235.843530972 906.658186454 272.480919522 930 325 c 5
 1038 250 l 5
1098 630 m 5
 1107 592 1112 555 1112 518 c 4
 1112 481 1107 443 1098 405 c 5
 972 426 l 5
 978 466 981 495 981 514 c 4
 981 533 978 565 972 609 c 5
 1098 630 l 5
686 1017 m 5xee
 666 897 l 5xee
 623 904 591 907 568 907 c 4xde
 545 907 513 904 470 897 c 5
 450 1017 l 5xee
 497 1028 537 1033 570 1033 c 4xde
 603 1033 641 1028 686 1017 c 5xee
930 710 m 5
 887 781 842 826 794 843 c 5
 868 944 l 5
 954.952619981 886.578458503 995.335961563 853.813881079 1038 784 c 5
 930 710 l 5
EndSplineSet
EndChar

StartChar: r4
Encoding: 65539 -1 114
Width: 615
GlyphClass: 2
LigCaretCntFixed: 1
Flags: W
HStem: -296 130<305.695 510.879>
LayerCount: 2
Fore
SplineSet
453 -166 m 0
 504 -168 540 -236 495 -278 c 0
 482 -290 466 -297 448 -296 c 0
 290 -290 186 -228 135 -110 c 0
 94 -15 89 135 118 342 c 0
 129 424 151 544 182 700 c 0
 213 856 230 944 234 966 c 0
 241 1002 270 1033 312 1025 c 0
 346 1019 370 985 362 942 c 0
 301 635 262 429 247 324 c 0
 222 141 224 14 254 -56 c 0
 284 -126 350 -163 453 -166 c 0
EndSplineSet
LCarets2: 1 0
EndChar

StartChar: y2
Encoding: 65540 -1 115
Width: 598
GlyphClass: 2
LigCaretCntFixed: 1
Flags: W
HStem: -588 142<106.229 363.859> 1005 20G<178.5 210>
VStem: -110 140<-371.57 -131.752> 89 141<519.951 967.798> 458 142<-350.474 -18.9282>
LayerCount: 2
Fore
SplineSet
232 -446 m 0
 361 -446 458 -342 458 -215 c 0
 458 120 89 362 89 731 c 0
 89 812 101 894 125 975 c 0
 133 1005 163 1025 194 1025 c 0
 226 1025 262 996 262 965 c 0
 262 952 261 942 259 935 c 0
 240 862 230 791 230 722 c 0
 230 330 600 134 600 -213 c 0
 600 -414 443 -588 235 -588 c 0
 46 -588 -110 -444 -110 -253 c 0
 -110 -117 -43 -24 50 33 c 0
 62 41 76 44 88 44 c 0
 126 44 158 12 158 -31 c 0
 158 -54 147 -72 125 -85 c 0
 72 -117 30 -181 30 -252 c 0
 30 -361 120 -446 232 -446 c 0
EndSplineSet
LCarets2: 1 3
EndChar

StartChar: v2
Encoding: 65543 -1 118
Width: 437
GlyphClass: 3
LigCaretCntFixed: 1
Flags: W
HStem: -310 140<-296.701 198> 1005 20G<249 283>
VStem: 194 140<-170 1018.71>
LayerCount: 2
Fore
SplineSet
-303 -246 m 0
 -303 -211 -277 -170 -247 -170 c 0
 -25 -170 -24 -170 198 -170 c 1
 194 954 l 1
 194 969 l 2
 194 995 234 1025 264 1025 c 0
 302 1025 334 993 334 955 c 2
 334 954 l 1
 338 -240 l 2
 338 -277 311 -310 268 -310 c 0
 13 -310 13 -310 -242 -310 c 0
 -275 -310 -303 -273 -303 -246 c 0
EndSplineSet
LCarets2: 1 0
EndChar

StartChar: k1cil
Encoding: 3455 3455 119
Width: 1964
GlyphClass: 3
Flags: W
HStem: -15 140<294.828 526.167 836.847 1140.87 1463.32 1680.84> 512 140<369.892 562 723 1255 1498 1605.39> 887 140<859.679 1122.35>
VStem: 100 140<182.456 408.862> 562 140<284.986 510> 578 145<652 743.747> 1277 166<334.442 512> 1465 140<836.987 1225.74> 1726 138<169.577 404.112>
LayerCount: 2
Fore
SplineSet
240 291 m 0xfb80
 240 202 315 125 401 125 c 0
 507 125 586 198 586 299 c 0
 586 303 586 308 586 312 c 0
 570 370 562 431 562 495 c 0
 562 500 562 505 562 510 c 1
 387 503 240 435 240 291 c 0xfb80
1570 116 m 0
 1645 116 1726 186 1726 282 c 0
 1726 425 1596 501 1443 512 c 1
 1443 511 1443 510 1442 508 c 0
 1418 442 1407 384 1407 332 c 0
 1407 227 1471 116 1570 116 c 0
1277 514 m 1
 702 512 l 1
 702 506 702 500 702 494 c 0
 702 303 799 117 989 117 c 0
 1177 117 1277 307 1277 495 c 0
 1277 501 1277 508 1277 514 c 1
1255 654 m 1
 1217 776 1119 887 990 887 c 0
 859 887 760 775 723 652 c 1xf780
 1255 654 l 1
1334 1352 m 0
 1334 1393 1365 1425 1395 1425 c 0
 1420 1425 1439 1419 1453 1406 c 0
 1555 1312 1605 1196 1605 1057 c 0
 1605 925.704955863 1537.82869798 759.466638287 1498 647 c 5
 1685 626 1864 495 1864 284 c 0
 1864 129 1743 -24 1580 -24 c 0
 1447 -24 1362 49 1310 147 c 1
 1245 61 1134 -21 989 -21 c 0
 849 -21 742 56 679 133 c 1
 629 52 538 -15 415 -15 c 0
 249 -15 100 116 100 279 c 0
 100 538 312 645 578 651 c 1
 624 855 784 1027 989 1027 c 0
 1192 1027 1320 883 1378 728 c 1
 1421 830 1465 940 1465 1052 c 0
 1465 1154 1429 1237 1358 1303 c 0
 1342 1317 1334 1334 1334 1352 c 0
EndSplineSet
LCarets2: 2 0 0
EndChar

StartChar: nhcil
Encoding: 3450 3450 120
Width: 2758
GlyphClass: 2
Flags: W
HStem: -22 141<374.609 607.404 2190.08 2425.72> 465 138<378.316 600.703> 888 142<453.238 823.933 1256.07 1530.24 1953.59 2184.45> 1023 21G<2193 2197> 1344 20G<2106.5 2136.5>
VStem: 100 216<220.396 561.428> 665 141<176.556 403.063> 989 141<-19.7138 684.039> 1664 140<-21.0613 709.621> 1972 140<202.567 534.2> 2519 140<224.449 634.415>
LayerCount: 2
Fore
SplineSet
488 119 m 4xcfe0
 587 119 665 191 665 289 c 4
 665 383 583 465 490 465 c 4
 397 465 316 384 316 288 c 4
 316 192 398 119 488 119 c 4xcfe0
2308 832 m 5
 2253 672 2112 544 2112 345 c 4
 2112 227 2197 116 2303 116 c 4
 2448 116 2519 266 2519 411 c 4
 2519 604 2435 753 2308 832 c 5
1394 1030 m 4xefe0
 1564 1030 1678 917 1735 800 c 5
 1810 933 1942 1030 2127 1030 c 4xefe0
 2150 1030 2173 1028 2196 1024 c 5
 2196 1024 2197 1024 2197 1023 c 5xdfe0
 2189 1112 2153 1184 2089 1240 c 4
 2072 1254 2064 1272 2064 1292 c 4
 2064 1323 2093 1364 2120 1364 c 6
 2121 1364 l 6
 2152 1364 2159 1364 2180 1346 c 4
 2265 1273 2338 1151 2338 1004 c 4
 2338 995 2338 987 2337 978 c 5
 2522 886 2659 677 2659 413 c 4
 2659 193 2533 -23 2310 -23 c 4
 2118 -23 1972 141 1972 347 c 4
 1972 533 2113 697 2166 853 c 4
 2171 868 2174 878 2174 882 c 4
 2174 888 2131 887 2125 887 c 4
 1871 887 1802 691 1802 422 c 5
 1804 44 l 6
 1804 6 1772 -26 1734 -26 c 4
 1695 -26 1665 6 1664 44 c 6
 1661 418 l 6
 1659 681 1600 888 1397 888 c 4
 1179 888 1130 667 1130 434 c 6
 1130 414 l 5
 1132 44 l 6
 1132 6 1100 -26 1062 -26 c 4
 1023 -26 993 6 992 44 c 6
 989 412 l 6
 987 684 902 894 640 894 c 4
 396 894 257 681 241 478 c 5
 294 547 386 603 489 603 c 4
 665 603 806 457 806 292 c 4
 806 119 668 -22 490 -22 c 4
 251 -22 100 191 100 443 c 4
 100 755 314 1033 639 1033 c 4
 832 1033 974 931 1052 796 c 5
 1053 800 l 5
 1107 914 1235 1030 1394 1030 c 4xefe0
EndSplineSet
LCarets2: 2 0 0
EndChar

StartChar: n1cil
Encoding: 3451 3451 121
Width: 2051
GlyphClass: 2
Flags: W
HStem: -19 141<457.223 758.092 1451.49 1701.28> 881 137<420.315 752.168 1234.4 1459.29>
VStem: 100 141<331.705 690.639> 916 141<-16.5625 694.025> 1228 139<209.525 519.304> 1499 141<1012.3 1181.74> 1812 140<248.914 636.383>
LayerCount: 2
Fore
SplineSet
1367 354 m 0
 1367 224 1461 118 1579 118 c 0
 1726 118 1812 277 1812 433 c 0
 1812 613 1723 757 1594 830 c 1
 1532 690 1367 523 1367 354 c 0
1635 967 m 1
 1816 878 1952 694 1952 431 c 0
 1952 197 1815 -21 1576 -21 c 0
 1371 -21 1228 153 1228 354 c 0
 1228 586 1384 716 1460 877 c 1
 1442 880 1424 881 1406 881 c 0
 1182 881 1057 698 1057 507 c 2
 1058 47 l 2
 1058 9 1026 -22 988 -22 c 0
 950 -22 918 8 918 46 c 2
 916 508 l 1
 916 516 l 2
 916 519 916 523 916 526 c 0
 916 720 786 881 588 881 c 0
 381 881 241 709 241 510 c 0
 241 290 418 122 635 122 c 0
 661 122 678 126 706 126 c 0
 733 126 765 88 765 58 c 0
 765 -11 695 -19 627 -19 c 0
 334 -19 100 223 100 515 c 0
 100 796 309 1018 590 1018 c 0
 780 1018 918 914 992 788 c 1
 1069 912 1219 1021 1407 1021 c 0
 1437 1021 1467 1018 1499 1012 c 1
 1499 1018 1499 1023 1499 1028 c 0
 1499 1139 1438 1226 1362 1271 c 0
 1339 1284 1327 1303 1327 1326 c 0
 1327 1366 1355 1402 1392 1402 c 0
 1408 1402 1423 1398 1434 1391 c 0
 1540 1327 1640 1195 1640 1034 c 0
 1640 1013 1639 992 1635 970 c 1
 1635 967 l 1
EndSplineSet
LCarets2: 2 0 0
EndChar

StartChar: l3cil
Encoding: 3453 3453 122
Width: 2092
GlyphClass: 3
Flags: W
HStem: -24 140<771.482 1015.74 1547.45 1769.69> 882 141<468.739 769.302> 898 138<1056.22 1489.3>
VStem: 100 140<282.279 651.392> 541 138<220.866 582.187> 1114 140<223.113 609.665> 1329 140<201.365 529.104> 1556 140<981.336 1176.08> 1852 140<203.582 568.652>
LayerCount: 2
Fore
SplineSet
1469 352 m 4x9f80
 1469 234 1542 116 1660 116 c 4
 1785 116 1852 243 1852 367 c 4
 1852 551 1760 681 1631 777 c 5
 1590 685 1469 492 1469 352 c 4x9f80
915 797 m 5
 776 706 679 566 679 380 c 4
 679 252 760 113 894 113 c 4
 1031 113 1114 252 1114 389 c 4
 1114 572 1038 709 915 797 c 5
541 388 m 4
 541 601 650 762 772 865 c 5
 729 877 688 882 649 882 c 4
 417 882 240 698 240 465 c 4
 240 301 338 170 449 107 c 4
 473 94 485 75 485 52 c 4
 485 12 457 -24 420 -24 c 4
 404 -24 390 -21 379 -15 c 4
 230 71 100 243 100 463 c 4
 100 783 358 1023 656 1023 c 4xdf80
 740 1023 829 1003 917 959 c 5
 1021 1009 1139 1036 1259 1036 c 4
 1358 1036 1458 1018 1551 980 c 5
 1554 1000 1556 1019 1556 1037 c 4
 1556 1145 1482 1248 1383 1266 c 4
 1337 1275 1314 1301 1314 1345 c 4
 1314 1346 1314 1346 1314 1347 c 4
 1314 1372 1348 1408 1373 1408 c 4
 1385 1408 1393 1408 1398 1407 c 4
 1563 1376 1696 1236 1696 1038 c 4
 1696 999 1691 958 1680 914 c 5
 1845 806 1992 621 1992 367 c 4
 1992 164 1867 -24 1660 -24 c 4
 1460 -24 1329 152 1329 351 c 4
 1329 534 1448 707 1509 846 c 5
 1426 881 1343 898 1259 898 c 4xbf80
 1191 898 1123 887 1054 864 c 5
 1180 747 1254 597 1254 400 c 4
 1254 178 1121 -26 895 -26 c 4
 674 -26 541 173 541 388 c 4
EndSplineSet
LCarets2: 2 0 0
EndChar

StartChar: lhcil
Encoding: 3454 3454 123
Width: 1931
GlyphClass: 3
Flags: W
HStem: -25 140<403.96 690.678 1318.18 1575.86> 885 141<426.003 537.547 1075.57 1276>
VStem: 100 141<287.582 664.471> 790 141<221.077 719.719> 1076 140<225.057 549.166> 1310 141<1022.42 1217.68> 1690 141<243.807 612.601>
LayerCount: 2
Fore
SplineSet
1447 114 m 0
 1589 114 1690 258 1690 418 c 0
 1690 599 1576 773 1412 847 c 1
 1337 669 1216 533 1216 383 c 0
 1216 246 1308 114 1447 114 c 0
550 -25 m 0
 297 -25 100 194 100 475 c 0
 100 701 234 920 443 1018 c 0
 451 1022 464 1025 473 1025 c 0
 512 1025 543 994 543 955 c 0
 543 930 525 901 502 891 c 0
 345 818 241 643 241 470 c 0
 241 273 380 115 553 115 c 0
 709 115 790 235 790 388 c 0
 790 428 788 471 788 516 c 0
 788 810 964 1026 1242 1026 c 0
 1265 1026 1288 1025 1310 1022 c 1
 1310 1038 l 2
 1310 1127 1278 1225 1219 1290 c 0
 1209 1301 1200 1323 1200 1338 c 0
 1200 1377 1231 1408 1270 1408 c 0
 1289 1408 1311 1397 1323 1384 c 0
 1407 1292 1451 1162 1451 1040 c 0
 1451 1021 1450 1003 1448 984 c 1
 1678 893 1831 667 1831 423 c 0
 1831 384 1827 346 1819 307 c 0
 1788 131 1640 -26 1449 -26 c 0
 1216 -26 1076 173 1076 387 c 0
 1076 596 1214 741 1276 884 c 1
 1266 885 1256 885 1246 885 c 0
 1012 885 931 720 931 473 c 2
 931 450 l 2
 931 182 831 -25 550 -25 c 0
EndSplineSet
LCarets2: 2 0 0
EndChar

StartChar: r3cil
Encoding: 3452 3452 124
Width: 1405
GlyphClass: 3
Flags: W
HStem: -18 139<378.346 490.012 765.889 1040.76> 879 141<485.182 787.684>
VStem: 100 139<283.446 634.308> 521 140<225.372 537.599> 822 139<1009.95 1196.22> 1165 141<262.335 611.881>
LayerCount: 2
Fore
SplineSet
909 121 m 0
 1069 121 1165 285 1165 433 c 0
 1165 621 1030 770 901 831 c 1
 834 704 661 553 661 378 c 0
 661 230 761 121 909 121 c 0
951 963 m 1
 1128 884 1306 688 1306 434 c 0
 1306 193 1154 -18 901 -18 c 0
 681 -18 521 166 521 372 c 0
 521 573 679 730 763 873 c 1
 735 877 707 879 681 879 c 0
 428 879 239 681 239 459 c 0
 239 300 341 171 455 114 c 0
 482 101 495 79 495 46 c 0
 495 15 462 -19 431 -19 c 0
 416 -19 403 -16 393 -11 c 0
 236 66 100 237 100 457 c 0
 100 788 375 1020 705 1020 c 0
 749 1020 787 1009 815 1009 c 4
 816 1009 817 1009 817 1009 c 0
 820 1025 822 1041 822 1056 c 0
 822 1156 760 1238 695 1278 c 0
 672 1291 661 1309 661 1332 c 0
 661 1372 689 1408 726 1408 c 0
 742 1408 757 1404 769 1397 c 0
 870 1334 961 1210 961 1053 c 0
 961 1024 958 994 951 963 c 1
EndSplineSet
LCarets2: 2 0 0
EndChar

StartChar: k1u1
Encoding: 65544 -1 125
Width: 1925
GlyphClass: 3
LigCaretCntFixed: 1
Flags: W
HStem: -32 129<1458.81 1678.72> -15 143<292.561 525.252 849.148 1133.27> 218 133<1477.09 1679.74> 515 141<720 1264 1427 1655.32> 878 139<851.128 1135.48>
VStem: 100 141<178.108 395.784> 557 140<302.74 502> 1287 140<305.938 510> 1685 136<107.562 211.036 360.366 482.831>
LayerCount: 2
Fore
SplineSet
584 300 m 6x7f80
 584 315 l 5
 567 372 557 432 557 495 c 4
 557 497 558 500 558 502 c 5
 399 490 241 432 241 283 c 4
 241 195 317 128 403 128 c 4
 505 128 584 201 584 300 c 6x7f80
697 497 m 4
 697 303 811 129 989 129 c 4
 1178 129 1287 308 1287 495 c 4
 1287 500 1287 505 1287 510 c 5
 900 508 704 507 698 507 c 5
 698 504 697 500 697 497 c 4
720 647 m 5
 1242 650 l 5
 1264 650 l 5
 1225 768 1135 878 991 878 c 4
 847 878 758 766 720 647 c 5
1590 97 m 4xbf80
 1638 97 1685 118 1685 162 c 4
 1685 200 1649 218 1579 218 c 4
 1508 218 1473 241 1473 286 c 4
 1473 328 1495 350 1537 351 c 6
 1591 352 l 6
 1652 353 1683 375 1683 416 c 4
 1683 485 1604 515 1450 515 c 6
 1427 515 l 5
 1427 509 1427 503 1427 497 c 4
 1427 233 1260 -13 991 -13 c 4
 870 -13 758 46 679 139 c 5
 626 50 535 -15 404 -15 c 4x7f80
 243 -15 100 119 100 278 c 4
 100 528 331 631 574 644 c 5
 622 849 785 1017 993 1017 c 4
 1194 1017 1359 852 1408 655 c 5
 1423 655 1438 656 1453 656 c 4
 1647 656 1823 590 1823 415 c 4
 1823 368 1804 322 1757 288 c 5
 1800 260 1821 220 1821 168 c 4
 1821 31 1713 -32 1573 -32 c 4
 1503 -32 1418 -14 1418 46 c 4
 1418 89 1448 116 1487 116 c 4
 1518 116 1555 97 1590 97 c 4xbf80
EndSplineSet
LCarets2: 1 0
EndChar

StartChar: k1u2
Encoding: 65545 -1 126
Width: 1933
GlyphClass: 3
LigCaretCntFixed: 1
Flags: W
HStem: -544 139<279.458 693.603> -542 140<694.053 1821.19> -180 140<289.477 1626.08> 229 142<1468.77 1653.58> 512 140<365.504 547 713 1242 1405 1660.66>
VStem: 575 114<311.013 509.001> 1242 143<666 748.156> 1265 140<320.992 519>
LayerCount: 2
Fore
SplineSet
544 512 m 1x3c
 413 508 284 446 249 347 c 0
 249 346 249 346 249 345 c 0
 223 277 265 212 301 182 c 0
 326 161 352 149 381 147 c 0
 382 147 384 147 386 146 c 0
 460 135 523 186 552 234 c 0
 570 264 578 295 575 326 c 1
 575 327 l 1
 556 386 546 448 547 512 c 1
 544 512 l 1x3c
780 240 m 1
 844 162 986 114 1097 181 c 0
 1098 182 1098 182 1099 182 c 0
 1198 240 1268 367 1265 519 c 1x3d
 1238 518 1150 518 1002 518 c 0
 854 518 749 517 689 516 c 1
 687 406 717 314 780 241 c 1
 780 240 l 1
1242 659 m 1x3e
 1208 765 1106 882 974 880 c 1
 973 880 l 2
 934 879 895 868 858 847 c 0
 790 808 742 745 713 656 c 1
 830 658 931 659 1016 659 c 2
 1242 659 l 1x3e
1777 -389 m 2
 1804 -389 1833 -429 1833 -459 c 0
 1833 -497 1802 -528 1764 -529 c 2
 912 -542 l 1
 882 -542 l 2x7e
 862 -542 791 -543 670 -546 c 0
 549 -549 453 -548 384 -544 c 0
 271 -538 175 -480 130 -394 c 0
 67 -273 133 -156 230 -96 c 0
 288 -61 361 -42 450 -40 c 0
 539 -38 728 -35 1017 -33 c 2
 1453 -30 l 2
 1609 -29 1689 19 1692 112 c 0
 1695 184 1652 223 1564 229 c 0
 1497 230 1464 254 1463 302 c 0
 1462 346 1496 369 1562 371 c 0
 1628 373 1662 400 1662 453 c 0
 1662 501 1625 525 1552 525 c 2
 1405 524 l 1xbd
 1411 309 1312 143 1168 59 c 0
 978 -51 799 24 671 152 c 0
 670 153 670 153 670 154 c 1
 613 60 508 -8 358 8 c 0
 288 15 230 46 181 99 c 0
 101 187 80 285 117 394 c 0
 146 477 203 540 288 585 c 0
 373 630 461 652 550 652 c 0
 560 652 565 652 565 653 c 0
 604 802 680 908 791 971 c 0
 942 1056 1125 1024 1240 916 c 0
 1315 846 1363 763 1385 666 c 1
 1591 674 1721 623 1776 513 c 0
 1815 436 1776 333 1734 294 c 1
 1786 244 1836 153 1815 53 c 0
 1799 -24 1761 -81 1700 -118 c 0
 1639 -155 1575 -172 1508 -169 c 0
 1194 -172 823 -174 430 -180 c 0
 350 -181 253 -222 248 -292 c 0
 243 -359 325 -403 393 -405 c 0xbe
 586 -412 687 -413 694 -406 c 0
 694 -406 766 -404 910 -402 c 2x7e
 1761 -389 l 1
 1777 -389 l 2
EndSplineSet
LCarets2: 1 0
EndChar

StartChar: k1r1
Encoding: 65546 -1 127
Width: 1920
GlyphClass: 3
LigCaretCntFixed: 1
Flags: W
HStem: -564 140<794.998 1142.81> -230 141<802.465 1145.2> -19 143<292.76 526.778 847.987 1139.18> 506 140<722 1271> 878 142<860.477 1134.38>
VStem: 99 142<173.983 393.407> 559 140<297.001 502> 576 146<646 733.477> 636 141<-396.571 -261.141> 1175 141<-343.29 -263.659> 1293 140<303.203 499> 1679 141<-23.1235 347.428>
LayerCount: 2
Fore
SplineSet
976 -230 m 0xfcd0
 974 -230 971 -230 969 -230 c 0
 868 -230 777 -254 777 -330 c 0
 777 -408 866 -424 977 -424 c 0
 1089 -424 1175 -409 1175 -333 c 0
 1175 -255 1080 -231 976 -230 c 0xfcd0
241 280 m 0
 241 191 317 124 404 124 c 0
 507 124 586 197 586 297 c 0
 586 301 586 306 586 310 c 2
 586 312 l 1
 568 369 559 429 559 492 c 0
 559 495 559 499 559 502 c 1xfe10
 399 490 241 431 241 280 c 0
1293 506 m 1xfe30
 699 506 l 1
 699 503 699 499 699 496 c 0
 699 307 806 123 995 123 c 0
 1186 123 1293 308 1293 496 c 0
 1293 499 1293 503 1293 506 c 1xfe30
1271 646 m 1
 1232 768 1130 878 998 878 c 0
 997 878 995 878 994 878 c 0
 862 876 762 769 722 646 c 1xfd10
 1271 646 l 1
681 136 m 1
 627 46 537 -19 404 -19 c 0
 244 -19 99 114 99 274 c 0
 99 525 332 631 576 643 c 1xfd30
 623 840 769 1020 997 1020 c 0
 1224 1020 1372 840 1417 642 c 1
 1636 619 1820 428 1820 187 c 0
 1820 -230 1433 -564 1004 -564 c 0
 999 -564 995 -564 990 -564 c 0
 785 -560 636 -500 636 -328 c 0
 636 -160 797 -89 972 -89 c 0
 974 -89 975 -89 977 -89 c 0
 1163 -90 1316 -164 1316 -338 c 0
 1316 -340 1316 -342 1316 -344 c 1xfcd0
 1488 -257 1679 -71 1679 176 c 0
 1679 337 1578 473 1433 499 c 1
 1433 498 1433 497 1433 496 c 0xfc30
 1433 229 1266 -17 995 -17 c 0
 873 -17 759 43 681 136 c 1
EndSplineSet
LCarets2: 1 0
EndChar

StartChar: k1k1
Encoding: 65548 -1 129
Width: 2528
GlyphClass: 3
LigCaretCntFixed: 1
Flags: W
HStem: -29 166<1997.33 2143.9> -26 140<300.402 517.439 869.912 1138.29 1526.4 1744.18> 472 140<364.156 562 718 1289> 882 141<869.304 1135.04 1699.39 2066.77>
VStem: 100 142<170.51 375.472> 1301 137<298.235 469.733> 1787 142<157.163 368.021> 2287 142<307.375 668.058>
LayerCount: 2
Fore
SplineSet
1890 1023 m 0x7f
 2165 1023 2429 806 2429 486 c 0
 2429 259 2283 50 2066 -25 c 0
 2060 -27 2049 -29 2042 -29 c 0
 2003 -29 1972 2 1972 41 c 0
 1972 102 2044 114 2086 137 c 0xbf
 2211 204 2287 349 2287 491 c 0
 2287 726 2086 882 1885 882 c 0
 1690 882 1558 754 1489 608 c 1
 1697 590 1929 493 1929 258 c 0
 1929 110 1813 -26 1641 -26 c 0
 1504 -26 1398 70 1346 169 c 1
 1280 74 1159 -20 1003 -20 c 0
 881 -20 762 38 684 133 c 1
 627 40 524 -22 411 -22 c 0
 233 -22 100 111 100 270 c 0
 100 514 350 604 572 611 c 1
 611 814 766 1019 1003 1019 c 0
 1191 1019 1334 881 1396 736 c 1
 1492 893 1655 1023 1890 1023 c 0x7f
1289 613 m 1
 1260 742 1152 879 1003 879 c 0
 849 879 750 743 718 612 c 1
 1289 613 l 1
705 472 m 1
 713 289 825 121 1007 121 c 0
 1196 121 1293 313 1301 472 c 1
 705 472 l 1
1639 114 m 0x7f
 1726 114 1787 185 1787 264 c 0
 1787 416 1590 463 1445 471 c 1
 1440 444 1438 415 1438 388 c 0
 1438 255 1506 114 1639 114 c 0x7f
242 275 m 0
 242 191 316 118 408 118 c 0
 500 118 591 205 591 297 c 0
 591 301 590 307 590 311 c 0
 573 363 564 416 562 470 c 1
 423 463 242 417 242 275 c 0
EndSplineSet
LCarets2: 2 0 0
EndChar

StartChar: k1k1u1
Encoding: 65549 -1 130
Width: 2551
GlyphClass: 3
LigCaretCntFixed: 1
Flags: W
HStem: -43 142<2028.28 2272.66> -22 139<300.917 518.687 865.349 1135.16 1511.87 1735.58> -1 131<1986.22 2157.92> 373 144<2020.27 2233.47> 508 140<725 1276> 882 139<859.745 1144.89 1746.94 2158.15>
VStem: 100 141<174.77 395.123> 562 140<298.002 504> 579 146<648 738.415> 1299 132<299.946 500.751> 1783 141<164.495 389.402> 2279 141<560.16 779.597> 2313 138<139.757 335.352>
LayerCount: 2
Fore
SplineSet
1616 117 m 0x4660
 1709 117 1783 180 1783 267 c 0
 1783 426 1617 488 1455 503 c 1
 1439 455 1431 409 1431 366 c 0
 1431 250 1501 117 1616 117 c 0x4660
589 298 m 2
 589 313 l 1
 571 371 562 432 562 497 c 0
 562 499 562 502 562 504 c 1x0760
 401 492 241 433 241 282 c 0
 241 192 317 124 405 124 c 0
 509 124 589 198 589 298 c 2
1299 508 m 1x0f60
 1001 508 1001 508 702 508 c 1
 702 504 702 501 702 497 c 0
 702 308 810 123 998 123 c 0
 1190 123 1299 310 1299 501 c 0
 1299 503 1299 506 1299 508 c 1x0f60
725 648 m 1x0ee0
 1001 648 1001 648 1276 648 c 1
 1237 771 1147 882 1000 882 c 0
 854 882 763 769 725 648 c 1x0ee0
2159 99 m 0x8668
 2241 99 2313 155 2313 239 c 0x8668
 2313 339 2228 373 2125 373 c 2
 2083 373 l 2
 2046 373 2013 404 2013 441 c 0
 2013 477 2040 508 2073 512 c 1
 2099 516 l 2
 2102 517 2106 517 2109 517 c 0
 2118 517 2125 517 2132 517 c 0
 2215 517 2279 588 2279 663 c 0
 2279 811 2110 885 1958 885 c 0
 1754 885 1611 775 1520 636 c 1
 1729 605 1924 478 1924 276 c 0
 1924 106 1802 -22 1628 -22 c 0
 1487 -22 1385 72 1337 165 c 1
 1269 70 1151 -16 1000 -16 c 0
 856 -16 750 58 684 136 c 1
 630 45 538 -19 405 -19 c 0
 244 -19 100 115 100 275 c 0
 100 527 333 633 579 645 c 1
 628 851 790 1021 999 1021 c 0
 1211 1021 1344 876 1402 712 c 1
 1511 880 1705 1024 1954 1024 c 0
 2194 1024 2420 899 2420 654 c 0x56f0
 2420 582 2391 518 2334 461 c 1
 2408 411 2451 345 2451 241 c 0
 2451 75 2320 -43 2161 -43 c 0x8668
 2111 -43 2063 -29 2015 -1 c 0
 1992 12 1980 31 1980 54 c 0
 1980 94 2008 130 2045 130 c 0x2668
 2061 130 2078 125 2095 115 c 0
 2114 104 2136 99 2159 99 c 0x8668
EndSplineSet
LCarets2: 1 0
EndChar

StartChar: k1k1u2
Encoding: 65550 -1 131
Width: 2523
GlyphClass: 3
LigCaretCntFixed: 1
Flags: W
HStem: -551 140<307.143 2409.39> -223 140<269.977 2104.43> 6 140<843.052 1118.18> 385 138<1968.25 2049> 515 141<716 1246>
LayerCount: 2
Fore
SplineSet
1425 510 m 1xe0
 1378 363 1410 238 1493 174 c 0
 1554 127 1615 125 1676 166 c 0
 1711 189 1732 225 1739 274 c 0
 1746 323 1724 372 1673 421 c 0
 1622 470 1539 499 1425 510 c 1xe0
553 511 m 1
 438 502 353 471 300 418 c 0
 245 363 223 280 277 208 c 0
 302 174 332 154 366 148 c 0
 453 133 516 159 555 227 c 0
 574 259 582 292 579 326 c 1
 579 327 l 1
 561 385 552 446 553 511 c 1
1269 515 m 1xe8
 981 515 981 515 693 515 c 1
 689 323 802 152 971 146 c 0
 1072 143 1150 202 1197 265 c 0
 1246 333 1270 416 1269 515 c 1xe8
1090 851 m 0
 1016 889 943 889 870 850 c 0
 797 811 745 746 716 655 c 1
 1226 656 l 2
 1236 656 1236 656 1246 656 c 1
 1216 748 1164 813 1090 851 c 0
2415 -481 m 0
 2415 -511 2386 -551 2359 -551 c 2
 2344 -551 l 1
 450 -547 l 2
 286 -547 205 -521 140 -436 c 0
 63 -335 106 -213 196 -146 c 0
 257 -101 349 -80 474 -82 c 1
 604 -83 l 1
 1855 -74 l 2
 1974 -73 2058 -62 2106 -40 c 0
 2197 1 2253 59 2274 133 c 0
 2306 244 2253 332 2166 362 c 0
 2138 372 2091 379 2027 385 c 0
 1996 387 1964 417 1964 449 c 0
 1964 492 1984 517 2023 523 c 2xf0
 2049 527 l 2
 2052 528 2056 528 2058 528 c 0
 2154 528 2230 594 2222 686 c 0
 2213 788 2125 848 2032 876 c 0
 1976 893 1918 897 1855 889 c 0
 1700 869 1578 787 1487 644 c 1
 1609 625 1702 586 1767 525 c 0
 1868 429 1902 323 1868 206 c 0
 1836 98 1744 7 1608 0 c 0
 1462 -7 1358 87 1309 181 c 1
 1240 87 1121 1 968 6 c 0
 852 10 754 59 674 153 c 1
 632 84 572 38 494 16 c 0
 349 -26 231 36 164 124 c 0
 116 188 97 257 108 330 c 0
 119 403 148 464 195 511 c 0
 282 597 407 644 570 653 c 1
 589 732 619 799 662 852 c 0
 749 961 854 1017 976 1018 c 0
 1037 1019 1095 1005 1150 977 c 0
 1253 924 1327 840 1371 723 c 1
 1434 822 1512 897 1605 950 c 0
 1760 1038 1922 1056 2090 1005 c 0
 2156 985 2216 948 2270 894 c 0
 2324 840 2354 772 2361 688 c 0
 2368 604 2337 529 2270 466 c 1
 2383 400 2458 269 2408 97 c 0
 2363 -58 2229 -163 2067 -196 c 0
 2011 -207 1941 -213 1856 -214 c 2
 605 -223 l 1
 476 -223 l 2
 351 -224 276 -246 249 -290 c 0
 217 -343 273 -377 306 -391 c 0
 330 -402 379 -407 451 -407 c 2
 2344 -411 l 2
 2383 -411 2415 -442 2415 -481 c 0
EndSplineSet
LCarets2: 1 3
EndChar

StartChar: k1k1r1
Encoding: 65551 -1 132
Width: 2445
GlyphClass: 3
LigCaretCntFixed: 1
Flags: W
HStem: -588 142<1276.11 1631.86> -9 140<839.193 1113> 503 140<708 1245 1467 1583.04> 882 139<842.122 1112.69>
VStem: 549 140<315.722 498>
LayerCount: 2
Fore
SplineSet
1643 -321 m 0
 1616 -276 1553 -253 1454 -252 c 0
 1355 -251 1291 -273 1264 -318 c 0
 1247 -347 1249 -373 1272 -398 c 0
 1306 -436 1385 -452 1508 -446 c 0
 1567 -443 1609 -428 1633 -403 c 0
 1657 -378 1660 -350 1643 -321 c 0
1415 497 m 1
 1376 346 1409 224 1490 162 c 0
 1558 110 1649 117 1701 179 c 0
 1761 251 1734 345 1675 401 c 0
 1618 454 1531 486 1415 497 c 1
549 498 m 1
 433 489 348 459 295 406 c 0
 240 351 218 266 272 195 c 0
 370 65 583 145 574 313 c 1
 576 313 l 1
 558 371 549 433 549 498 c 1
695 502 m 2
 692 502 692 502 689 502 c 0
 688 309 798 139 966 131 c 0
 1067 128 1145 187 1191 251 c 0
 1240 319 1264 403 1264 503 c 1
 1221 503 l 1
 695 502 l 2
1245 643 m 1
 1210 770 1107 884 974 882 c 0
 843 880 742 768 708 642 c 1
 1221 643 l 1
 1245 643 l 1
1475 879 m 0
 1646 1041 1889 1074 2089 934 c 0
 2171 877 2234 802 2279 707 c 0
 2354 547 2366 361 2315 150 c 0
 2278 -5 2212 -143 2118 -265 c 0
 2024 -387 1908 -476 1767 -532 c 0
 1669 -571 1571 -590 1473 -588 c 0
 1375 -586 1307 -576 1266 -558 c 0
 1177 -520 1127 -461 1115 -382 c 0
 1099 -269 1173 -194 1249 -151 c 0
 1341 -99 1572 -103 1660 -155 c 0
 1751 -208 1796 -278 1793 -364 c 1
 1981 -258 2119 -66 2179 183 c 0
 2200 259 2208 339 2205 423 c 0
 2198 602 2132 735 2009 820 c 0
 1906 892 1797 903 1683 852 c 0
 1592 811 1520 738 1467 633 c 1
 1596 616 1694 576 1759 514 c 0
 1862 417 1896 310 1863 193 c 0
 1832 85 1739 -8 1602 -13 c 0
 1467 -19 1357 72 1305 171 c 1
 1305 170 l 1
 1238 75 1115 -14 963 -9 c 0
 847 -5 749 45 669 140 c 1
 627 71 567 25 489 3 c 0
 344 -39 226 23 159 112 c 0
 64 237 95 403 190 498 c 0
 276 584 400 631 563 640 c 1
 580 722 610 791 651 846 c 0
 738 961 844 1020 971 1021 c 0
 1034 1022 1094 1007 1150 978 c 0
 1248 926 1319 845 1362 734 c 1
 1394 789 1432 838 1475 879 c 0
EndSplineSet
LCarets2: 1 0
EndChar

StartChar: k1k1r3
Encoding: 65552 -1 133
Width: 2826
GlyphClass: 3
LigCaretCntFixed: 1
Flags: W
HStem: -398 120<817.239 2037.78> -19 141<674.193 876.63 1219.41 1474.37 1855.53 2058.84> 517 140<1080 1611 1829 1959.87> 881 141<1207.71 1484.08 2009.03 2344.57>
VStem: 100 140<162.517 615.076> 469 141<185.67 411.006> 917 140<311.235 512> 934 146<657 750.316> 1634 137<307.346 512> 2119 141<184.658 399.436> 2589 137<142.799 608.114>
LayerCount: 2
Fore
SplineSet
1782 512 m 1xfce0
 1774 475 1771 439 1771 405 c 0
 1771 278 1831 122 1960 122 c 0
 2037 122 2119 207 2119 287 c 0
 2119 441 1940 498 1782 512 c 1xfce0
610 299 m 0
 610 213 688 125 768 125 c 0
 864 125 944 211 944 311 c 0
 944 316 943 322 943 329 c 0
 926 385 917 444 917 506 c 0
 917 508 917 510 917 512 c 1xfee0
 763 500 610 444 610 299 c 0
1057 507 m 0
 1057 318 1170 128 1344 128 c 0
 1529 128 1634 325 1634 508 c 0
 1634 511 1634 514 1634 517 c 1
 1065 517 l 2
 1064 517 1058 516 1057 516 c 1
 1057 513 1057 510 1057 507 c 0
1345 881 m 0
 1205 881 1117 772 1080 657 c 1xfde0
 1257 657 1434 657 1611 657 c 1
 1573 773 1486 881 1345 881 c 0
1725 751 m 1
 1812 896 1959 1018 2180 1018 c 0
 2519 1018 2726 703 2726 383 c 0
 2726 -162 2304 -375 1751 -387 c 2
 1308 -397 l 2
 1264 -398 1223 -398 1185 -398 c 0
 599 -398 100 -162 100 406 c 0
 100 685 265 903 457 1009 c 0
 468 1015 481 1019 497 1019 c 0
 534 1019 562 983 562 942 c 0
 562 918 550 900 525 887 c 0
 371 802 240 628 240 404 c 0
 240 -80 683 -278 1184 -278 c 0
 1221 -278 1262 -278 1305 -277 c 2
 1748 -267 l 2
 2214 -257 2589 -80 2589 381 c 0
 2589 644 2429 879 2174 879 c 0
 2007 879 1889 767 1829 648 c 1
 2048 620 2260 498 2260 292 c 0
 2260 122 2126 -19 1949 -19 c 0
 1826 -19 1724 78 1678 170 c 1
 1613 78 1493 -12 1345 -12 c 0
 1220 -12 1120 38 1038 134 c 1
 985 47 897 -16 768 -16 c 0
 610 -16 469 136 469 293 c 0
 469 539 695 642 934 654 c 1
 979 846 1123 1022 1345 1022 c 0
 1533 1022 1663 893 1725 751 c 1
EndSplineSet
LCarets2: 1 0
EndChar

StartChar: k1th1
Encoding: 65558 -1 139
Width: 3311
GlyphClass: 3
LigCaretCntFixed: 1
Flags: W
HStem: -21.4179 142.034<294.494 528.822 852.672 1142.26 1892.76 2009.6 2266.4 2527.14 2778.61 2910.78> 508 140<724 1275> 878.027 140.025<861.136 1139.86 1976.86 2238.84 2554.63 2847>
VStem: 102.501 138.97<173.42 393.197> 561.925 139.974<296.274 500> 579 145<645 735.918> 1298.16 139.839<300.908 495> 2026.37 139.944<234.741 604.448> 2625.99 138.756<234.783 608.661> 3072.85 139.352<300.288 657.234>
LayerCount: 2
Fore
SplineSet
562 500 m 5xfbc0
 400.854738654 488.013988826 241.471055198 429.209302583 241.471055198 278.399536908 c 4
 241.471055198 189.336648943 318.414609684 120.616410939 405.421450071 120.616410939 c 4
 508.802597382 120.616410939 588.436641348 195.826061328 588.436641348 296.074131322 c 4
 588.436641348 300.338729906 588.292528385 304.648640277 588 309 c 4
 588 310 588 310 588 311 c 4
 570.902261321 367.042587893 561.924874529 426.694221069 561.924874529 489.954899528 c 4
 561.924874529 493.293216038 561.949874371 496.641582861 562 500 c 5xfbc0
711 505 m 6
 707 505 707 505 702 505 c 5
 701.932518645 501.513463348 701.898937305 498.040081926 701.898937305 494.580333742 c 4
 701.898937305 305.624741767 808.588772901 120.795052499 997.365216149 120.795052499 c 4
 1188.81126087 120.795052499 1298.16065066 306.00271187 1298.16065066 495.098305102 c 4
 1298.16065066 499.379510461 1298.10731932 503.680397313 1298 508 c 5
 1252 508 l 5
 711 505 l 6
2397 813 m 5
 2271.57767897 737.086489901 2166.30868749 593.235675631 2166.30868749 407.541560077 c 4
 2166.30868749 262.606965231 2250.06367613 115.365302365 2397.07118859 115.365302365 c 4
 2542.00588794 115.365302365 2625.98679562 260.851081563 2625.98679562 404.430987201 c 4
 2625.98679562 590.409334328 2529.06983596 735.311861199 2397 813 c 5
1275 648 m 5
 1236.3527454 769.887495288 1132.89399899 878.027098375 1001.6019568 878.027098375 c 4
 865.911963266 878.027098375 763.189335466 768.59713493 724 645 c 5xf7c0
 1251 648 l 6
 1263 648 1263 648 1275 648 c 5
3072.84851348 479.765576187 m 4
 3072.84851348 707.601736394 2875.71274537 881.767022048 2643.55207162 881.767022048 c 4
 2613.4031051 881.767022048 2582.83815001 878.749485595 2552 873 c 5
 2687.82924913 753.999153419 2764.7429374 617.108768869 2764.7429374 409.273615522 c 4
 2764.7429374 182.916781813 2628.13909573 -22.3926196907 2396.69257997 -22.3926196907 c 4
 2168.48123601 -22.3926196907 2026.36510143 183.215008018 2026.36510143 405.343642909 c 4
 2026.36510143 609.303079013 2110.04869415 756.868853123 2240 871 c 5
 2213.87535094 875.449176042 2188.41444516 877.555728716 2163.71824372 877.555728716 c 4
 1929.31254649 877.555728716 1749.99451303 698.074303314 1749.99451303 465.644515572 c 4
 1749.99451303 461.576131687 1750 457.37037037 1750 453 c 4
 1750 286.592340648 1867.63852198 159.814869451 1974 110 c 4
 2001 97 2015 79 2015 54 c 4
 2015 13 1988 -24 1951 -24 c 4
 1936 -24 1923 -22 1914 -17 c 4
 1762 55 1629 217 1610 418 c 5
 1559 457 1502 482 1438 495 c 5
 1438 224.519697535 1272.6149261 -16.8937510001 995.196733871 -16.8937510001 c 4
 859.144175005 -16.8937510001 747.778485117 58.2630489238 684 134 c 5
 629.796629233 43.2408675528 538.994609212 -21.4179448264 405.40626372 -21.4179448264 c 4
 240.483332193 -21.4179448264 102.501009892 113.17776422 102.501009892 278.053576036 c 4
 102.501009892 522.449573557 335.213431361 630.459807402 579 642 c 5
 627.078941262 849.498588606 791.626141132 1018.05172926 1002.50393224 1018.05172926 c 4
 1206.78719303 1018.05172926 1375.85980173 846.41667648 1422 640 c 5
 1494 630 1560 609 1620 578 c 5
 1670.89144203 819.734349662 1887.87508273 1017.97943902 2163.94529955 1017.97943902 c 4
 2239.27729957 1017.97943902 2317.29407528 1002.15540129 2396 968 c 5
 2479.07982823 1004.46880772 2563.13754424 1021.10046348 2644.12357133 1021.10046348 c 4
 2947.15187525 1021.10046348 3212.20043571 790.83593068 3212.20043571 479.395150653 c 4
 3212.20043571 236.697860168 3052.80448405 45.9664277274 2868 -15 c 4
 2860 -18 2849 -19 2835 -19 c 4
 2806 -19 2773 16 2773 46 c 4
 2773 81 2792 106 2830 120 c 4
 2960.49751685 167.626830968 3072.84851348 305.986263061 3072.84851348 479.765576187 c 4
EndSplineSet
LCarets2: 1 3
EndChar

StartChar: k1th1u1
Encoding: 65559 -1 140
Width: 3268
GlyphClass: 3
LigCaretCntFixed: 1
Flags: W
HStem: -543 139<1727.09 3161.64> -217 140<1729.77 2776.58> -7 142<289.784 517.306 836.605 1114.67 1837.42 1959.07 2209.47 2459.45> 507 140<711 1241> 869 141<834.569 1114.17 1953.47 2172.9 2493.95 2745.78>
VStem: 100 141<182.007 398.772> 549 140<298.793 500> 1265 140<307.188 495> 1564 139<-373.923 -250.333> 1974 139<238.822 602.2> 2557 140<242.302 607.037> 3027 140<142.76 587.181>
LayerCount: 2
Fore
SplineSet
2334 795 m 5
 2216 725 2113 593 2113 409 c 4
 2113 271 2192 132 2333 132 c 4
 2471 132 2557 265 2557 405 c 4
 2557 590 2468 718 2334 795 c 5
1708 463 m 5
 1708 451 l 5
 1711 294 1809 178 1924 124 c 4
 1952 112 1966 89 1966 55 c 4
 1966 24 1932 -10 1902 -10 c 4
 1887 -10 1875 -8 1866 -3 c 4
 1711 67 1585 220 1570 420 c 5
 1522 456 1467 482 1405 495 c 5
 1404 235 1238 -5 974 -5 c 4
 856 -5 746 52 669 143 c 5
 616 55 527 -7 398 -7 c 4
 240 -7 100 125 100 281 c 4
 100 528 327 629 565 642 c 5
 610 835 755 1010 977 1010 c 4
 1201 1010 1345 834 1389 639 c 5
 1459 629 1523 609 1580 579 c 5
 1628 796 1842 997 2111 997 c 4
 2182 997 2257 983 2333 952 c 5
 2407 984 2485 1000 2566 1000 c 4
 2908 1000 3167 730 3167 391 c 4
 3167 -32 2953 -205 2528 -210 c 6
 2025 -217 l 5
 1904 -217 1703 -212 1703 -315 c 4
 1703 -396 1848 -404 1944 -404 c 4
 1967 -404 1992 -404 2019 -403 c 6
 3097 -400 l 5
 3112 -400 l 6
 3138 -400 3168 -440 3168 -470 c 4
 3168 -508 3136 -540 3098 -540 c 6
 2020 -543 l 5
 1926 -543 l 6
 1734 -543 1564 -486 1564 -313 c 4
 1564 -127 1753 -77 1968 -77 c 6
 2023 -77 l 5
 2525 -71 l 6
 2862 -67 3027 47 3027 376 c 4
 3027 646 2838 860 2568 860 c 4
 2543 860 2518 858 2492 854 c 5
 2621 741 2697 605 2697 404 c 4
 2697 176 2551 -7 2338 -7 c 4
 2116 -7 1974 183 1974 407 c 4
 1974 605 2046 736 2175 851 c 5
 2154 854 2134 855 2114 855 c 4
 1880 855 1710 691 1708 463 c 5
574 303 m 6
 574 317 l 5
 557 372 549 431 549 493 c 6
 549 500 l 5
 395 488 241 431 241 286 c 4
 241 200 314 135 399 135 c 4
 498 135 574 207 574 303 c 6
689 495 m 6
 689 307 801 136 974 136 c 4
 1160 136 1265 312 1265 496 c 6
 1265 507 l 5
 1222 507 l 5
 696 505 l 5
 689 505 l 5
 689 495 l 6
711 645 m 5
 1221 647 l 5
 1241 647 l 5
 1203 762 1116 869 976 869 c 4
 835 869 748 761 711 645 c 5
EndSplineSet
LCarets2: 1 0
EndChar

StartChar: k1th1u2
Encoding: 65560 -1 141
Width: 3449
GlyphClass: 3
LigCaretCntFixed: 1
Flags: W
HStem: -497 140<1748.57 3342.98> -200 140<1742.1 1985.97 1986 3026.66> -19 141<288.703 518.776 835.793 1112.63 1903.51 2105.8 2375.31 2610.01> 360 140<2978.16 3138.13> 493 140<711 1241 1405 1526.65> 883 140<852.43 1101.58 1978.47 2352.71 2653.03 3045.58>
VStem: 102 139<171.929 388.168> 1265 140<294.766 483> 1592 140<-333.594 -217.621> 2121 141<245.314 577.55> 2718 140<235.861 569.308> 3184 139<543.61 765.217> 3203 141<70.9702 309.32>
LayerCount: 2
Fore
SplineSet
406 122 m 0xe7e0
 494 122 575 192 575 291 c 0
 575 295 574 300 574 304 c 2
 574 305 l 1
 557 360 549 419 549 481 c 0
 549 483 549 486 549 488 c 1
 395 476 241 420 241 274 c 0
 241 184 317 122 406 122 c 0xe7e0
974 124 m 0
 1163 124 1269 305 1265 495 c 1
 689 493 l 1xefe0
 685 299 799 124 974 124 c 0
2495 128 m 0
 2633 128 2718 260 2718 397 c 0
 2718 564 2599 701 2500 769 c 1
 2373 698 2262 575 2262 404 c 0
 2262 260 2358 128 2495 128 c 0
1241 636 m 1
 1202 752 1103 883 977 883 c 0
 849 883 749 750 711 633 c 1
 1241 636 l 1
2507 950 m 1
 2611 994 2734 1022 2876 1022 c 0
 3111 1022 3323 901 3323 658 c 0xf7f0
 3323 566 3291 491 3229 435 c 1
 3296 382 3344 304 3344 202 c 0
 3344 -119 3006 -200 2658 -200 c 0
 2604 -200 2551 -200 2514 -200 c 2
 1985 -197 l 2
 1981 -197 1977 -197 1973 -197 c 0
 1853 -197 1732 -198 1732 -279 c 0
 1732 -349 1847 -357 1967 -357 c 0
 1973 -357 1978 -357 1984 -357 c 0
 2004 -357 2018 -357 2027 -356 c 2
 3278 -353 l 1
 3294 -353 l 2
 3321 -353 3350 -393 3350 -423 c 0
 3350 -461 3318 -493 3280 -493 c 2
 3279 -493 l 1
 2027 -496 l 1
 1915 -497 l 1
 1739 -494 1592 -434 1592 -279 c 0
 1592 -121 1747 -56 1925 -56 c 0
 1950 -56 1986 -57 1986 -57 c 1
 2515 -60 l 1
 2704 -61 l 1
 2970 -59 3203 0 3203 196 c 0xf7e8
 3203 284 3134 360 3049 360 c 0
 3013 360 2972 382 2972 420 c 0
 2972 468 2998 498 3035 500 c 0
 3115 502 3184 566 3184 645 c 0xf7f0
 3184 786 3029 882 2873 882 c 0
 2787 882 2705 868 2649 852 c 1
 2786 728 2858 560 2858 382 c 0
 2858 182 2709 -13 2494 -13 c 0
 2267 -13 2121 191 2121 402 c 0
 2121 602 2234 772 2354 862 c 1
 2299 879 2244 888 2191 888 c 0
 1946 888 1747 717 1747 473 c 0
 1747 295 1865 141 2030 117 c 0
 2086 109 2114 85 2114 45 c 0
 2114 14 2084 -25 2056 -25 c 0
 1824 -25 1650 183 1614 377 c 1
 1564 449 1492 464 1405 483 c 1
 1404 222 1239 -17 974 -17 c 0
 856 -17 746 40 669 131 c 1
 616 43 527 -19 398 -19 c 0
 236 -19 102 114 102 275 c 0
 102 513 329 617 565 630 c 1
 616 847 756 1023 979 1023 c 0
 1197 1023 1339 842 1389 627 c 1
 1472 616 1546 590 1612 549 c 1
 1658 827 1883 1026 2192 1026 c 0
 2301 1026 2410 1000 2507 950 c 1
EndSplineSet
LCarets2: 1 0
EndChar

StartChar: k1th1r1
Encoding: 65561 -1 142
Width: 3174
GlyphClass: 3
LigCaretCntFixed: 1
Flags: HW
HStem: -16 142<1881.02 2069.97> 516 140<692.007 1222.01>
VStem: 1246.01 140<313.492 504>
LayerCount: 2
Fore
SplineSet
409 -20 m 4
 240 -20 100 118 100 286 c 4
 100 536.844483085 341.015830991 640.613996159 578 646 c 5
 619.788860224 833.375857133 759.179016988 1022 989 1022 c 4
 1219.13634049 1022 1357.23788591 834.140967215 1400 648 c 5
 1443 645 1475 637 1511 618 c 5
 1573 840 1773 1017 2035 1017 c 4
 2113 1017 2192 1000 2263 969 c 5
 2337 1002 2409 1016 2479 1016 c 4
 2845.18877586 1016 3075 685.221579393 3075 315 c 4
 3075 -166.21838469 2723.47145455 -575 2225 -575 c 4
 2051.35143725 -575 1865 -524.767143606 1865 -341 c 4
 1865 -171.151058578 2039.81627 -100 2197 -100 c 6
 2208 -100 l 5
 2365.92771589 -102.357130088 2545 -169.241931934 2545 -344 c 6
 2545 -358 l 5
 2756 -242 2934 19 2934 317 c 4
 2934 602.613613149 2767.95268281 876 2487 876 c 4
 2464 876 2441 874 2418 870 c 5
 2547.29197653 755.715127892 2631 598.28998875 2631 396 c 4
 2631 177.698155294 2495.73287929 -26 2271 -26 c 4
 2043.36831105 -26 1909 182.595016534 1909 402 c 4
 1909 598.886333531 1984.54130575 752.794713389 2111 869 c 5
 2085 874 2059 877 2033 877 c 4
 1810 877 1632 695 1632 473 c 4
 1632 299 1743 161 1874 105 c 4
 1898 95 1918 66 1918 40 c 4
 1918 1 1887 -30 1848 -30 c 4
 1840 -30 1827 -27 1819 -24 c 4
 1653 47 1516 208 1494 417 c 4
 1485 466 1466 493 1417 504 c 5
 1417 499 1417 494 1417 489 c 4
 1417 230.22488426 1261.6574537 -26 989 -26 c 4
 854 -26 744 49 678 129 c 5
 624 42 520 -20 409 -20 c 4
1254 649 m 5
 1218 763 1135 882 989 882 c 6
 986 882 l 5
 843.673977435 880.418599749 756.148357759 761.74431532 723 647 c 5
 1254 649 l 5
2264 811 m 5
 2138.46484655 731.312467807 2049 582.715216009 2049 407 c 4
 2049 262.466606047 2122.68550656 114 2271 114 c 4
 2415.13145948 114 2490 259.877260553 2490 401 c 4
 2490 581.652755563 2392.63234439 732.941055966 2264 811 c 5
1277 509 m 5
 701 507 l 5
 701 490 l 6
 701 443 707 397 719 354 c 4
 721 349 723 342 724 337 c 4
 760 225 848 114 989 114 c 4
 1178.69365637 114 1277 305.236858972 1277 490 c 6
 1277 509 l 5
411 121 m 4
 506 121 586 200 586 298 c 6
 586 308 l 5
 569 367 561 428 561 489 c 6
 561 505 l 5
 403.996922429 497.523662973 241 445.646879901 241 285 c 4
 241 193 321 121 411 121 c 4
2244 -434 m 5
 2317 -432 2405 -415 2405 -344 c 4
 2405 -257.757819647 2290.01407536 -240 2199 -240 c 4
 2113.66063633 -240 2005 -260.070982694 2005 -341 c 4
 2005 -431.866566271 2142.87660826 -434 2240 -434 c 6
 2244 -434 l 5
EndSplineSet
LCarets2: 1 0
EndChar

StartChar: k1r3
Encoding: 65562 -1 143
Width: 2185
GlyphClass: 3
Flags: W
HStem: -355 140<694.987 1621.53> -9 141<622.05 847.84 1154.58 1450.58> 526 140<1038 1573> 910 139<1169.48 1444.28> 1004 20G<490 516.5>
VStem: 100 141<167.544 606.21> 429 139<185.351 414.512> 877 140<300.282 518> 1594 140<305.125 513> 1947 138<22.4788 378.495>
LayerCount: 2
Fore
SplineSet
736 132 m 0xe7c0
 831 132 904 211 904 300 c 0
 904 306 904 313 903 319 c 0
 886 376 877 438 877 504 c 2
 877 518 l 1
 722 505 568 444 568 294 c 0
 568 200 645 132 736 132 c 0xe7c0
1594 526 m 1
 1577 526 l 1
 1025 523 l 1
 1017 523 l 1
 1017 506 l 2
 1017 316 1114 127 1303 127 c 0
 1494 127 1594 319 1594 511 c 0
 1594 516 1594 521 1594 526 c 1
1305 910 m 0xf7c0
 1159 910 1072 789 1038 664 c 1
 1573 666 l 1
 1537 791 1451 910 1305 910 c 0xf7c0
998 139 m 1
 948 57 842 -9 729 -9 c 0
 557 -9 429 142 429 290 c 0
 429 537 652 646 893 660 c 1
 934 860 1069 1049 1305 1049 c 0xf7c0
 1537 1049 1678 863 1719 659 c 1
 1933 626 2085 461 2085 205 c 0
 2085 -189 1766 -331 1381 -345 c 1
 1110 -353 l 2
 1058 -354 1013 -355 973 -355 c 0
 482 -355 100 -82 100 394 c 0
 100 673 267 902 457 1014 c 0
 468 1021 482 1024 498 1024 c 0xefc0
 535 1024 563 988 563 948 c 0
 563 925 551 906 528 893 c 0
 376 803 241 612 241 400 c 0
 241 -29 585 -215 1014 -215 c 0
 1043 -215 1074 -215 1106 -214 c 2
 1376 -205 l 2
 1682 -195 1947 -103 1947 203 c 0
 1947 371 1852 481 1734 513 c 1
 1734 509 l 2
 1734 236 1575 -11 1299 -11 c 0
 1166 -11 1059 66 998 139 c 1
EndSplineSet
LCarets2: 1 0
EndChar

StartChar: k1sh
Encoding: 65568 -1 149
Width: 2913
GlyphClass: 3
LigCaretCntFixed: 1
Flags: W
HStem: -21 141<296.352 513.879 842.805 1111.91> 0 140<1698 2215 2355 2673> 355 139<1985.95 2217> 502 140<711 1241> 870 152<842.124 1106.92 1940.5 2188.52>
VStem: 100 141<174.805 396.135> 549 140<301.188 498> 1265 140<301.891 491> 1592 141<167.502 405.444> 1744 142<582.776 813.906> 2215 140<140 359 544 845.64> 2673 140<140 618 827.314 1026.27>
LayerCount: 2
Fore
SplineSet
407 120 m 0xbff0
 495 120 575 202 575 301 c 0
 575 305 574 310 574 314 c 2
 574 315 l 1
 557 370 549 429 549 491 c 0
 549 493 549 496 549 498 c 1
 395 486 241 429 241 284 c 0
 241 193 319 120 407 120 c 0xbff0
689 492 m 0
 689 303 802 122 974 122 c 0
 1160 122 1265 310 1265 494 c 0
 1265 498 1265 501 1265 505 c 1
 1075 504 886 503 696 502 c 2
 689 502 l 1
 689 499 689 495 689 492 c 0
2673 618 m 1
 2590 513 2484 437 2357 392 c 1
 2355 140 l 1
 2673 140 l 1x7ff0
 2673 618 l 1
1241 645 m 1
 1195 784 1085 870 976 870 c 0
 866 870 756 783 711 642 c 1
 1221 645 l 1
 1241 645 l 1
2064 881 m 0
 1965 881 1886 794 1886 702 c 0
 1886 580 2006 494 2140 494 c 0
 2164 494 2190 497 2218 501 c 1
 2220 686 l 1
 2220 814 2176 881 2064 881 c 0
1537 0 m 2
 1496 0 1467 33 1467 76 c 0
 1467 99 1478 118 1501 131 c 0
 1558 161 1592 221 1592 285 c 0
 1592 397 1502 466 1405 491 c 1
 1404 232 1239 -20 975 -20 c 0
 857 -20 746 38 669 128 c 1
 619 43 532 -21 406 -21 c 0xbff0
 242 -21 100 115 100 278 c 0
 100 524 327 627 565 640 c 1
 613 841 773 1022 979 1022 c 0
 1179 1022 1343 838 1389 637 c 1
 1575 608 1733 484 1733 283 c 0
 1733 234 1721 185 1698 140 c 1
 2215 140 l 1
 2217 359 l 1
 2194 356 2171 355 2149 355 c 0
 1934 355 1744 493 1744 700 c 0
 1744 880 1893 1021 2067 1021 c 0
 2263 1021 2360 888 2360 685 c 1
 2358 544 l 1
 2516 616 2640 780 2674 975 c 0
 2679 1006 2711 1032 2746 1032 c 0
 2782 1032 2813 999 2813 962 c 2
 2813 70 l 2
 2813 32 2781 0 2743 0 c 2
 1537 0 l 2
EndSplineSet
LCarets2: 2 0 0
EndChar

StartChar: k3u1
Encoding: 65574 -1 155
Width: 1804
GlyphClass: 3
Flags: W
HStem: -543 140<262.96 1697.71> -207 140<264.658 1265.77> -20 138<419.851 724.257> 880 141<419.537 545.217 1070.64 1376.95>
VStem: 102 140<-372.64 -235.303 304.595 683.322> 827 140<231.163 758.825> 1565 140<216.165 654.767>
LayerCount: 2
Fore
SplineSet
422 -207 m 4
 320 -207 242 -231 242 -306 c 4
 242 -370 307 -402 436 -402 c 6
 440 -402 l 5
 1633 -403 l 5
 1634 -403 l 6
 1672 -403 1704 -435 1704 -473 c 4
 1704 -503 1674 -543 1648 -543 c 6
 1633 -543 l 5
 440 -542 l 6
 248 -542 102 -478 102 -303 c 4
 102 -134 251 -67 420 -67 c 6
 445 -67 l 5
 897 -74 l 6
 916 -74 934 -75 952 -75 c 4
 1310 -75 1565 81 1565 436 c 4
 1565 661 1444 880 1217 880 c 4
 1037 880 967 745 967 545 c 6
 967 453 l 6
 967 177 849 -20 577 -20 c 4
 301 -20 100 219 100 476 c 4
 100 745 259 937 456 1017 c 4
 465 1021 476 1023 490 1023 c 4
 520 1023 553 989 553 958 c 4
 553 925 532 897 508 888 c 4
 360 828 240 683 240 481 c 4
 240 298 384 118 577 118 c 4
 768 118 825 257 827 453 c 5
 827 545 l 6
 827 825 945 1021 1222 1021 c 4
 1524 1021 1705 730 1705 438 c 4
 1705 -4 1393 -214 940 -214 c 6
 894 -214 l 5
 443 -207 l 6
 436 -207 429 -207 422 -207 c 4
EndSplineSet
LCarets2: 1 0
EndChar

StartChar: k3u2
Encoding: 65575 -1 156
Width: 1759
GlyphClass: 3
Flags: W
HStem: -553 140<268.322 1654.06> -205 140<265.372 1340.97> -7 141<426.552 728.348> 334 140<1253.97 1343.53> 880 141<413.485 536.217 1078.57 1383.31>
VStem: 100 140<-385.466 -236.932 337.753 678.276> 830 140<245.889 762.32> 1483 139<543.586 783.263> 1529 128<82.7565 273.956>
LayerCount: 2
Fore
SplineSet
1249 1021 m 4xff
 1448 1021 1622 865 1622 664 c 4xff
 1622 568 1580 481 1517 421 c 5
 1596 368 1657 282 1657 161 c 4
 1657 -99 1443 -203 1174 -206 c 4
 1137 -206 990 -205 955 -205 c 6
 451 -205 l 6
 334 -205 240 -226 240 -311 c 4
 240 -394 334 -413 442 -413 c 6
 1589 -413 l 6
 1628 -413 1659 -444 1659 -483 c 4
 1659 -521 1627 -553 1589 -553 c 4
 1206 -553 824 -553 441 -553 c 4
 262 -553 100 -489 100 -310 c 4
 100 -126 264 -65 451 -65 c 6
 955 -65 l 6
 1007 -65 1093 -66 1164 -66 c 4
 1336 -66 1529 65 1529 185 c 4xfe80
 1529 237 1493 286 1404 322 c 4
 1377 333 1361 335 1344 335 c 4
 1334 335 1323 334 1309 334 c 4
 1276 334 1248 370 1248 396 c 4
 1248 442 1274 470 1317 474 c 4
 1407 483 1483 568 1483 661 c 4
 1483 789 1363 880 1232 880 c 4
 1043 880 970 753 970 549 c 6
 970 457 l 6
 970 194 853 -7 595 -7 c 4
 293 -7 103 218 104 527 c 4
 104 755 272 944 446 1017 c 4
 455 1021 466 1023 481 1023 c 4
 511 1023 544 989 544 958 c 4
 544 925 523 897 500 888 c 4
 362 831 244 690 244 504 c 4
 244 305 391 134 586 134 c 4
 763 134 830 265 830 457 c 6
 830 549 l 6
 830 841 957 1021 1249 1021 c 4xff
EndSplineSet
LCarets2: 1 0
EndChar

StartChar: k3r1
Encoding: 65576 -1 157
Width: 1831
GlyphClass: 3
Flags: W
HStem: -558 140<646.444 1004.65> -221 137<660.668 990.883> -20 139<427.428 738.748> 878 140<425.23 552.933 1083.66 1384.23>
VStem: 100 142<315.114 679.685> 487 141<-390.607 -256.696> 844 140<232.989 758.518> 1026 141<-333.332 -263.196> 1592 139<142.876 633.39>
LayerCount: 2
Fore
SplineSet
628 -324 m 0
 628 -410 734 -418 860 -418 c 0
 946 -418 1026 -396 1026 -327 c 0
 1026 -257 923 -221 822 -221 c 0
 724 -221 628 -255 628 -324 c 0
497 1017 m 0
 526 1017 559 980 559 950 c 0
 559 917 536 889 512 880 c 0
 366 827 242 689 242 500 c 0
 242 298 384 119 593 119 c 0
 770 119 844 245 844 443 c 2
 844 535 l 1
 846 810 957 1018 1230 1018 c 0
 1552 1018 1731 715 1731 400 c 0
 1731 -117 1346 -558 839 -558 c 0
 638 -558 487 -493 487 -322 c 0
 487 -158 641 -84 819 -84 c 0
 1008 -84 1167 -156 1167 -331 c 0
 1167 -333 1167 -334 1167 -336 c 1
 1380 -219 1592 68 1592 391 c 0
 1592 646 1465 878 1229 878 c 0
 1042 878 984 730 984 535 c 2
 984 443 l 2
 984 166 863 -20 589 -20 c 0
 309 -20 100 218 100 485 c 0
 100 716 272 1017 497 1017 c 0
EndSplineSet
LCarets2: 1 0
EndChar

StartChar: k3k3
Encoding: 65577 -1 158
Width: 1819
GlyphClass: 3
LigCaretCntFixed: 1
Flags: W
HStem: -737.493 120.087<767.669 1004.28 1328.6 1451.97> -132.402 121.433<766.424 872.578 1220.23 1466.11> -10 138<419.745 723.657 1213.13 1377.1> 891 141<418.549 544.745 1074.96 1396.91>
VStem: 100 139<319.723 684.203> 551.976 120.017<-521.441 -232.435> 826 140<241.603 770.761> 1052 120<-567.422 -182.14> 1557.36 119.697<-509.676 -228.132> 1580 140<338.905 702.093>
LayerCount: 2
Fore
SplineSet
671.992336147 -383.839748905 m 4xff80
 671.992336147 -507.388008919 772.539627517 -617.405976381 895.96408056 -617.405976381 c 4
 1008.57346897 -617.405976381 1052 -534.650144316 1052 -402 c 6
 1052 -338 l 6
 1052 -141.536194184 1150.73776106 -10.9681917948 1338.17981095 -10.9681917948 c 4
 1532.66997129 -10.9681917948 1677.05416004 -180.790380384 1677.05416004 -359.063393578 c 4
 1677.05416004 -551.385129744 1556.13171289 -689.542405937 1403 -734 c 4
 1397 -736 1390 -737 1382 -737 c 4
 1352 -737 1326 -708 1326 -685 c 4
 1326 -649 1341 -627 1370 -619 c 4
 1470.44722353 -589.456698962 1557.35703801 -490.088867026 1557.35703801 -370.813796408 c 4
 1557.35703801 -235.95571015 1465.9635626 -132.401546292 1332.70989124 -132.401546292 c 4
 1217.10307162 -132.401546292 1172 -213.470197054 1172 -338 c 6
 1172 -402 l 6
 1172 -599.713289175 1079.13186687 -737.493421053 894.254378371 -737.493421053 c 4
 705.606926479 -737.493421053 551.975806452 -574.169311899 551.975806452 -389.155823067 c 4
 551.975806452 -204.795397835 658.156481545 -74.9329364806 791 -18 c 4
 799 -15 809 -13 821 -13 c 4
 846 -13 875 -44 875 -69 c 4
 875 -98 862 -118 837 -129 c 4
 744.830788979 -167.069891508 671.992336147 -258.718190417 671.992336147 -383.839748905 c 4xff80
EndSplineSet
Refer: 59 3351 S 1 0 0 1 0 8 2
LCarets2: 2 0 0
EndChar

StartChar: k3k3u1
Encoding: 65578 -1 159
Width: 1819
GlyphClass: 3
LigCaretCntFixed: 1
Flags: W
HStem: -1124 129<718.141 1716.43> -889 125<713.783 1432.9> -756.481 121.135<809.196 1043.7> -135.689 120.231<811.463 924.267 1261.12 1493.84> -18 138<419.745 723.657 1213.13 1377.1> 883 141<418.549 544.745 1074.96 1396.91>
VStem: 100 139<311.723 676.203> 593.207 119.725<-984.415 -896.78 -538.166 -239.759> 826 140<233.603 762.761> 1092 120<-583.666 -188.198> 1580 140<330.905 694.093> 1599.59 120.154<-603.835 -257.253>
LayerCount: 2
Fore
SplineSet
593.206716535 -935.558294906 m 0xf7d0
 593.206716535 -813.87847454 704.631637777 -764 827.511023824 -764 c 2
 1194.20961644 -764 l 2
 1324.40554466 -764 1399.14918151 -754.630524799 1478 -693 c 0
 1559.33010341 -630.366472083 1599.58667943 -543.263608693 1599.58667943 -431.69140983 c 0
 1599.58667943 -289.996414329 1514.46776468 -135.689344838 1380.28962675 -135.689344838 c 0
 1249.24810682 -135.689344838 1212 -218.460074506 1212 -355 c 2
 1212 -418 l 2
 1212 -614.700899366 1119.07506067 -756.480769231 936.407034424 -756.480769231 c 0
 746.341191251 -756.480769231 591.795266328 -591.289157107 591.795266328 -404.973066247 c 0
 591.795266328 -209.574646458 702.623615553 -79.5898790486 844 -19 c 0
 852.115092005 -15.4142616723 860.123334818 -13.8230415825 867.776027916 -13.8230415825 c 0
 900.673189706 -13.8230415825 927 -43.2278613059 927 -70 c 0
 927 -100 914 -120 889 -130 c 0
 791.290576247 -170.292545878 711.878136976 -265.89882141 711.878136976 -399.445386388 c 0
 711.878136976 -523.316815948 808.854442338 -635.346096971 932.013070097 -635.346096971 c 0
 1038.37468248 -635.346096971 1092 -563.193738863 1092 -418 c 2
 1092 -355 l 2
 1092 -156.290405827 1185.45966548 -15.4587926722 1369.9446207 -15.4587926722 c 0
 1589.75624303 -15.4587926722 1719.74093803 -214.847329426 1719.74093803 -430.15542858 c 4
 1719.74093803 -740.292554671 1492.73705011 -889 1182.11246775 -889 c 2
 832.274578146 -889 l 2
 754.138475756 -889 712.931806438 -900.852062044 712.931806438 -940.56212121 c 0
 712.931806438 -976.854040403 754.93231736 -995 838 -995 c 2
 1634 -995 l 2
 1691 -995 1719 -1016 1719 -1060 c 0
 1719 -1102 1690 -1124 1632 -1124 c 2
 811 -1124 l 2
 705.004301279 -1124 593.206716535 -1054.71640849 593.206716535 -935.558294906 c 0xf7d0
EndSplineSet
Refer: 59 3351 N 1 0 0 1 0 0 2
LCarets2: 1 0
EndChar

StartChar: k3k3u2
Encoding: 65579 -1 160
Width: 1819
GlyphClass: 3
LigCaretCntFixed: 1
Flags: W
HStem: -1132 120<729.347 1715.37> -888 119<731.27 1547.44> -748.496 119.15<830.258 1067.9> -511 119<1412.88 1488.5> -128.382 119.403<824.441 936.578 1287.52 1525.15> -18 138<419.745 723.657 1213.13 1377.1> 883 141<418.549 544.745 1074.96 1396.91>
VStem: 100 139<311.723 676.203> 606.414 119.331<-999.708 -901.565 -522.006 -236.402> 826 140<233.603 762.761> 1117 119<-578.714 -181.79> 1572.8 122.572<-363.756 -174.931> 1580 140<330.905 694.093> 1597.28 119.221<-718.207 -533.615>
LayerCount: 2
Fore
SplineSet
1405.94989529 -8.97927902302 m 0xfbf0
 1564.99146759 -8.97927902302 1695.37489772 -137.670096997 1695.37489772 -274.922403235 c 0xfbf0
 1695.37489772 -330.292234931 1674.17212671 -387.21567241 1625 -438 c 1
 1683.52452796 -482.590116538 1716.50113562 -553.685488815 1716.50113562 -626.494470724 c 0
 1716.50113562 -802.42826859 1557.4090595 -888 1369 -888 c 2
 863 -888 l 2
 772.900709597 -888 725.744757853 -907.506486616 725.744757853 -952.489804267 c 0
 725.744757853 -992.748433838 768.870589027 -1012 856 -1012 c 2
 1659 -1012 l 2
 1682 -1012 1719 -1046 1719 -1072 c 0
 1719 -1098 1695 -1132 1672 -1132 c 2
 856 -1132 l 2
 712.712524144 -1132 606.414190992 -1065.54388023 606.414190992 -953.218727452 c 0
 606.414190992 -825.203613849 712.261580857 -769 863 -769 c 2
 1396 -769 l 1
 1504.9300979 -767.547598695 1597.28 -722.0328932 1597.28 -622.904 c 0xfbe4
 1597.28 -568.490858758 1554.54126201 -510.290858726 1488.87038927 -510.290858726 c 0
 1481.05817175 -510.290858726 1472.94736842 -511 1462 -511 c 0
 1439 -511 1410 -485 1410 -457 c 0
 1410 -423 1431 -395 1460 -392 c 0
 1531.65461154 -385.065682754 1572.80265352 -329.148566498 1572.80265352 -270.068642572 c 0
 1572.80265352 -190.795233636 1495.0166733 -128.381834726 1405.77222068 -128.381834726 c 0
 1280.5703384 -128.381834726 1236 -215.711242939 1236 -350 c 2
 1236 -414 l 2
 1236 -611.071812872 1141.24052739 -748.495954996 960.999667707 -748.495954996 c 0
 765.786477239 -748.495954996 609 -580.600323848 609 -391 c 0
 610 -204 719 -69 856 -12 c 0
 864 -9 873 -7 885 -7 c 0
 910 -7 939 -37 939 -63 c 0
 939 -93 926 -112 901 -122 c 0
 804.822023785 -162.074156756 728.992413905 -256.731753027 728.992413905 -388.866673975 c 0
 728.992413905 -514.973859726 830.19501585 -629.346210763 956.130393518 -629.346210763 c 0
 1063.37679784 -629.346210763 1117 -557.267817161 1117 -414 c 2
 1117 -350 l 2
 1117 -146.842560969 1215.74584774 -8.97927902302 1405.94989529 -8.97927902302 c 0xfbf0
EndSplineSet
Refer: 59 3351 N 1 0 0 1 0 0 2
LCarets2: 1 0
EndChar

StartChar: k3k3r1
Encoding: 65580 -1 161
Width: 1819
GlyphClass: 3
LigCaretCntFixed: 1
Flags: W
HStem: -1003.12 120.121<1077.07 1266.57> -802 119.024<1074.17 1276.1> -680.205 119.443<915.237 1132.31> -141.926 120.618<917.097 1028.36 1322.15 1529.37> -18 138<419.745 723.657 1213.13 1377.1> 883 141<418.549 544.745 1074.96 1396.91>
VStem: 100 139<311.723 676.203> 721.345 117.727<-482.37 -223.919> 826 140<233.603 762.761> 951.295 121.357<-877.831 -806.741> 1167 120<-525.678 -179.378> 1580 140<330.905 694.093> 1616.37 118.607<-601.625 -241.094>
LayerCount: 2
Fore
SplineSet
1277.12041052 -850.053024606 m 0xfe60
 1277.12041052 -813.640146337 1228.37505629 -802 1174 -802 c 0
 1116.51570175 -802 1072.6522325 -810.579810771 1072.6522325 -846.383405583 c 0
 1072.6522325 -874.295376952 1126.74574345 -883 1154 -883 c 2
 1193 -883 l 2
 1237.14113019 -883 1277.12041052 -872.59537536 1277.12041052 -850.053024606 c 0xfe60
1030.2933227 -680.204639466 m 0
 859.564226232 -680.204639466 721.34538668 -531.165891903 721.34538668 -354.406639137 c 0
 721.34538668 -197.299867833 826.03372351 -70.7091488981 950 -26 c 0
 957 -23 965 -22 974 -22 c 0
 998.62895151 -22 1031.02219425 -44.3223372911 1031.02219425 -72.7127719317 c 0
 1031.02219425 -73.1404892019 1031.01484194 -73.5695837514 1031 -74 c 0
 1031 -108 1018 -130 991 -139 c 0
 910.962492557 -168.261024227 839.072288683 -256.034501363 839.072288683 -351.326111167 c 0
 839.072288683 -467.74060179 925.195930237 -560.761732884 1035.74394335 -560.761732884 c 0
 1132.46908416 -560.761732884 1163.86053125 -491.741937586 1167 -385 c 1
 1167 -329 l 2
 1167 -152.391759646 1242.91283841 -21.308370264 1417.25915485 -21.308370264 c 0
 1618.9082497 -21.308370264 1734.97719672 -219.423122741 1734.97719672 -412.558083799 c 0
 1734.97719672 -733.297523264 1488.43023642 -1003.1205165 1182.16186469 -1003.1205165 c 0
 1054.68539895 -1003.1205165 951.295454545 -960.047924451 951.295454545 -840.305033809 c 0
 951.295454545 -731.990237658 1060.82777672 -682.975814837 1170.28391792 -682.975814837 c 0
 1288.74254901 -682.975814837 1374.87959853 -727.404329557 1394 -822 c 1
 1499.16805111 -753.851102884 1616.36972925 -591.556770667 1616.36972925 -414.921293192 c 0xff68
 1616.36972925 -279.968621618 1547.51287475 -141.926213396 1417.00261656 -141.926213396 c 0
 1329.64787315 -141.926213396 1286.98255657 -205.358949203 1286.98255657 -324.802034649 c 0
 1286.98255657 -326.193510137 1286.98837052 -327.59283297 1287 -329 c 2
 1287 -385 l 1
 1285.15299802 -562.312190508 1201.37548885 -680.204639466 1030.2933227 -680.204639466 c 0
EndSplineSet
Refer: 59 3351 N 1 0 0 1 0 0 2
LCarets2: 1 0
EndChar

StartChar: k3th3
Encoding: 65581 -1 162
Width: 1736
GlyphClass: 3
LigCaretCntFixed: 1
Flags: W
HStem: -30 141<407.601 677.182 1153.43 1419.34> 403 144<1207.49 1426.88> 881 142<408.407 519.496 1031.34 1374.91>
VStem: 100 141<300.409 676.477> 777 143<227.698 762.633> 1467 140<587.373 797.362> 1497 139<183.388 366.088>
LayerCount: 2
Fore
SplineSet
1497 279 m 4xfa
 1497 370.940624772 1412.57627114 400.116413917 1303 403 c 5
 1270 403 l 6
 1233 403 1201 436 1201 472 c 4
 1201 508 1227.61173052 543 1260 543 c 4
 1286.30269995 543 1301.52361113 547 1326 547 c 4
 1407 547 1467 616 1467 690 c 4
 1467 821 1324 881 1200 881 c 4
 1001 881 922 767 920 560 c 5
 920 439 l 5
 917 185 803 -30 550 -30 c 4
 288 -30 100 227 100 473 c 4
 100 729 247 931 425 1017 c 4
 435 1022 448 1025 463 1025 c 4
 492 1025 526 991 526 963 c 4
 526 928 513 904 486 891 c 4
 355 828 241 670 241 485 c 4
 241 314 362 111 538 111 c 4
 715 111 775 255 777 442 c 5
 777 562 l 5
 782 842 920 1023 1192 1023 c 4
 1407 1023 1607 908 1607 692 c 4xfc
 1607 616 1576 543 1523 490 c 5
 1598 439 1636 370 1636 280 c 4
 1636 100 1478 -19 1299 -19 c 4
 1227.90229393 -19 1096 2.2779295081 1096 88 c 4
 1096 119 1129 153 1160 153 c 4
 1201.92472506 153 1249.61783329 120 1297 120 c 4
 1395 120 1497 185 1497 279 c 4xfa
EndSplineSet
LCarets2: 2 0 0
EndChar

StartChar: k3th3r1
Encoding: 65584 -1 165
Width: 1817
GlyphClass: 3
LigCaretCntFixed: 1
Flags: W
HStem: -482.694 140.797<1081.74 1281.23> -145.987 142.123<921.283 1114.1> -21.3213 140.621<403.023 678.801> 401 143<1206.72 1321.7> 882.384 140.855<406.262 516.375 1030.07 1371.9>
VStem: 99.6091 141.787<302.577 675.685> 777.037 140.41<-285.039 -152.566 231.36 762.635> 1467.36 139.167<581.315 796.163> 1577.24 141.739<-130.814 220.985>
LayerCount: 2
Fore
SplineSet
917.446399203 -208.103854953 m 0xde
 917.446399203 -304.991347048 1070.55889776 -341.896363363 1175.75877247 -341.896363363 c 0
 1215.39039588 -341.896363363 1254.54044219 -336.805115585 1289 -326 c 1
 1154.45621261 -206.517084332 1060.19833799 -145.987251996 999.09400555 -145.987251996 c 0
 948.798260564 -145.987251996 917.446399203 -172.793375368 917.446399203 -208.103854953 c 0xde
1198.05383757 882.384122607 m 0
 1000.87498399 882.384122607 920 767.617231613 920 561 c 2
 920 440 l 1
 918.276353534 188.347615921 802.23828125 -21.3212890625 551.879882812 -21.3212890625 c 0
 289.154296875 -21.3212890625 99.6091084739 227.65808963 99.6091084739 473.676971189 c 0
 99.6091084739 730.124061797 243.274414062 929.157226562 421 1016 c 0
 431 1021 444 1023 459 1023 c 0
 489 1023 522 989 522 959 c 0
 522 926 509 903 482 890 c 0
 352.81640625 826.7265625 241.396109819 663.818684646 241.396109819 489.57085766 c 0
 241.396109819 294.378380627 365.413085938 119.299804688 552.741210938 119.299804688 c 0
 710.915039062 119.299804688 773.833610775 262.515814171 777 443 c 1
 777 563 l 1
 782.245020066 840.986063498 919.389420634 1023.23902246 1189.37204912 1023.23902246 c 0
 1405.42402962 1023.23902246 1606.52630927 906.797994477 1606.52630927 691.102666815 c 0xbf
 1606.52630927 600.713360066 1564.28021237 514.902554828 1498 462 c 1
 1625.82072346 376.346937891 1718.97986203 236.813043831 1718.97986203 41.3252754583 c 0
 1718.97986203 -250.150878393 1471.49726271 -482.693545624 1171.6160454 -482.693545624 c 1
 998 -455 l 1
 878.659519818 -416.877346608 777.036845465 -334.42293653 777.036845465 -209.068966337 c 0
 777.036845465 -81.9676445117 881.112790748 -3.86468247739 1005.3611904 -3.86468247739 c 0
 1050.20587104 -3.86468247739 1094.7521409 -15.9641259212 1139 -40 c 0
 1220 -84 1315 -157 1423 -258 c 1
 1524.8005177 -180.878395681 1577.24122539 -81.7318184114 1577.24122539 48.6134241921 c 0xbe80
 1577.24122539 230.668731631 1447.14359858 371.083064002 1287 401 c 0
 1244 406 1201 424 1201 472 c 0
 1201 510 1226 544 1271 544 c 0
 1276.50291375 544 1306.53596778 540.308908868 1322.45384076 540.308908868 c 0
 1395.94991765 540.308908868 1467.35920375 601.465996816 1467.35920375 685.200697056 c 0xbf
 1467.35920375 819.86526747 1325.87314154 882.384122607 1198.05383757 882.384122607 c 0
EndSplineSet
LCarets2: 1 0
EndChar

StartChar: k3th3th4
Encoding: 65585 -1 166
Width: 2954
GlyphClass: 3
LigCaretCntFixed: 1
Flags: W
HStem: -21.2051 139.685<384.807 662.845 2214.83 2514.96> -14.624 180.031<1214.23 1582.22> 63 135<1131.21 1246.76> 382 140<1208.78 1414.84> 877.685 140.548<1070.83 1369.72 2204.62 2511.37> 979 20G<1931.71 1969.21>
VStem: 100 138.847<288.019 679.707> 1469.55 140.099<574.549 785.348> 1501.88 138.528<206.02 350.912> 1879.21 142<300.794 993.408> 2712.58 142.071<309.738 671.021>
LayerCount: 2
Fore
SplineSet
1501.87988281 280.264648438 m 0x52e0
 1501.87988281 360.432617188 1398.46191406 379.453125 1304.21289062 382 c 1
 1271.21289062 382 l 1
 1235.21289062 383 1203.21289062 414 1203.21289062 450 c 0
 1203.21289062 486 1230.21289062 517 1261.21289062 522 c 1
 1289.21289062 522 l 1
 1399.82714844 539.137695312 1469.55175781 580.591796875 1469.55175781 674.830078125 c 0
 1469.55175781 786.3828125 1348.70019531 877.684570312 1233.06542969 877.684570312 c 0
 1003.22949219 877.684570312 939.947265625 696.697265625 923.212890625 468 c 4
 904.486328125 208.709960938 797.293945312 -21.205078125 524.038085938 -21.205078125 c 4
 257.416015625 -21.205078125 100 219.465820312 100 471.32421875 c 4
 100 708.463867188 211.90234375 888.7109375 357.212890625 997 c 4
 369.212890625 1006 383.212890625 1011 401.212890625 1011 c 4
 439.212890625 1011 469.212890625 976 469.212890625 937 c 4
 469.212890625 916 459.212890625 898 440.212890625 884 c 4
 333.666015625 804.896484375 238.846679688 651.51953125 238.846679688 478.560546875 c 4
 238.846679688 287.478515625 355.510742188 118.479492188 525.578125 118.479492188 c 4
 714.139648438 118.479492188 764.416992188 281.602539062 778.212890625 476 c 4
 799.697265625 773.197265625 927.545898438 1018.23242188 1219.83984375 1018.23242188 c 0
 1423.56640625 1018.23242188 1609.65039062 878.932617188 1609.65039062 675.4765625 c 0x9b60
 1609.65039062 598.5390625 1577.98925781 525.211914062 1523.21289062 475 c 1
 1584.14941406 438.244140625 1640.40820312 372.486328125 1640.40820312 278.630859375 c 0
 1640.40820312 224.649414062 1622.2890625 181.516601562 1587.21289062 139 c 1
 1732.21289062 174 1879.21289062 280.29296875 1879.21289062 437 c 2
 1879.21289062 930 l 2
 1879.21289062 967 1913.21289062 999 1950.21289062 999 c 0
 1988.21289062 999 2021.21289062 967.012695312 2021.21289062 929 c 2
 2021.21289062 432 l 1
 2039.88964844 265.462890625 2188.37988281 127.994140625 2361.69824219 127.994140625 c 0
 2563.35839844 127.994140625 2712.58203125 284.47265625 2712.58203125 489.376953125 c 0
 2712.58203125 695.463867188 2545.54296875 881.428710938 2345.328125 881.428710938 c 0
 2314.60839844 881.428710938 2289.98144531 875 2256.21289062 875 c 0
 2228.21289062 875 2198.21289062 913 2198.21289062 943 c 0
 2198.21289062 979 2225.8125 1020.8359375 2257.21289062 1020.8359375 c 0
 2609.09375 1020.8359375 2854.65332031 834.487304688 2854.65332031 496.537109375 c 0
 2854.65332031 192.440429688 2620.17675781 -12.2724609375 2358.11523438 -12.2724609375 c 0
 2178.17871094 -12.2724609375 2021.38671875 94.8154296875 1943.21289062 228 c 1
 1852.44628906 87.724609375 1696.33105469 -14.6240234375 1459.25097656 -14.6240234375 c 0x56e0
 1352.58007812 -14.6240234375 1244.15722656 10.7373046875 1133.21289062 63 c 0
 1132.21289062 63 1131.21289062 64 1131.21289062 64 c 1
 1131.21289062 66 1127.21289062 66 1121.21289062 69 c 0
 1105.21289062 76 1090.21289062 107 1090.21289062 133 c 0
 1090.21289062 163 1123.21289062 198 1153.21289062 198 c 0x32e0
 1168.21289062 198 1178.21289062 196 1184.21289062 193 c 0
 1226.69140625 174.44140625 1272.40234375 165.407226562 1315.87304688 165.407226562 c 0
 1393.49121094 165.407226562 1501.87988281 202.48046875 1501.87988281 280.264648438 c 0x52e0
EndSplineSet
LCarets2: 4 1 2979 0 0
EndChar

StartChar: k3n1
Encoding: 65588 -1 169
Width: 2397
GlyphClass: 3
LigCaretCntFixed: 1
Flags: W
HStem: -35 140<421.684 737.845 1639.9 1924.77> 888 141<1037.48 1247.6 1636.05 1968.03>
VStem: 100 141<307.956 708.624> 816 141<363.559 804.924> 850 140<215.367 660.987> 1356 140<-25 747.251> 2157 140<326.756 688.887>
LayerCount: 2
Fore
SplineSet
1802 888 m 4xf6
 1638 888 1526 783 1496 640 c 5
 1496 38 l 6
 1496 2 1465 -30 1431 -30 c 4
 1385 -30 1356 -2 1356 38 c 6
 1356 526 l 5
 1355 678 1320 783 1251 842 c 4
 1216 872 1179 884 1143 884 c 4
 1032 884 957 777 957 663 c 4xf6
 957 609 990 435 990 357 c 4
 990 131 814 -35 585 -35 c 4
 292 -35 100 222 100 497 c 4
 100 731 217 910 358 1016 c 4
 371 1025 385 1030 399 1030 c 4
 442 1030 471 997 471 961 c 4
 471 936 461 916 442 902 c 4
 335 822 241 682 241 509 c 4
 241 301 367 105 585 105 c 4
 735 105 850 207 850 361 c 4xee
 850 476 816 593 816 665 c 4
 816 846 953 1025 1138 1025 c 4
 1287 1025 1384 927 1435 828 c 5
 1512 950 1629 1029 1803 1029 c 4
 2085 1029 2297 789 2297 512 c 4
 2297 247 2124 60 1915 -5 c 4
 1861 -21 1808 -29 1754 -29 c 4
 1689 -29 1631 -19 1631 45 c 4
 1631 75 1661 114 1689 114 c 6
 1710 114 l 6
 1725 112 1740 112 1755 112 c 4
 1983 112 2157 283 2157 508 c 4
 2157 705 2015 888 1802 888 c 4xf6
EndSplineSet
LCarets2: 2 0 2
EndChar

StartChar: k3n1u1
Encoding: 65589 -1 170
Width: 2504
GlyphClass: 3
LigCaretCntFixed: 1
Flags: W
HStem: -29 138<425.79 709.486 1922.82 2158.2> 487 139<1923.02 2161.4> 886 141<1007.31 1231.73 1639.7 2000.98>
VStem: 100 140<304.117 694.151> 799 143<366.62 819.578> 832 138<223.305 731.872> 1337 140<-21.1406 713.422> 1712 140<179.682 416.707> 2228 176<188.812 420.672>
LayerCount: 2
Fore
SplineSet
2048 487 m 4xf380
 1944 487 1852 410 1852 298 c 4
 1852 199 1935 109 2042 109 c 4
 2140 109 2228 192 2228 297 c 4
 2228 384 2161 487 2048 487 c 4xf380
2234 562 m 5
 2174 732 2032 886 1812 886 c 4
 1704 886 1619 847 1556 767 c 4
 1488 679 1477 597 1477 438 c 6
 1477 42 l 5
 1476 -2 1451 -25 1400 -26 c 4
 1368 -26 1337 9 1337 42 c 6
 1337 505 l 5
 1336 666 1302 778 1234 841 c 4
 1199 874 1162 890 1123 890 c 4
 994 890 942 778 942 628 c 4xfb80
 942 617 942 606 943 594 c 4
 943 592 944 585 947 572 c 4
 962 482 970 410 970 354 c 4
 970 143 800 -18 602 -25 c 4
 596 -25 590 -25 584 -25 c 4
 309 -25 100 211 100 497 c 4
 100 732 233 922 387 1021 c 4
 399 1029 413 1033 430 1033 c 4
 468 1033 496 998 496 958 c 4
 496 935 485 917 463 904 c 4
 348 830 240 682 240 499 c 4
 240 291 363 115 572 115 c 4
 719 115 832 222 832 364 c 4xf780
 832 418 799 595 799 618 c 4
 799 623 799 629 799 634 c 4xfb80
 799 847 922 1028 1120 1028 c 4
 1258 1028 1370 928 1420 817 c 5
 1500 944 1634 1027 1819 1027 c 4
 2113 1027 2319 792 2383 552 c 4
 2397 498 2404 446 2404 397 c 4
 2404 173 2266 -29 2041 -29 c 4
 1853 -29 1712 115 1712 303 c 4
 1712 485 1863 626 2047 626 c 4
 2114 626 2176 604 2234 562 c 5
EndSplineSet
LCarets2: 1 0
EndChar

StartChar: k3n1u2
Encoding: 65590 -1 171
Width: 2723
GlyphClass: 3
LigCaretCntFixed: 1
Flags: W
HStem: -381 140<1954.03 2287.1> -33 138<435.058 710.616 1926.72 2145.6> 485 138<1962.35 2173.94> 883 140<1013.58 1233.88 1631.92 1971.87>
VStem: 100 142<307.069 691.116> 799 141<369.056 807.843> 832 140<221.658 662.944> 1339 140<-25.0613 729.035> 1727 141<163.401 396.871> 2236 140<206.057 373> 2482 141<-55.6984 284.442>
LayerCount: 2
Fore
SplineSet
2032 105 m 4xf9e0
 2160 105 2236 235 2236 372 c 4
 2236 401 2233 432 2227 465 c 5
 2187 478 2149 485 2113 485 c 4
 1981 485 1868 397 1868 278 c 4
 1868 183 1943 105 2032 105 c 4xf9e0
1806 884 m 4
 1631 884 1511 774 1479 618 c 5
 1479 40 l 6
 1479 2 1447 -30 1409 -30 c 4
 1371 -30 1339 2 1339 39 c 6
 1339 494 l 6
 1339 659 1305 773 1237 836 c 4
 1201 869 1162 883 1124 883 c 4
 1014 883 940 778 940 664 c 4xfde0
 940 609 972 439 972 362 c 4
 972 140 801 -26 581 -26 c 4
 313 -26 100 205 100 487 c 4
 100 733 232 916 389 1017 c 4
 400 1024 414 1028 431 1028 c 4
 469 1028 497 993 497 953 c 4
 497 930 486 912 464 899 c 4
 348 826 242 679 242 503 c 4
 242 292 375 114 580 114 c 4
 725 114 832 221 832 367 c 4xfbe0
 832 483 799 595 799 668 c 4xfde0
 799 848 937 1023 1117 1023 c 4
 1259 1023 1368 925 1421 815 c 5
 1497 937 1625 1024 1800 1024 c 4
 2085 1024 2275 800 2346 566 c 5
 2502 487 2623 336 2623 114 c 4
 2622 -164 2404 -381 2125 -381 c 4
 2027 -381 1930 -352 1849 -298 c 4
 1828 -284 1817 -266 1817 -244 c 4
 1817 -204 1845 -169 1883 -169 c 4
 1900 -169 1915 -173 1927 -181 c 4
 1989 -223 2056 -241 2121 -241 c 4
 2309 -241 2482 -87 2482 97 c 4
 2482 99 2482 100 2482 102 c 4
 2482 213 2446 303 2376 373 c 5
 2376 372 2376 370 2376 369 c 4
 2376 173 2252 -33 2042 -33 c 4
 1872 -33 1727 98 1727 272 c 4
 1727 479 1897 623 2113 623 c 4
 2133 623 2154 622 2175 619 c 5
 2115 742 1981 884 1806 884 c 4
EndSplineSet
LCarets2: 1 0
EndChar

StartChar: k3m1
Encoding: 65591 -1 172
Width: 2009
GlyphClass: 3
LigCaretCntFixed: 1
Flags: W
HStem: -22 140<418.758 726.706> -5 140<954.228 1084.6 1268 1768> 872 154<1104.15 1446.81> 1005 20G<440.5 464.5>
VStem: 100 140<312.161 690.771> 847 142<262.021 728.69> 1416 142<494.529 807.875> 1768 141<135 664.2>
LayerCount: 2
Fore
SplineSet
1558 665 m 0x4f
 1558 443 1403 246 1268 135 c 1
 1768 135 l 1
 1768 506 l 2
 1768 668 1646 791 1512 846 c 1
 1542 790 1558 729 1558 665 c 0x4f
1305 1026 m 0xaf
 1608 1026 1909 838 1909 569 c 2
 1909 65 l 2
 1909 27 1876 -5 1838 -5 c 2
 1019 -5 l 2
 978 -5 949 30 949 66 c 0
 949 95 973 126 1000 136 c 0
 1154 199 1292 326 1363 470 c 0
 1398 542 1416 600 1416 643 c 0
 1416 644 1416 646 1416 647 c 0
 1416 776 1358 872 1235 872 c 0x6f
 1054.10112698 872 999.235790737 698.105286135 989 512 c 1
 989 460 l 1
 982 308 961 221 889 127 c 0
 825 44 715 -22 577 -22 c 0
 299 -22 100 221 100 498 c 0
 100 741 243 927 412 1016 c 0
 423 1022 435 1025 446 1025 c 0x9f
 483 1025 516 996 516 957 c 0
 516 925 499 903 477 892 c 0
 349 824 240 683 240 498 c 0
 240 297 380 118 578 118 c 0
 769 118 837 268 847 466 c 1
 847 518 l 1
 856 698 887 803 985 901 c 0
 1069 985 1175 1026 1305 1026 c 0xaf
EndSplineSet
LCarets2: 2 0 0
EndChar

StartChar: k3r3
Encoding: 65594 -1 175
Width: 2273
GlyphClass: 3
Flags: W
HStem: -336 141<700.415 1630.73> -4.18306 140.969<865.933 1185.82> 881.346 141.735<849.704 991.083 1530.3 1826.82>
VStem: 100.008 140.105<224.679 681.088> 539.726 140.024<331.012 690.55> 1284 140<245.628 767.054> 2033 140<183.537 644.905>
LayerCount: 2
Fore
SplineSet
1284 557 m 6
 1284 832.735774097 1406.04406021 1023.08109016 1681.19835127 1023.08109016 c 0
 1830.15302343 1023.08109016 1963.94196064 929.416181818 2034 840 c 4
 2126 725 2172 584 2173 419 c 4
 2173 13.6105174204 1912.41567437 -248.795329079 1567 -315 c 4
 1494.8125 -329.0625 1395.37890625 -336 1267.05126953 -336 c 2
 1095 -336 l 5
 819 -335 675 -314 487 -212 c 4
 280.695987405 -99.757970159 100.008380472 154.311476398 100.008380472 454.400017868 c 0
 100.008380472 690.061133897 200.82196386 875.82196386 328 1003 c 4
 342 1017 359 1024 378 1024 c 4
 417 1024 448 993 448 954 c 4
 448 934 441 917 427 904 c 4
 325.97147433 804.713345463 240.113523867 641.710275057 240.113523867 453.307309952 c 0
 240.113523867 306.116664583 280.21931425 202.151670987 353 98 c 4
 508.811064872 -129.038980242 721.201006664 -191.927877104 1096 -195 c 5
 1260.83100837 -195 l 2
 1513.76160839 -195 1651.66479678 -175.317272943 1801 -66 c 4
 1924 24 2033 197 2033 391 c 4
 2033 616 1953 782 1798 853 c 4
 1755.62604422 872.421396401 1713.18847052 881.345836266 1672.96582346 881.345836266 c 0
 1553.71776307 881.345836266 1453.93767404 802.904981272 1433 687 c 4
 1427 654 1424 611 1424 557 c 6
 1424 465 l 6
 1424 312 1407 229 1336 138 c 4
 1272.02062075 56.5716991345 1166.694161 -4.1830614815 1030.95186267 -4.1830614815 c 0
 745.940002155 -4.1830614815 539.725618596 233.800021871 539.725618596 500.397373013 c 0
 539.725618596 760.060795615 704.701672614 951.628384174 905 1021 c 4
 913 1024 924 1025 938 1025 c 4
 965 1025 999 989 999 962 c 4
 999 923 978 897 935 882 c 4
 793.432799086 836.862631593 679.749828267 680.7010311 679.749828267 503.423195795 c 0
 679.749828267 304.588695644 835.204599178 136.785677213 1034.07151827 136.785677213 c 0
 1222.26084977 136.785677213 1284 268.132078889 1284 465 c 6
 1284 557 l 6
EndSplineSet
LCarets2: 1 0
EndChar

StartChar: k4r3
Encoding: 65603 -1 184
Width: 2858
GlyphClass: 3
Flags: W
HStem: -452 140<853.059 2540.61> 3 140<1555 2617> 258 135<696.104 798.656 885.356 1007.87 1152 1414 1556 2163> 818 142<714.738 989.164> 875 140<1692.94 2033.94>
VStem: 100 141<245.073 781.172> 487 144<462.904 735.141> 1074 142<466.671 734.069> 1414 141<143 252 393 734.938> 2163 140<393 749.405> 2618 141<-237.786 3 143 1002.41>
LayerCount: 2
Fore
SplineSet
2163 393 m 5xefe0
 2163 520 l 6
 2163 656 2153 710 2094 784 c 4
 2055 832 1954 875 1859 875 c 4
 1695 875 1586 779 1566 639 c 4
 1557 576 1556 453 1556 393 c 5
 2163 393 l 5xefe0
1806 -310 m 4
 2163 -310 2262 -312 2330 -312 c 4
 2475 -312 2566 -277 2597 -202 c 4
 2619 -148 2617 -63 2617 3 c 5
 1484 3 l 6
 1447 3 1414 34 1414 71 c 6
 1414 252 l 5
 948 252 l 6
 912 252 878 280 878 315 c 4
 878 356 904 379 939 390 c 4
 1011 413 1074 510 1074 606 c 4
 1074 729 975 818 848 818 c 4
 720 818 631 720 631 601 c 4
 631 519 682 424 744 399 c 4
 784 384 804 360 804 327 c 4
 804 293 773 257 741 257 c 4
 727 257 716 259 708 262 c 4
 580 313 487 441 487 608 c 4
 487 799 651 960 844 960 c 4xf7e0
 1052 960 1216 805 1216 596 c 4
 1216 523 1194 452 1152 390 c 5
 1415 390 l 5
 1414 442 1413 490 1413 539 c 4
 1413 828 1581 1015 1868 1015 c 4
 2071 1015 2219 896 2276 752 c 4
 2298 697 2309 619 2309 517 c 4
 2309 476 2303 377 2303 346 c 6
 2303 319 l 6
 2303 284 2265 258 2234 258 c 6
 1555 258 l 5
 1555 143 l 5
 2618 143 l 5
 2618 938 l 6
 2618 976 2651 1008 2689 1008 c 4
 2719 1008 2759 979 2759 952 c 6
 2759 -37 l 6
 2759 -336 2627 -452 2328 -452 c 4
 2216 -452 2065 -450 1699 -450 c 4
 1370 -450 1162 -449 1076 -446 c 4
 862 -439 664 -365 516 -267 c 4
 285 -114 100 146 100 515 c 4
 100 687 146 845 220 974 c 4
 233 998 251 1010 275 1010 c 4
 316 1010 352 983 352 945 c 4
 352 929 349 916 342 905 c 4
 275 788 241 659 241 520 c 4
 241 322 296 170 401 33 c 4
 402 32 402 32 402 31 c 4
 543 -163 802 -300 1117 -306 c 4
 1264 -309 1493 -310 1806 -310 c 4
EndSplineSet
EndChar

StartChar: ngk1
Encoding: 65608 -1 189
Width: 1896
GlyphClass: 3
LigCaretCntFixed: 1
Flags: W
HStem: -25 141<298.673 535.635 860.94 1139.77 1375.44 1567.66> 490 150<345.015 588> 511 133<747 1255 1416 1560.55> 882 141<277.107 521.256 867.108 1127.97>
VStem: 100 139<173.993 397.803 674.135 844.067> 1255 144<650 741.949> 1276 140<284.5 510> 1653 143<194.139 428.735>
LayerCount: 2
Fore
SplineSet
413 116 m 4xd9
 520 116 607 199 607 302 c 4
 607 365 588 421 588 490 c 5
 493 490 l 5
 362 474 239 414 239 282 c 4
 239 189 321 116 413 116 c 4xd9
1276 511 m 5xbb
 729 511 l 5
 729 318 806 113 999 113 c 4
 1194 113 1276 312 1276 511 c 5xbb
382 882 m 4
 318 882 243 837 243 757 c 4
 243 659 337 640 462 640 c 6
 599 640 l 5xd9
 591 803 519 882 382 882 c 4
1255 644 m 5xbd
 1221 765 1124 884 1001 884 c 4
 870 884 779 770 747 644 c 5
 1255 644 l 5xbd
392 1023 m 4
 529 1023 636 945 691 854 c 5
 749 935 856 1024 989 1024 c 4
 1205 1024 1355 852 1399 650 c 5x9d
 1614 646 1796 528 1796 307 c 4
 1796 129 1644 -25 1461 -25 c 4
 1410 -25 1370 0 1370 47 c 4
 1370 82 1405 116 1446 116 c 5
 1545 116 1653 200 1653 296 c 4
 1653 429 1558 504 1416 510 c 5
 1416 488 l 6x9b
 1416 222 1267 -24 997 -24 c 4
 863 -24 757 54 698 132 c 5
 639 37 545 -25 410 -25 c 4
 247 -25 100 114 100 278 c 4
 100 379 151 478 234 542 c 5
 160 584 103 668 103 761 c 4
 103 916 243 1023 392 1023 c 4
EndSplineSet
LCarets2: 2 0 0
EndChar

StartChar: ngk1u1
Encoding: 65609 -1 190
Width: 1948
GlyphClass: 3
LigCaretCntFixed: 1
Flags: W
HStem: -21 140<299.746 539.38 869.239 1137.23 1484.46 1706.6> 220 162<1517.88 1706.89> 494 146<339.71 588> 511 135<747 1256 1416 1685.8> 885 142<277.422 524.243 870.694 1129.44>
VStem: 100 140<177.86 406.761 678.314 846.765> 588 142<307.995 494> 1256 143<653 745.209> 1277 140<286.692 511> 1708 141<127.33 207.974 377.675 486.13>
LayerCount: 2
Fore
SplineSet
608 305 m 4xee40
 608 369 588 426 588 494 c 5
 490 494 l 5
 359 478 240 421 240 287 c 4
 240 193 323 119 416 119 c 4
 522 119 608 202 608 305 c 4xee40
1277 511 m 5xdec0
 730 511 l 5
 730 463 734 403 742 368 c 4
 759 253 865 117 1000 117 c 4
 1189 117 1277 320 1277 511 c 5xdec0
599 640 m 5xee40
 582 794 536 885 400 885 c 4
 320 885 246 844 246 766 c 4
 246 668 331 640 444 640 c 6
 599 640 l 5xee40
1256 646 m 5xdf40
 1222 767 1128 887 1004 887 c 4
 872 887 780 773 747 646 c 5
 1256 646 l 5xdf40
1849 173 m 4
 1849 44 1733 -26 1599 -26 c 4
 1528 -26 1446 -2 1446 66 c 4
 1446 96 1479 132 1508 132 c 4
 1529 132 1566 115 1597 115 c 4
 1645 115 1708 137 1708 167 c 4
 1708 217 1610 216 1560 220 c 4
 1529 222 1499 256 1499 290 c 4
 1499 386 1627 344 1683 382 c 4
 1699 392 1707 405 1707 419 c 4
 1707 504 1584 514 1488 514 c 4
 1465 514 1440 514 1416 513 c 5
 1416 505 1417 497 1417 489 c 4xcec0
 1417 274 1324 109 1178 26 c 4
 1124 -5 1061 -21 998 -21 c 4
 864 -21 756 58 698 135 c 5
 639 40 546 -21 411 -21 c 4
 247 -21 100 118 100 282 c 4
 100 383 150 482 233 547 c 5
 160 589 104 673 104 765 c 4
 104 920 244 1027 394 1027 c 4
 531 1027 636 948 691 857 c 5
 749 938 856 1027 989 1027 c 4
 1205 1027 1356 857 1399 653 c 5
 1425 654 1451 654 1475 654 c 4
 1670 654 1847 593 1847 419 c 4
 1847 374 1828 329 1791 291 c 5
 1829 255 1849 215 1849 173 c 4
EndSplineSet
LCarets2: 1 0
EndChar

StartChar: ngk1u2
Encoding: 65610 -1 191
Width: 1970
GlyphClass: 3
LigCaretCntFixed: 1
Flags: W
HStem: -526 121<314.236 1863.96> -188 139<310.892 1677.37> -19 141<298.598 539.635 856.752 1136.84> 170 143<1488.38 1671.2> 496 146<345.224 588> 516 133<747 1255 1423 1644.6> 887 142<277.94 521.074 870.805 1129.95>
VStem: 100 139<179.993 404.246 682.387 849.197> 142 140<-377.746 -214.267> 1255 144<658 749.324> 1276 140<289.95 516> 1689 140<336.208 472.053> 1713 138<-8.46746 145.929>
LayerCount: 2
Fore
SplineSet
607 307 m 0xfb
 607 371 588 428 588 496 c 1
 494 496 l 1
 362 480 239 422 239 288 c 0
 239 195 321 122 412 122 c 0
 519 122 607 203 607 307 c 0xfb
1276 516 m 1xf620
 729 516 l 1
 729 316.892531486 803.671073103 118 998 118 c 0
 1182.26626132 118 1276 306.781883433 1276 493 c 6
 1276 516 l 1xf620
601 686 m 0
 601 798 501 887 399 887 c 0
 319 887 245 845 245 768 c 0
 245 669 331 645 444 642 c 1
 485 642 l 1xfa
 516 645 554 646 599 647 c 1
 598 650 598 653 598 655 c 0
 598 660 601 672 601 686 c 0
1255 649 m 1xf640
 1220 773 1126 889 1000 889 c 0
 877 889 779 774 747 649 c 1
 1255 649 l 1xf640
1575 170 m 0
 1518 170 1483 196 1483 242 c 0
 1483 286 1517 313 1568 313 c 0
 1620 313 1689 350 1689 397 c 0
 1689 481 1593 518 1423 518 c 1
 1423 510 1416 502 1416 494 c 0xf230
 1416 227.125531066 1267.54018975 -19 996 -19 c 4
 862 -19 756 60 698 137 c 1
 639 42 545 -19 410 -19 c 0
 247 -19 100 120 100 284 c 0
 100 385 151 484 234 548 c 1
 154 593 105 664 105 768 c 0
 105 924 244 1029 393 1029 c 0
 530 1029 636 950 691 859 c 1
 749 940 855 1029 988 1029 c 0
 1204 1029 1354 859 1399 658 c 1
 1473 658 l 2
 1657 658 1829 574 1829 391 c 0xf350
 1829 339 1807 291 1764 246 c 1
 1823 197 1851 145 1851 80 c 0
 1851 -68 1750 -188 1627 -188 c 2
 367 -188 l 1
 310 -212 282 -266 282 -300 c 0
 282 -336 315 -385 377 -405 c 1
 1797 -405 l 2
 1824 -405 1869 -426 1869 -456 c 0
 1869 -494 1837 -526 1799 -526 c 2
 474 -526 l 2
 303 -526 142 -469 142 -301 c 0
 142 -203 220 -118 288 -90 c 0
 372 -55 425 -49 549 -49 c 2
 1480 -49 l 2
 1607 -49 1713 -23 1713 69 c 0xf288
 1713 126 1653 171 1593 171 c 0
 1587 171 1581 170 1575 170 c 0
EndSplineSet
LCarets2: 1 0
EndChar

StartChar: ngk1r1
Encoding: 65611 -1 192
Width: 1943
GlyphClass: 3
LigCaretCntFixed: 1
Flags: HW
HStem: -493 140<788.162 1191.42> -182 140<761.126 1031.7> -23 141<249.392 490.635 810.762 1087.88> 492 146<296.224 539> 512 133<698 1206> 883 142<228.906 473.911 818.1 1079.08>
VStem: 51 139<175.554 399.926 678.602 845.197> 539 141<305.995 492> 615 142<-315.582 -188.356> 1206 144<652 743.58> 1227 140<286.18 510> 1631 141<-6.07586 383.685>
LayerCount: 2
Fore
SplineSet
691 855 m 5
 753 942 859 1025 1000 1025 c 4
 1237 1025 1371 822 1406 625 c 5
 1657 581 1843 398 1843 103 c 4
 1843 -350.039497025 1496.54698823 -624 1015 -624 c 4
 815.684537117 -624 602 -563.411808009 602 -354 c 4
 602 -156.065096627 802.339384743 -72 985 -72 c 4
 1173.83076452 -72 1385 -150.946045084 1385 -357 c 4
 1385 -380 1380 -401 1375 -420 c 5
 1382 -418 1390 -415 1397 -413 c 4
 1569.51918255 -315.537864406 1703 -130.156892358 1703 103 c 4
 1703 310 1584 437 1417 479 c 5
 1414.67033699 227.396395143 1267.65768071 -23 1000 -23 c 4
 866 -23 762 51 699 132 c 5
 643 41 534 -24 419 -24 c 4
 245 -24 100 113 100 287 c 4
 100 399 162 492 232 546 c 5
 163 587 106 661 106 762 c 4
 106 921 239 1023 395 1023 c 4
 519 1023 634 951 691 855 c 5
1003 885 m 5
 999 885 l 6
 856 885 777 759 747 642 c 5
 1200 639 l 6
 1220 639 1239 639 1259 638 c 5
 1227 759 1148 881 1003 885 c 5
601 676 m 4
 601 790 507 883 394 883 c 6
 393 883 l 6
 315 883 246 838 246 761 c 4
 246 699 295 662 347 648 c 4
 374 641 407 639 445 638 c 6
 469 637 l 5
 511 642 551 643 592 643 c 6
 600 643 l 5
 600 651 l 6
 600 659 601 668 601 676 c 4
729 502 m 5
 729 491 l 6
 729 301.424749251 815.940210997 117 1000 117 c 4
 1188.13657856 117 1277 307.61539098 1277 491 c 4
 1277 493 1277 495 1277 497 c 5
 1251 498 1226 499 1199 499 c 6
 729 502 l 5
417 116 m 4
 522 116 608 201 608 308 c 4
 608 316 608 323 607 331 c 4
 595 383 589 437 589 490 c 6
 589 492 l 5
 479 496 l 5
 361 480 240 417 240 288 c 4
 240 193 321 116 417 116 c 4
988 -212 m 6
 987 -212 l 6
 874.599521836 -212 742 -243.100918747 742 -355 c 4
 742 -416 800 -452 850 -467 c 5
 904 -475 957 -478 1013 -478 c 4
 1121.93308098 -478 1244 -462.509968913 1244 -358 c 4
 1244 -242.764859285 1103.42886858 -212 988 -212 c 6
EndSplineSet
LCarets2: 1 0
EndChar

StartChar: ngng
Encoding: 65612 -1 193
Width: 2566
GlyphClass: 3
LigCaretCntFixed: 1
Flags: W
HStem: -18 142<340.779 544.415 950.512 1172.08 1927.8 2277.94> 401 141<337.96 541.921 1974.88 2244.87> 881 140<509.822 904.138 1156.32 1459.66 1849.91 2191.8>
VStem: 100 199<203.585 539.154> 582 140<160.102 361.762> 738 140<201.981 614.176> 1245 141<201.427 577.181> 1585 136<-16.6828 734.125> 2290 138<588.707 795.488> 2327 139<171.345 343.465>
LayerCount: 2
Fore
SplineSet
447 124 m 4xff
 521 124 582 187 582 261 c 4
 582 340 520 401 444 401 c 4
 367 401 299 342 299 259 c 4
 299 180 375 124 447 124 c 4xff
1033 778 m 5
 935 684 878 554 878 380 c 4
 878 250 935 119 1060 119 c 4
 1180 119 1245 239 1245 365 c 4
 1245 551 1169 676 1033 778 c 5
2116 -21 m 4
 2051.55522727 -21 1871 7.10193379609 1871 91 c 4
 1871 131 1899 168 1936 168 c 4
 1952 168 1971 161 1994 148 c 4
 2023 131 2071 121 2119 121 c 4
 2217 121 2327 166 2327 258 c 4xff40
 2327 346 2241 391 2070 394 c 5
 2035 394 l 5
 1999 395 1966 426 1966 464 c 4
 1966 501 1996 534 2033 534 c 6
 2063 534 l 5
 2199 540 2290 581 2290 691 c 4
 2290 812 2147 881 2023 881 c 4
 1806 881 1721 749 1721 517 c 6
 1721 48 l 6
 1721 13 1694 -22 1660 -22 c 4
 1620 -22 1585 2.95351349994 1585 46 c 6
 1585 494 l 5
 1583 726 1504 890 1291 890 c 4
 1246 890 1200 880 1155 860 c 5
 1296 739 1386 582 1386 366 c 4
 1386 165 1269 -21 1063 -21 c 4
 849 -21 738 174 738 377 c 4
 738 577 800 729 907 848 c 5
 841 874 777 885 717 885 c 4
 463 885 260 691 242 458 c 5
 298 514 362 542 435 542 c 4
 593 542 722 420 722 264 c 4
 722 122 601 -18 451 -18 c 4
 224 -18 100 203 100 426 c 4
 100 773 389 1025 721 1025 c 4
 819 1025 922 1002 1024 948 c 5
 1108 1002 1194 1028 1282 1028 c 4
 1452 1028 1576 949 1650 828 c 5
 1730 957 1852 1021 2017 1021 c 4
 2233 1021 2428 893 2428 687 c 4xff80
 2428 610 2397 535 2334 480 c 5
 2404 438 2466 364 2466 255 c 4xff40
 2466 79 2292 -21 2116 -21 c 4
EndSplineSet
LCarets2: 2 0 0
EndChar

StartChar: ch1ch1
Encoding: 65617 -1 198
Width: 1525
GlyphClass: 3
LigCaretCntFixed: 1
Flags: W
HStem: -416 128<769 1285> 0 138<57.7806 793.419 1110 1283> 605.421 139.592<570.439 810.952>
VStem: 358.927 141.888<282.916 537.486> 897.412 139.244<243.948 515.12> 1283 140<-288 2 140 1019.81>
LayerCount: 2
Fore
SplineSet
1285 2 m 1
 1110 2 l 1
 769 -288 l 1
 1285 -288 l 1
 1285 2 l 1
695.022137534 745.012838677 m 0
 878.546143086 745.012838677 1036.65626351 576.100809004 1036.65626351 385.405477215 c 0
 1036.65626351 297.652841722 1007.43449454 209.193597651 951 140 c 1
 1283 140 l 1
 1283 969 l 6
 1283 995 1323 1026 1353 1026 c 4
 1383 1026 1423 997 1423 970 c 6
 1423 -346 l 2
 1423 -383 1393 -416 1356 -416 c 2
 575 -416 l 2
 548 -416 504 -391 504 -360 c 0
 504 -340 512 -323 528 -309 c 2
 892 0 l 1
 121 0 l 2
 95 0 50 38 50 68 c 0
 50 106 82 138 120 138 c 2
 682 138 l 1
 800.33811004 153.171552569 897.411944731 252.560546445 897.411944731 387.113480574 c 0
 897.411944731 504.203107703 799.027371293 605.421305964 688.835956831 605.421305964 c 0
 583.605032078 605.421305964 500.814408729 524.090210406 500.814408729 413.867566049 c 0
 500.814408729 367.230989753 523 339.107724944 523 302 c 0
 523 272 489 239 458 239 c 0
 377.323496354 239 358.926710894 351.02302964 358.926710894 418.4018852 c 0
 358.926710894 596.982793799 510.45583068 745.012838677 695.022137534 745.012838677 c 0
EndSplineSet
LCarets2: 2 0 0
EndChar

StartChar: ch1ch2
Encoding: 65620 -1 201
Width: 1715
GlyphClass: 3
LigCaretCntFixed: 1
Flags: W
HStem: -728.436 119.006<56.9003 534.273 655 849 1253.83 1478.11> -294.681 120.681<351.543 546.012> 4 136<56.5918 792.827 951 1182 1275 1401> 608.101 141.606<571.232 811.744> 983 20G<1452.5 1483>
VStem: 198.215 119.466<-522.139 -327.315> 360.269 140.545<285.494 540.522> 588.378 119.559<-555.14 -336.933> 791.038 120.522<-553.697 -261.161> 897.41 140.341<246.501 520.764> 1075.52 117.883<-543.232 -292.142> 1401 140<143 996.727> 1544.74 120.963<-538.889 -257.224>
LayerCount: 2
Fore
SplineSet
1362.9724471 -609.429770411 m 0xff38
 1468.5739133 -609.429770411 1544.74418605 -522.633325496 1544.74418605 -400.048033506 c 0
 1544.74418605 -320.352082207 1511.1627907 -250.209302326 1444 -191 c 4
 1441 -192 1439 -192 1437 -192 c 5
 1437 -191 l 5
 1322.74218817 -191 1193.40626374 -290.563839916 1193.40626374 -403.83197966 c 0
 1193.40626374 -515.355915786 1258.0577983 -609.429770411 1362.9724471 -609.429770411 c 0xff38
1037.75106248 385.737410083 m 0xff78
 1037.75106248 288.451624466 1007.40523577 212.421828634 951 143 c 5
 1401 143 l 5
 1401 942 l 6
 1401 975 1439 1003 1466 1003 c 4
 1500 1003 1541 977 1541 948 c 6
 1541 74 l 6
 1541 35 1509.01315562 4 1471 4 c 6
 1275 4 l 5
 1494.48906507 -17.7202720642 1665.70675051 -183.304205057 1665.70675051 -402.929911465 c 0
 1665.70675051 -585.013176851 1544.25091738 -728.435948025 1360.84910868 -728.435948025 c 0
 1198.20680385 -728.435948025 1075.52332749 -587.079568556 1075.52332749 -426.836040876 c 0
 1075.52332749 -286.998863689 1146.76871341 -174.120020361 1253 -115 c 5
 1242.87519376 -114.253961646 1232.94348436 -113.882758321 1223.20366122 -113.882758321 c 0
 1057.49531967 -113.882758321 911.560128116 -248.842724645 911.560128116 -405.113102444 c 0
 911.560128116 -497.487779759 962.404150486 -580.111773232 1018 -623 c 4
 1033 -635 1041 -650 1041 -668 c 4
 1041 -703 1015 -731 981 -731 c 6
 113 -731 l 6
 90 -731 52 -692 52 -666 c 4
 52 -640 77 -606 100 -606 c 6
 438 -606 l 5
 515.790873815 -600.671857958 588.378094964 -532.887380838 588.378094964 -454.551890081 c 0
 588.378094964 -367.676317977 532.81446023 -294.681014046 451.244708641 -294.681014046 c 0
 380.381966459 -294.681014046 317.681654301 -350.112958335 317.681654301 -421.942517473 c 0
 317.681654301 -446.161643295 334.9068314 -476.171907203 334.9068314 -499.524840138 c 0
 334.9068314 -527.338489348 297.446116331 -555 279 -555 c 4
 218.882949442 -555 198.215426312 -495.423162661 198.215426312 -428.281192189 c 0
 198.215426312 -283.055043481 308.620155655 -175.054263561 452 -174 c 4
 588.657705479 -174 707.9375 -298.850262793 707.9375 -441.970920139 c 0
 707.9375 -500.623263889 690.291666667 -559.958333333 655 -609 c 5
 849 -609 l 5
 810.358490566 -544.396226415 791.037735849 -479.334282663 791.037735849 -411.373966429 c 0xffb8
 791.037735849 -177.55351733 974.451081297 -18.9269154381 1182 4 c 5
 121 4 l 6
 95 4 50 40 50 70 c 4
 50 108 82 140 120 140 c 6
 680 140 l 5
 800.279868072 153.13981752 897.409732507 256.608025998 897.409732507 391.041381582 c 0
 897.409732507 507.713168162 799.14894867 608.100819156 689.574976637 608.100819156 c 0
 584.757816756 608.100819156 500.814408729 526.215895363 500.814408729 416.825832394 c 0
 500.814408729 369.913918924 523 341.810107397 523 305 c 4
 523 275 488 242 458 242 c 4
 377.811686614 242 360.26927187 349.401050618 360.26927187 419.56520262 c 0
 360.26927187 602.798469098 505.811443669 749.707176067 684.547274638 749.707176067 c 0
 894.121356502 749.707176067 1037.75106248 573.91189107 1037.75106248 385.737410083 c 0xff78
EndSplineSet
LCarets2: 2 0 0
EndChar

StartChar: ch2u1
Encoding: 65621 -1 202
Width: 2696
GlyphClass: 3
LigCaretCntFixed: 1
Flags: W
HStem: -555 140<205.642 781.562> -540 125<2127.69 2628.06> -256 140<201.551 2239.25> -3 146<62.3232 794.395 951 1305 1840.51 2121.44> 612 139<574.273 811.155> 868 140<1611.88 1931.11>
VStem: 48 142<-396.591 -279.132> 363 141<292.332 536.576> 901 143<251.643 520.878> 1215 142<254.972 618.045> 1602 143<241.781 560.538> 2247 139<273.634 613.741> 2505 144<117.434 495.331>
LayerCount: 2
Fore
SplineSet
1974 140 m 0x3ff8
 2130.33168949 140 2247 275.5574388 2247 423 c 0
 2247 552.677978918 2194.99264883 650.025933964 2122 727 c 1
 2113 728 2104 728 2095 728 c 0
 1902.49635816 728 1745 589.13494078 1745 402 c 0
 1745 260.983798721 1834.88216168 140 1974 140 c 0x3ff8
335 -555 m 0xbff8
 179.445950474 -555 48 -458.449060396 48 -333 c 0
 48 -163.769086168 223.654732561 -116 417 -116 c 0
 459 -116 506 -117 568 -117 c 0
 755 -117 1034 -116 1302 -116 c 0
 1592 -116 1859 -119 2006 -119 c 0
 2280.71092897 -119 2505 33.2911698567 2505 306 c 0
 2505 453 2434 576 2345 642 c 1
 2372 576 2386 511 2386 445 c 0
 2386 203.318755206 2222.41892043 -4 1984 -4 c 0
 1765.00097957 -4 1602 174.542600136 1602 400 c 0
 1602 634.64150709 1755.99550212 788.166847226 1933 846 c 1
 1887 860 1841 868 1795 868 c 0
 1574.46951024 868 1357 679.842310918 1357 438 c 0
 1357 308 1426 186 1505 121 c 0
 1522 107 1530 90 1530 69 c 0
 1530 29 1499 -3 1460 -3 c 2
 125 -3 l 2
 92 -3 54 40 54 67 c 0
 54 102 80 143 110 143 c 2
 682 143 l 1
 793 153 896 257 901 372 c 1
 901 376 l 1
 902 383 903 391 903 398 c 0
 903 499 802 612 698 612 c 0
 686 612 674.165525061 608 662 608 c 0
 573.464522575 608 504 498.64053144 504 413 c 0
 504 377.337629497 528 347.998466141 528 315 c 0
 528 279 500 244 463 244 c 0
 384.652502516 244 363 349.249914061 363 418 c 0
 363 606 513 751 696 751 c 0
 897.347679814 751 1044 587.933678619 1044 388 c 0
 1044 293 1006 204 951 139 c 1
 1305 139 l 1
 1245 232 1215 330 1215 433 c 0
 1215 688 1365 864 1543 949 c 0
 1626 988 1710 1008 1794 1008 c 0
 1959.65662102 1008 2085.25325698 952.537133858 2187 863 c 1
 2437.89611677 819.635239078 2649 601.711996802 2649 314 c 0
 2649 -66.0227309226 2363.75204058 -258 1963 -258 c 0
 1806 -258 1643 -255 1451 -255 c 0
 1156 -255 832 -257 572 -257 c 0
 517 -257 467 -256 416 -256 c 0
 307.406886491 -256 190 -258.273802414 190 -336 c 4
 190 -370 220 -401 280 -415 c 1xbff8
 2563 -415 l 2
 2601 -415 2633 -432 2633 -470 c 0
 2633 -508 2601 -540 2563 -540 c 0x7ff8
 2243 -542 675 -555 335 -555 c 0xbff8
EndSplineSet
LCarets2: 1 0
EndChar

StartChar: ch2u2
Encoding: 65622 -1 203
Width: 2894
GlyphClass: 3
LigCaretCntFixed: 1
Flags: W
HStem: -535 124<207.808 2630.96> -243 132<216.584 2546.95> 4 141<63.2862 792.202 953 1308 1840.01 2115.04> 222 138<2407.1 2514.07> 620 136<581.964 815.804> 871 140<1614.21 1997.68>
VStem: 50 141<-394.207 -273.307> 366 141<294.521 544.61> 905 138<256.94 525.652> 1219 138<262.976 630.26> 1603 140<241.817 520.139> 2244 141<282.633 633.234> 2558 140<399.819 622.979> 2658 137<-17.6118 179.854>
LayerCount: 2
Fore
SplineSet
2152 706 m 5xfff0
 1934.27161488 689.956855833 1743 567.579187987 1743 381 c 4
 1743 254 1844 145 1968 145 c 4
 2127 145 2244 272 2244 456 c 4
 2244 546 2214 629 2152 706 c 5xfff0
379 -243 m 5
 278.705544147 -246.008833676 191 -274.705102517 191 -334 c 4
 191 -373 250.599363064 -411 282 -411 c 6
 2564 -411 l 6
 2591 -411 2636 -435 2636 -465 c 4
 2636 -503 2604 -535 2566 -535 c 6
 391 -535 l 6
 231 -535 127 -510 77 -425 c 4
 59 -395 50 -364 50 -333 c 4
 50 -303 59 -274 75 -244 c 4
 128 -147 252 -111 427 -111 c 6
 2316 -111 l 5
 2407 -110 2470 -96 2506 -85 c 4
 2580 -61 2658 2 2658 80 c 4xfff4
 2658 154 2586 226 2515 226 c 4
 2495 226 2484 222 2460 222 c 4
 2433 222 2402 259 2402 288 c 4
 2402 325 2425 350 2455 360 c 4
 2508 378 2558 437 2558 508 c 4
 2558 632.023333014 2451.79438341 687.103284179 2320 704 c 5
 2355 638 2385 559 2385 456 c 4
 2385 261 2288 121 2155 50 c 4
 2096 18 2035 4 1977 4 c 4
 1776 4 1603 173 1603 380 c 4
 1603 626.797052963 1801.53489293 773.383723232 2004 824 c 5
 1937 857 1867 871 1801 871 c 4
 1563 871 1357 681 1357 448 c 4
 1357 311 1427 193 1507 126 c 4
 1524 112 1533 95 1533 74 c 4
 1533 34 1502 2 1463 2 c 6
 127 2 l 6
 89 2 57 40 57 78 c 4
 57 108 86 148 112 148 c 6
 684 148 l 5
 802 160 905 269 905 388 c 4
 905 508.99502258 815.929599709 620 695 620 c 4
 584 620 507 517 507 419 c 4
 507 376 530 347 530 313 c 4
 530 283 495 250 465 250 c 4
 385.615758575 250 366 356.752261922 366 426 c 4
 366 600.8951586 502.278325861 756 679 756 c 4
 881.0473396 756 1043 600.702077314 1043 398 c 4
 1043 307 1012 215 953 145 c 5
 1308 145 l 5
 1249 236 1219 336 1219 448 c 4
 1219 761.08062774 1483.22925879 1011 1803 1011 c 4
 1961 1011 2097 957 2210 849 c 5
 2310 849 2403 838 2457 816 c 4
 2618 750 2698 648 2698 507 c 4xfff8
 2698 443 2679 385 2641 333 c 5
 2722 292 2795 191 2795 78 c 4xfff4
 2795 40 2788 1 2769 -38 c 4
 2708 -167 2584.13097018 -243 2397 -243 c 6
 379 -243 l 5
EndSplineSet
LCarets2: 1 0
EndChar

StartChar: ch2r1
Encoding: 65623 -1 204
Width: 2787
GlyphClass: 3
LigCaretCntFixed: 1
Flags: W
HStem: -558 139<1717.12 2101.86> -197 140<1708.74 2081.41> -11 141<58.2718 781.642 946 1301 1847.31 2117.34> 604 140<567.006 815.161> 859 140<1600.93 1912.11>
VStem: 360 141<283.34 536.435> 897 140<242.333 518.72> 1212 139<248.275 608.653> 1540 139<-380.667 -230.161> 1598 140<248.629 559.802> 2239 143<261.614 622.708> 2548 141<26.1383 467.212>
LayerCount: 2
Fore
SplineSet
1679 -305 m 4xffb0
 1679 -389.578745068 1786.84154398 -419 1888 -419 c 4
 1997 -419 2105 -385 2214 -317 c 5
 2107 -237 1988 -197 1859 -197 c 4
 1767.69613051 -197 1679 -226.49915149 1679 -305 c 4xffb0
1978 130 m 4
 2141.83070635 130 2239 278.801661972 2239 434 c 4
 2239 570 2189 656 2106 735 c 5
 1904 735 1738 592 1738 400 c 4xff70
 1738 256 1844 130 1978 130 c 4
1987 -11 m 4
 1755.62325493 -11 1598 176.857023798 1598 401 c 4xff70
 1598 608 1744 778 1915 842 c 5
 1874 853 1833 859 1793 859 c 4
 1733 859 1673 846 1614 821 c 4
 1486 767 1351 621 1351 435 c 4
 1351 300 1420 180 1501 114 c 4
 1518 100 1526 83 1526 62 c 4
 1526 22 1495 -10 1456 -10 c 6
 121 -10 l 6
 83 -10 50 28 50 66 c 4
 50 96 79 136 106 136 c 6
 677 136 l 5
 798 148 897 252 897 386 c 4
 897 496 814 604 691 604 c 4
 580 604 501 522 501 411 c 4
 501 367.508117982 523 337.357899523 523 306 c 4
 523 267 492 237 453 237 c 4
 380 237 360 344 360 415 c 4
 360 592.181464264 499.079093727 744 676 744 c 4
 874.277113099 742.111646542 1037 584.948847061 1037 385 c 4
 1037 294 1005 203 946 132 c 5
 1301 132 l 5
 1242 223 1212 324 1212 436 c 4
 1212 756 1478 999 1802 999 c 4
 1935 999 2055 956 2162 871 c 5
 2471 835 2689 558 2689 242 c 4
 2689 -50.5095723624 2518.13268402 -272.840250982 2334 -405 c 4
 2191 -507 2043 -558 1890 -558 c 4
 1703.40508901 -558 1540 -482.797261867 1540 -305 c 4xffb0
 1540 -134.555022209 1697.83814045 -57 1871 -57 c 4
 2048 -57 2193 -115 2328 -229 c 5
 2443 -123 2548 48 2548 244 c 4
 2548 444.941057437 2460.84695726 584.095651713 2325 669 c 5
 2363 591 2382 515 2382 442 c 4
 2382 244.421515892 2293.02499648 106.568331535 2153 35 c 4
 2095 5 2040 -11 1987 -11 c 4
EndSplineSet
LCarets2: 1 0
EndChar

StartChar: ch3u1
Encoding: 65624 -1 205
Width: 1847
GlyphClass: 3
LigCaretCntFixed: 1
Flags: W
HStem: -535 140<256.867 1738.29> -253 140<254.733 1429.19> -21 140<1139.26 1286.47> 5 140<265.516 557.008> 301 142<263.124 792.288> 301 101<861 1166> 441 142<264.999 422.427> 881 143<461 638.839 934.656 1201.39>
VStem: 102 140<-372.902 -276.481 171.698 274.062 607.228 765> 439 142<595.667 766.923> 717 141<455.047 801.976> 988 139<132.041 247.264> 1278 143<541.557 804.314> 1293 140<126.193 276.99> 1604 144<26.2359 295.957>
LayerCount: 2
Fore
SplineSet
412 301 m 0xd9f2
 335 301 252 285 252 222 c 0
 252 174 317 145 379 145 c 0
 507 145 613 177 797 279 c 1
 623 299 447 301 412 301 c 0xd9f2
1127 213 m 0
 1127 157 1164 119 1218 119 c 0
 1261 119 1293 149 1293 192 c 0
 1293 264 1238 299 1166 301 c 1xe5f6
 1140 271 1127 242 1127 213 c 0
241 698 m 0
 241 623 298 583 363 583 c 0xc3f2
 407 583 439 643 439 688 c 0
 439 736 397 781 352 781 c 0
 293 781 241 756 241 698 c 0
1388 531 m 1
 1580 521 1748 376 1748 166 c 0
 1748 -134 1470 -253 1146 -253 c 0
 996 -254 515 -258 358 -261 c 0
 298 -262 242 -288 242 -321 c 0
 242 -365 321 -395 383 -395 c 2
 1688 -395 l 2
 1714 -395 1744 -435 1744 -465 c 0
 1744 -495 1714 -535 1688 -535 c 2
 370 -535 l 1
 229 -531 102 -442 102 -325 c 0
 102 -191 227 -122 352 -120 c 0
 486 -118 1016 -113 1144 -113 c 0
 1387 -113 1604 -48 1604 166 c 0
 1604 297 1496 388 1371 388 c 0
 1360 388 1349 387 1338 386 c 1
 1393 345 1433 273 1433 198 c 0
 1433 76 1321 -21 1218 -21 c 0xe7f6
 1078 -21 988 85 988 214 c 0
 988 225 989 237 990 248 c 1
 833 172 517 5 375 5 c 0
 232 5 113 85 113 223 c 0
 113 383 269 443 422 443 c 0xd9f6
 558.126522144 443 726.526206326 402 861 402 c 0
 1058.18210783 402 1278 477.385707179 1278 676 c 0
 1278 797 1186 881 1073 881 c 0
 943 881 856 798 856 663 c 0
 856 610 858 556 858 530 c 0
 858 483 831 449 788 449 c 0
 758 449 717 476 717 502 c 2
 717 676 l 1
 715 799 614 890 490 890 c 2
 461 890 l 1
 529 850 581 777 581 675 c 0
 581 552 471 441 352 441 c 0
 199 441 100 575 100 705 c 0
 100 882 278 1031 462 1031 c 0
 608 1031 721 974 787 886 c 1
 844 961 944 1024 1067 1024 c 0
 1269 1024 1421 864 1421 678 c 0xc7fa
 1421 630 1411 580 1388 531 c 1
EndSplineSet
LCarets2: 1 0
EndChar

StartChar: ch3u2
Encoding: 65625 -1 206
Width: 1970
GlyphClass: 3
LigCaretCntFixed: 1
Flags: W
HStem: -541 142<250.053 1794.81> -267 142<243.361 1679.39> -34 139<1147.74 1283.18> -1 141<263.686 574.102> 82 150<1492.18 1602.18> 296 140<266.399 725.609> 436 134<264.135 418.787> 452 137<1410.3 1568.14> 877 139<475 641.519 938.553 1201.85>
VStem: 103 135.222<-376.818 -289.592 594.872 761.824> 112 141<157.66 277.568> 441 143<590.559 761.337> 718 136<448.694 791.47> 997 140<112.323 249.314> 1281 140<590.152 793.452> 1296 140<116.425 269.252> 1612 139<234.262 406.296> 1729 142<-76.7457 90.0873>
LayerCount: 2
Fore
SplineSet
1214 105 m 0xe09d
 1260 105 1296 146 1296 193 c 0
 1296 252 1243 287 1178 292 c 1
 1151 256 1137 226 1137 201 c 0
 1137 142 1165 105 1214 105 c 0xe09d
381 296 m 0xd4bc
 314 296 253 270 253 214 c 0
 253 170 310 140 367 140 c 0
 505 140 571 176 728 263 c 1
 659 269 464 296 381 296 c 0xd4bc
441 675 m 0
 441 731 396 780 339 780 c 0
 283 780 237 734 237 687 c 0
 237 629 287 570 340 570 c 4xc29c
 386 570 441 614 441 675 c 0
238.222019527 -325.632764746 m 0xd5dc40
 238.222019527 -381.608650557 336 -399 413 -399 c 2
 1730 -399 l 2
 1768 -399 1801 -433 1801 -471 c 0
 1801 -501 1772 -541 1745 -541 c 2
 441 -541 l 2
 305 -541 214 -514 167 -466 c 0
 124 -421 103 -372 103 -325 c 0
 103 -176 252 -125 436 -125 c 2
 1504 -125 l 2
 1623 -125 1729 -86 1729 14 c 0
 1729 54 1693 104 1642 104 c 0
 1608 104 1577 82 1551 82 c 0
 1510 82 1482 108 1482 155 c 0
 1482 201 1531 220 1564 232 c 1xcddc40
 1597 255 1612 286 1612 318 c 0
 1612 394 1533 452 1453 452 c 0
 1407 452 1357 435 1302 401 c 1
 1374 364 1436 286 1436 189 c 0
 1436 67 1338 -34 1215 -34 c 0xe19d80
 1091 -34 997 65 997 191 c 0
 997 210 999 230 1004 250 c 1
 830 169 570 -1 375 -1 c 0
 238 -1 112 78 112 213 c 0
 112 360 249 436 387 436 c 0
 508 436 736 395 881 395 c 0
 1121 395 1281 495 1281 656 c 0
 1281 788 1188 877 1074 877 c 0
 944 877 854 787 854 645 c 2
 854 498 l 2
 854 473 818 443 789 443 c 0
 753 443 718 474 718 509 c 2
 718 677 l 1
 715 808 614 883 475 883 c 1
 532 849 584 768 584 674 c 0
 584 540 475 436 347 436 c 0
 203 436 100 555 100 697 c 0
 100 900 272 1023 478 1023 c 0
 622 1023 719 974 787 879 c 1
 848 958 941 1016 1064 1016 c 0
 1259 1016 1421 872 1421 680 c 0
 1421 650 1417 619 1409 587 c 1
 1423 589 1437 589 1451 589 c 0
 1618 589 1751 480 1751 319 c 0xd5be80
 1751 285 1745 253 1732 223 c 1
 1802 192 1871 115 1871 14 c 0
 1871 -161 1699 -267 1517 -267 c 2
 438 -267 l 2
 354 -267 238.222019527 -283.237814939 238.222019527 -325.632764746 c 0xd5dc40
EndSplineSet
LCarets2: 1 0
EndChar

